<?xml version="1.0" standalone="no"?>
<!DOCTYPE svg PUBLIC "-//W3C//DTD SVG 20010904//EN"
 "http://www.w3.org/TR/2001/REC-SVG-20010904/DTD/svg10.dtd">
<svg version="1.0" xmlns="http://www.w3.org/2000/svg"
 width="3000.000000pt" height="3000.000000pt" viewBox="0 0 3000.000000 3000.000000"
 preserveAspectRatio="xMidYMid meet">
<metadata>
Created by potrace 1.11, written by Peter Selinger 2001-2013
</metadata>
<g transform="translate(0.000000,3000.000000) scale(0.100000,-0.100000)"
fill="#000000" stroke="none">
<path d="M14650 27629 c-263 -7 -514 -20 -667 -35 l-63 -6 0 -34 c0 -24 5 -34
15 -34 8 0 15 -4 15 -9 0 -19 -21 -22 -52 -7 -17 9 -37 16 -45 16 -7 0 -13 9
-13 20 0 15 -7 20 -29 20 -16 0 -43 3 -60 6 -28 6 -31 4 -31 -20 l0 -26 -100
0 c-84 0 -100 3 -100 16 0 12 -8 14 -42 9 -818 -111 -1348 -218 -2018 -410
-1396 -400 -2758 -1060 -3940 -1910 -1071 -770 -2018 -1702 -2805 -2760 -1973
-2653 -2844 -5958 -2434 -9240 177 -1417 594 -2804 1230 -4090 1447 -2926
3955 -5188 7018 -6330 1813 -676 3782 -932 5711 -745 2870 280 5566 1520 7641
3516 2785 2679 4209 6445 3894 10299 -232 2832 -1413 5524 -3345 7625 -172
186 -564 578 -750 750 -2040 1876 -4629 3039 -7385 3319 -326 33 -608 51 -985
61 -195 5 -359 9 -365 8 -5 -1 -138 -5 -295 -9z m-790 -175 c0 -8 4 -14 10
-14 14 0 1 -27 -16 -34 -11 -4 -14 4 -14 35 0 24 4 38 10 34 6 -3 10 -13 10
-21z m140 -134 c0 -29 -4 -40 -15 -40 -11 0 -15 11 -15 40 0 29 4 40 15 40 11
0 15 -11 15 -40z m1760 -2434 c107 -9 276 -25 375 -36 1923 -216 3739 -983
5238 -2212 620 -508 1205 -1121 1679 -1758 1063 -1429 1716 -3103 1897 -4865
39 -374 46 -540 45 -1030 0 -499 -10 -691 -54 -1083 -126 -1098 -414 -2115
-883 -3107 -773 -1636 -2011 -3056 -3542 -4061 -2001 -1313 -4391 -1863 -6800
-1563 -909 113 -1807 356 -2680 726 -236 100 -716 335 -935 458 -1277 716
-2369 1682 -3224 2855 -1023 1401 -1664 3070 -1835 4780 -39 388 -46 539 -46
1010 0 557 21 878 86 1350 239 1725 936 3366 2011 4730 764 970 1705 1798
2756 2423 1386 826 2919 1294 4577 1397 226 14 1108 5 1335 -14z"/>
<path d="M13742 24585 c-51 -7 -95 -15 -98 -18 -3 -3 20 -49 51 -103 201 -348
313 -658 362 -999 25 -179 25 -632 0 -815 -26 -190 -74 -418 -122 -585 -43
-147 -62 -204 -185 -535 -216 -583 -252 -722 -285 -1115 -15 -181 -50 -411
-64 -419 -3 -2 -87 2 -187 10 -192 13 -283 31 -349 68 -23 12 -146 110 -275
217 -405 337 -554 443 -830 589 -228 122 -369 202 -520 298 -187 119 -236 154
-475 345 -22 18 -99 90 -170 162 -102 102 -150 160 -220 265 -151 227 -290
520 -364 768 -35 118 -87 366 -96 464 l-7 66 -100 -61 -100 -61 6 -40 c3 -23
22 -201 42 -396 38 -382 72 -583 143 -840 89 -322 239 -708 401 -1030 21 -42
48 -106 59 -141 22 -66 41 -159 34 -159 -29 0 -225 129 -443 291 -211 158
-275 197 -490 303 -478 236 -850 374 -1235 456 -144 30 -228 57 -260 82 l-28
22 -78 -82 c-44 -45 -79 -85 -79 -89 0 -5 35 -21 78 -37 401 -148 618 -259
857 -436 332 -245 566 -512 805 -915 187 -314 277 -543 314 -791 10 -71 -17
-98 -174 -176 -74 -37 -138 -67 -141 -67 -3 -1 -11 18 -18 42 -23 75 -101 259
-165 387 -170 339 -361 605 -621 866 -253 255 -513 439 -803 568 -85 38 -450
166 -474 166 -9 0 -171 -202 -300 -375 -402 -540 -751 -1125 -1026 -1725 -99
-216 -192 -436 -192 -455 0 -12 203 -167 375 -287 338 -236 659 -394 935 -462
58 -14 227 -44 375 -67 149 -22 272 -43 274 -45 9 -9 -87 -179 -169 -301 l-87
-128 -84 2 c-174 5 -478 63 -686 132 -265 88 -501 208 -688 349 -144 109 -325
275 -364 332 l-39 60 -43 -128 c-23 -70 -44 -134 -47 -142 -5 -13 -3 -13 11
-1 15 12 26 7 94 -45 42 -32 169 -149 283 -259 113 -110 239 -229 280 -266
229 -200 510 -395 911 -632 229 -134 280 -161 489 -252 182 -79 334 -154 327
-161 -2 -3 -146 -20 -318 -39 -760 -84 -1080 -147 -1554 -308 -266 -90 -533
-201 -767 -318 -65 -33 -122 -59 -127 -59 -6 0 -16 19 -22 43 -7 23 -15 46
-19 50 -4 4 -10 -56 -14 -134 -4 -78 -5 -144 -2 -147 3 -3 81 18 173 46 290
88 524 143 753 179 141 21 506 24 650 5 241 -33 465 -88 684 -169 189 -69 499
-228 711 -364 775 -496 1351 -681 2001 -640 269 17 589 71 984 166 l145 34 23
-27 c99 -117 279 -379 268 -389 -2 -3 -134 -11 -293 -18 -505 -25 -727 -51
-957 -110 -287 -74 -640 -243 -883 -424 -276 -204 -573 -506 -900 -914 -377
-470 -750 -792 -1155 -998 -258 -131 -485 -203 -828 -265 -136 -25 -180 -28
-365 -28 -164 -1 -224 3 -275 16 -36 9 -66 15 -68 14 -2 -3 107 -268 114 -275
2 -3 1 9 -2 26 l-6 31 58 8 c33 4 185 3 339 -2 453 -15 877 -11 1042 9 253 31
893 146 1037 187 39 11 163 51 276 89 113 37 221 72 240 76 l35 7 -45 -47
c-25 -26 -115 -109 -200 -185 -179 -159 -244 -225 -401 -406 -314 -360 -604
-756 -799 -1094 -89 -153 -231 -438 -290 -580 -24 -58 -45 -106 -45 -108 -1
-1 -21 5 -45 13 -23 8 -44 15 -47 15 -5 0 147 -199 158 -205 4 -3 28 26 53 65
106 164 315 453 403 557 332 395 796 702 1308 866 236 76 388 106 793 157 370
46 457 63 707 131 370 102 593 201 862 381 462 309 957 894 1076 1273 56 179
62 229 62 525 0 151 -3 301 -8 333 -5 43 -4 57 5 57 23 0 240 -105 429 -207
410 -223 529 -269 853 -328 1190 -220 1949 -151 2706 243 231 121 496 295 750
492 85 66 168 130 184 142 l28 21 -7 -34 c-17 -87 -58 -256 -90 -379 -49 -186
-65 -295 -65 -433 0 -194 39 -336 160 -572 134 -263 308 -487 554 -713 256
-236 596 -457 876 -570 281 -113 455 -155 1205 -288 481 -85 777 -175 1081
-329 171 -87 395 -230 534 -342 109 -87 322 -295 409 -398 181 -214 369 -508
411 -642 l17 -54 43 55 43 56 -32 73 c-91 203 -333 657 -524 977 -335 565
-481 757 -939 1240 -97 102 -175 186 -174 187 3 3 219 -36 558 -101 470 -91
611 -109 1048 -137 221 -14 428 -8 865 26 176 14 347 25 381 25 34 0 82 3 108
6 42 6 49 11 62 42 8 19 13 36 12 37 -2 1 -118 7 -258 14 -723 34 -1149 153
-1594 445 -232 153 -434 340 -754 701 -460 519 -657 687 -1322 1136 -135 91
-279 184 -320 207 -212 116 -546 181 -945 185 -224 2 -288 -9 -561 -89 -99
-29 -216 -62 -260 -73 -70 -17 -106 -24 -241 -47 -30 -4 -33 -3 -33 21 0 38
42 112 106 185 182 210 223 279 335 560 45 113 84 207 86 210 13 12 -14 -116
-78 -369 -38 -151 -67 -277 -64 -279 20 -20 471 129 462 152 -11 29 -40 236
-35 242 4 3 67 -19 142 -50 283 -118 558 -198 801 -232 146 -20 541 -14 723
11 482 66 746 175 1452 599 352 211 648 366 823 431 314 115 596 166 917 164
166 -1 367 -12 376 -22 6 -6 -20 -351 -32 -423 l-6 -31 -301 -6 c-504 -10
-710 -47 -1137 -203 -214 -79 -424 -182 -720 -354 -386 -224 -584 -317 -820
-383 -69 -19 -141 -38 -160 -42 -46 -9 -70 -32 -70 -65 0 -33 100 -132 345
-342 211 -180 323 -296 543 -558 211 -253 265 -311 417 -446 417 -373 641
-495 1142 -623 371 -94 779 -151 1089 -151 l131 0 56 182 c181 587 297 1118
366 1673 21 163 50 448 46 452 0 1 -18 -2 -39 -8 -74 -20 -147 27 -202 131
-13 26 -18 56 -18 115 1 92 18 151 96 317 28 60 49 110 47 111 -2 2 -32 15
-67 30 -142 60 -201 124 -228 244 -21 96 -15 194 21 318 43 152 170 391 306
577 l49 68 -21 152 c-22 164 -57 379 -63 385 -2 2 -11 -9 -21 -24 -10 -15
-109 -149 -220 -298 -207 -277 -297 -406 -354 -507 -18 -32 -36 -58 -40 -58
-4 0 -61 18 -126 40 -526 178 -1244 327 -2032 421 -57 7 -103 15 -103 18 0 4
39 20 88 35 513 166 1056 511 1667 1060 99 89 209 186 245 216 79 65 234 168
265 176 27 7 155 -45 310 -124 60 -32 112 -58 116 -60 9 -4 -55 215 -128 436
-51 152 -61 176 -85 188 -47 25 -201 159 -270 236 -256 287 -403 605 -438 948
-12 125 -7 217 17 296 l16 51 -96 160 c-165 278 -310 497 -496 753 -99 137
-327 432 -374 485 l-22 25 -71 -35 c-39 -19 -129 -57 -200 -85 -164 -65 -286
-130 -444 -235 -482 -321 -871 -767 -1161 -1329 -102 -198 -130 -263 -244
-556 -94 -242 -173 -423 -229 -524 -32 -58 -45 -71 -84 -89 -61 -26 -155 -32
-293 -18 -63 7 -115 14 -117 16 -12 12 50 182 124 338 109 231 160 360 269
677 217 633 367 934 630 1260 357 443 860 768 1399 904 54 14 101 27 104 30 2
3 -26 37 -64 75 l-69 70 -220 -64 c-942 -273 -1699 -654 -2290 -1155 -88 -74
-139 -112 -219 -160 l-38 -23 7 24 c13 44 91 192 185 354 104 177 175 327 285
604 132 334 184 545 280 1151 66 419 111 652 132 694 8 17 24 40 34 51 18 20
18 21 -67 74 -46 30 -86 52 -87 50 -2 -2 -29 -110 -61 -239 -147 -594 -232
-791 -489 -1133 -228 -303 -482 -539 -832 -772 -136 -91 -216 -139 -535 -320
-653 -370 -770 -473 -1226 -1074 -76 -101 -146 -192 -155 -203 -15 -19 -17
-19 -115 10 -54 17 -114 34 -131 37 l-33 7 0 72 c0 40 9 178 20 307 53 603 11
910 -186 1380 -31 74 -81 192 -110 262 -243 581 -355 1192 -324 1772 11 198
40 431 65 529 44 168 202 503 308 651 l28 40 -30 6 c-17 4 -62 9 -101 13 -55
6 -70 4 -70 -6 0 -26 -48 -115 -104 -193 -32 -44 -76 -110 -97 -147 -450 -770
-709 -1477 -799 -2182 -11 -88 -22 -161 -24 -163 -6 -6 -76 68 -91 96 -18 35
-59 166 -115 366 -182 648 -398 1191 -640 1610 -150 260 -372 620 -383 622 -7
0 -54 -5 -105 -12z m2586 -3558 c123 -307 151 -710 82 -1159 -20 -125 -48
-269 -54 -275 -5 -5 -181 33 -436 96 -135 34 -266 64 -292 67 -54 7 -51 0 -48
129 5 250 271 816 502 1069 59 66 184 176 199 176 3 0 25 -47 47 -103z m-2505
25 c176 -143 350 -408 476 -727 68 -174 136 -383 128 -392 -5 -4 -142 -8 -305
-7 -339 1 -498 17 -538 55 -38 36 -48 105 -40 289 7 188 18 291 47 435 38 192
125 424 152 409 7 -4 43 -32 80 -62z m-1650 -556 c177 -131 296 -236 442 -389
l127 -132 -38 -6 c-60 -10 -356 -28 -598 -35 l-219 -7 7 158 c8 190 20 294 47
399 23 94 31 106 74 106 25 0 60 -21 158 -94z m5842 -37 c99 -95 118 -159 134
-459 14 -239 -8 -554 -55 -815 -8 -44 -17 -99 -21 -123 -5 -40 -8 -43 -31 -37
-14 3 -154 55 -311 115 -332 126 -487 182 -663 240 -71 23 -128 44 -128 46 0
16 55 135 86 186 78 128 316 410 486 573 162 158 388 335 425 335 8 0 43 -27
78 -61z m-4480 -589 c475 -12 897 -33 1165 -60 970 -98 1992 -366 3150 -827
523 -208 683 -281 1010 -458 469 -255 665 -341 894 -395 94 -22 253 -77 262
-91 13 -22 -180 -235 -321 -355 -391 -329 -856 -519 -1345 -549 -244 -15 -570
45 -1009 187 -516 167 -1041 440 -1223 637 -55 59 -118 167 -118 203 0 22 9
21 430 -25 223 -24 330 -31 492 -32 113 0 210 4 215 8 15 16 -101 111 -182
151 -44 21 -192 88 -330 149 -137 60 -311 137 -385 169 -706 312 -1187 494
-1635 619 -99 28 -256 73 -350 101 -382 114 -435 129 -545 152 -176 38 -293
46 -835 55 -507 9 -1035 2 -1310 -19 -220 -16 -426 -39 -460 -50 -27 -10 -72
-56 -63 -65 2 -2 50 0 108 5 838 71 1614 80 2165 25 287 -29 449 -65 1090
-240 606 -166 859 -260 1076 -400 72 -47 79 -60 79 -156 0 -33 -4 -49 -13 -49
-37 0 -239 61 -481 146 -245 86 -493 160 -503 151 -2 -3 56 -30 129 -62 734
-322 811 -373 968 -636 43 -72 48 -84 32 -87 -38 -6 -238 76 -497 203 -306
150 -480 230 -840 385 -137 59 -341 149 -453 199 -500 226 -892 360 -1162 398
-179 25 -658 25 -860 0 -467 -58 -898 -175 -1565 -425 -760 -284 -1388 -627
-1920 -1047 -281 -222 -372 -314 -512 -522 -108 -159 -215 -302 -253 -338
l-32 -30 8 30 c41 170 174 394 428 724 308 401 472 556 1041 982 816 612 1458
953 2050 1088 327 74 1133 145 1760 154 88 1 180 3 205 5 25 1 225 -3 445 -8z
m6357 -700 c-11 -88 -141 -413 -281 -702 l-52 -106 -72 22 c-150 47 -351 135
-631 276 -159 80 -291 151 -293 157 -4 12 146 91 298 156 308 131 732 228 984
223 47 -1 50 -2 47 -26z m-7437 -1 c184 -13 313 -26 465 -50 136 -21 346 -66
370 -79 8 -5 30 -33 48 -63 73 -122 120 -427 109 -707 -14 -311 -79 -520 -224
-715 -131 -176 -285 -276 -512 -333 -144 -37 -240 -45 -475 -39 -311 7 -366
21 -660 169 -586 293 -1025 682 -1310 1159 -31 52 -56 99 -56 106 0 6 33 32
73 58 182 117 444 211 685 245 51 7 80 4 170 -16 405 -91 763 -298 1231 -713
48 -43 78 -64 71 -50 -7 13 -49 87 -93 163 -163 284 -281 559 -323 754 -9 44
-14 87 -11 95 13 35 114 39 442 16z m1159 -249 c91 -34 159 -100 285 -277 142
-198 236 -303 352 -392 163 -126 344 -203 567 -242 143 -24 209 -24 402 1 184
24 245 25 365 5 112 -18 169 -19 184 -2 6 8 15 62 20 121 11 132 19 144 181
310 l117 120 35 -15 c20 -8 95 -41 167 -74 97 -44 130 -63 127 -75 -3 -8 -7
-50 -11 -94 l-7 -79 -61 6 c-165 16 -346 20 -377 7 -59 -25 -65 -73 -19 -163
68 -135 147 -216 305 -316 341 -215 420 -263 513 -316 313 -175 705 -331 1081
-429 227 -60 308 -70 567 -70 127 -1 229 -4 227 -8 -15 -25 -265 -221 -315
-248 -61 -32 -64 -33 -153 -27 -230 16 -417 71 -821 244 -149 64 -363 142
-665 243 -607 203 -864 273 -1430 389 -388 80 -417 84 -645 78 -299 -8 -552
-50 -1087 -183 -123 -30 -231 -57 -240 -60 -12 -3 -18 0 -18 9 0 8 47 109 105
224 117 234 137 294 155 481 13 140 9 223 -26 502 -13 107 -27 233 -30 279
l-7 84 52 -7 c29 -4 76 -16 105 -26z m681 -305 c279 -124 617 -301 850 -446
140 -87 139 -89 -65 -96 -355 -13 -665 111 -925 372 -107 106 -159 186 -171
263 l-7 42 94 -39 c52 -21 153 -64 224 -96z m-4213 -35 c24 -27 76 -104 117
-172 211 -348 417 -572 773 -842 275 -207 555 -373 761 -452 214 -82 390 -109
636 -99 l165 7 -70 -58 c-38 -32 -109 -93 -158 -136 -169 -149 -350 -268 -407
-268 -10 0 -103 67 -207 148 -376 297 -516 393 -742 506 -367 183 -885 286
-1445 286 -310 0 -482 -25 -920 -134 -221 -55 -412 -96 -553 -120 l-33 -6 18
31 c79 133 250 319 366 396 67 45 75 47 251 80 204 38 460 75 646 95 157 16
682 16 799 0 47 -7 86 -10 89 -8 5 6 -96 156 -226 335 -128 177 -212 305 -212
323 1 35 209 131 297 137 6 1 31 -21 55 -49z m13394 -371 c10 -12 61 -57 112
-101 86 -74 130 -130 147 -185 5 -19 -7 -32 -87 -91 -379 -279 -818 -449
-1314 -507 -171 -20 -509 -20 -684 1 -136 15 -206 28 -470 83 -516 108 -955
128 -1345 61 -60 -10 -111 -18 -112 -17 -7 8 231 257 300 314 l85 70 101 11
c213 25 461 12 791 -38 512 -79 464 -74 780 -75 192 0 328 5 390 13 229 32
501 111 735 212 124 54 485 232 520 256 26 18 28 18 51 -7z m-13354 -858 c457
-74 967 -294 1312 -565 121 -95 332 -315 324 -336 -5 -12 -178 -161 -268 -231
-254 -198 -519 -327 -650 -317 -111 9 -417 174 -770 415 -314 215 -608 503
-787 773 -54 81 -153 250 -153 261 0 4 53 10 118 14 64 3 124 8 132 10 8 2
150 2 315 0 243 -2 324 -7 427 -24z m5358 -40 c390 -51 717 -140 1116 -307
382 -159 740 -365 1049 -606 374 -291 811 -827 1020 -1253 69 -140 121 -265
110 -265 -2 0 -28 35 -56 78 -77 114 -212 295 -293 392 -520 624 -1077 1070
-1741 1394 -228 112 -301 134 -500 152 l-70 6 41 -43 c307 -326 492 -791 520
-1309 22 -418 -129 -884 -411 -1265 -215 -291 -526 -535 -815 -640 -253 -91
-550 -98 -793 -18 -499 165 -872 673 -974 1324 -13 86 -17 173 -17 359 0 354
14 440 149 897 27 90 46 165 43 168 -5 5 -274 -84 -448 -148 -113 -41 -379
-148 -810 -325 -639 -262 -987 -384 -1249 -437 -345 -70 -613 -55 -809 44 -82
42 -105 69 -104 126 1 25 4 50 7 55 3 5 130 50 283 99 396 130 507 181 735
337 504 344 608 408 869 533 822 395 1555 611 2274 670 194 16 686 6 874 -18z
m5099 3 c58 -8 109 -18 112 -22 13 -14 -49 -182 -96 -261 -76 -130 -191 -277
-315 -402 -220 -221 -438 -375 -937 -659 l-156 -89 -230 225 c-198 194 -343
323 -503 450 l-39 31 99 101 c201 205 367 296 831 455 237 81 489 143 703 172
138 19 402 18 531 -1z m-2349 -760 c90 -21 214 -83 312 -156 93 -70 366 -339
475 -468 186 -222 342 -458 442 -672 47 -98 104 -238 97 -238 -1 0 -46 73
-100 163 -179 300 -372 549 -600 779 -173 173 -308 280 -493 391 -146 88 -240
155 -277 196 l-19 21 49 0 c27 0 78 -7 114 -16z m1211 -850 c514 -96 1032
-301 1441 -570 117 -77 318 -230 332 -252 6 -10 -283 -128 -458 -187 -220 -73
-500 -134 -692 -149 l-71 -6 -37 103 c-85 231 -179 398 -456 809 -93 139 -170
256 -170 260 0 11 17 10 111 -8z m-9171 -19 c0 -29 41 -97 84 -139 52 -50 120
-84 274 -137 215 -74 254 -102 372 -264 178 -245 251 -372 236 -412 -21 -55
-377 -135 -731 -164 -177 -15 -578 -6 -743 15 -237 31 -443 77 -662 148 -131
42 -370 138 -370 148 0 3 36 44 79 91 294 317 734 557 1273 694 151 39 188 42
188 20z m1185 -1616 c184 -21 354 -71 508 -151 65 -33 103 -63 182 -143 106
-106 158 -183 213 -317 105 -253 132 -624 64 -888 -50 -195 -131 -372 -251
-551 -197 -294 -391 -481 -716 -691 -368 -238 -771 -394 -1078 -415 l-78 -6 6
29 c20 88 69 265 99 356 172 525 523 1120 977 1660 55 65 99 119 99 122 0 2
-15 0 -32 -5 -182 -52 -677 -146 -928 -176 -198 -23 -588 -23 -759 0 -260 36
-568 118 -618 164 -52 49 -11 123 164 299 200 199 459 363 778 489 506 201
942 272 1370 224z m800 -163 c294 -216 473 -326 757 -467 943 -464 2014 -577
3014 -319 207 53 373 120 663 267 267 135 441 217 448 209 10 -10 -129 -132
-226 -197 -114 -76 -315 -181 -485 -254 -308 -131 -629 -214 -1016 -262 -204
-25 -770 -25 -980 0 -187 23 -416 61 -555 93 -494 114 -1088 421 -1535 793
-109 91 -300 271 -300 282 0 12 15 2 215 -145z m6837 69 c282 -34 500 -100
763 -232 306 -154 561 -333 899 -632 l119 -106 -49 -21 c-205 -90 -486 -139
-859 -151 -450 -14 -893 60 -1454 242 -91 30 -166 53 -168 52 -2 -3 114 -129
365 -397 387 -413 589 -741 769 -1250 48 -136 163 -497 163 -513 0 -22 -283
33 -429 85 -237 83 -607 296 -836 481 -272 219 -557 614 -678 937 -61 162 -81
280 -81 470 1 153 3 171 28 245 36 106 113 266 171 357 63 97 222 254 301 296
139 73 336 134 489 152 93 11 329 4 487 -15z"/>
<path d="M15410 16483 c-146 -16 -423 -90 -545 -147 -155 -73 -332 -308 -343
-456 -7 -103 32 -286 99 -458 l28 -74 -114 -119 c-142 -149 -198 -223 -246
-324 -106 -225 -107 -434 -3 -591 97 -146 290 -254 455 -254 142 0 361 86 521
204 l87 65 88 -37 c82 -34 95 -37 188 -36 80 0 112 5 158 23 70 28 131 73 174
130 28 36 33 51 33 96 0 47 -3 56 -31 79 -37 31 -80 34 -129 7 -69 -36 -97
-109 -65 -171 13 -25 13 -29 -1 -34 -55 -21 -165 8 -245 65 l-30 21 53 57
c134 140 324 453 413 676 98 247 111 423 37 506 -78 87 -229 13 -304 -148 -25
-54 -31 -79 -32 -137 -1 -109 28 -154 132 -202 2 -1 -10 -28 -26 -60 -67 -133
-215 -297 -354 -391 -42 -29 -81 -53 -86 -53 -31 0 -200 472 -251 698 -11 53
-31 28 284 357 254 265 358 382 426 479 42 59 49 76 49 116 0 38 -5 51 -29 74
-16 15 -46 32 -67 37 -37 8 -251 10 -324 2z m-153 -198 c31 -22 45 -78 32
-132 -25 -112 -229 -433 -275 -433 -17 0 -29 44 -64 234 -21 117 -25 157 -18
185 22 79 63 119 151 147 59 18 148 17 174 -1z m-414 -1360 c35 -72 94 -175
131 -229 39 -57 63 -103 58 -108 -4 -4 -48 -14 -96 -20 -140 -19 -231 9 -285
87 -61 89 -43 175 72 351 23 35 45 60 49 56 4 -4 36 -66 71 -137z"/>
<path d="M16794 24488 c-4 -6 -22 -52 -40 -102 -17 -50 -56 -147 -87 -216 -30
-69 -79 -181 -109 -250 -168 -383 -203 -567 -203 -1075 1 -271 4 -328 23 -455
29 -186 69 -343 138 -544 31 -88 80 -231 109 -316 78 -229 180 -664 235 -1010
12 -74 24 -150 28 -168 l7 -32 50 26 c79 42 159 108 315 259 188 182 196 188
455 345 567 343 869 552 1028 715 371 379 647 849 766 1307 29 113 111 504
111 531 0 15 -466 247 -705 350 -616 266 -1289 479 -1915 606 -85 17 -165 34
-177 36 -12 3 -25 0 -29 -7z"/>
<path d="M13010 24464 c-769 -162 -1448 -386 -2150 -709 -125 -57 -587 -289
-598 -299 -7 -8 111 -446 163 -604 135 -408 386 -806 731 -1158 143 -146 233
-222 404 -341 143 -100 144 -100 495 -311 397 -239 586 -368 725 -497 115
-107 206 -182 246 -203 20 -11 22 -5 63 206 106 541 156 723 304 1117 120 320
154 438 192 662 46 279 58 400 59 608 0 257 -18 360 -106 590 -54 142 -139
359 -158 400 -10 22 -30 69 -45 105 -15 36 -70 152 -122 258 -106 215 -90 200
-203 176z"/>
<path d="M23670 19340 c-12 -7 -14 -28 -12 -100 7 -274 144 -577 380 -846 86
-97 162 -163 148 -128 -4 10 -26 66 -48 124 -104 273 -208 513 -358 828 -63
132 -75 145 -110 122z"/>
<path d="M24673 15599 c-70 -140 -93 -222 -100 -345 -7 -118 -15 -109 107
-119 l75 -7 -8 243 c-4 134 -11 263 -15 288 l-7 45 -52 -105z"/>
<path d="M6290 15094 c-197 -23 -305 -41 -416 -70 -139 -35 -427 -127 -556
-176 l-78 -30 0 -112 c0 -269 47 -793 106 -1176 36 -237 116 -632 173 -859 95
-377 228 -806 245 -792 6 5 119 11 251 14 132 4 287 11 345 17 464 46 1035
275 1445 580 135 100 429 355 525 456 47 49 178 195 291 324 304 347 415 450
784 729 l98 74 -34 17 c-35 18 -188 68 -433 140 -181 53 -306 100 -441 164
-117 56 -163 81 -400 221 -421 248 -805 393 -1207 456 -105 16 -190 22 -398
24 -146 2 -281 1 -300 -1z"/>
<path d="M24685 14769 c-62 -128 -118 -300 -102 -315 16 -17 87 18 126 62 l40
45 3 167 c2 92 2 169 1 171 -2 2 -32 -56 -68 -130z"/>
<path d="M16290 12399 c-272 -30 -452 -120 -665 -333 -250 -250 -392 -520
-479 -909 -80 -356 -81 -744 -5 -1122 44 -220 137 -502 219 -665 144 -286 411
-655 715 -990 280 -307 476 -592 645 -935 107 -218 168 -373 223 -565 105
-370 146 -683 127 -970 -9 -122 -37 -306 -56 -354 -3 -9 -3 -16 0 -16 14 0
146 32 146 35 0 2 24 115 54 252 145 658 194 1021 203 1485 8 413 -9 606 -86
993 -43 220 -65 354 -58 361 7 7 81 -79 122 -142 19 -29 67 -113 106 -186 85
-158 122 -215 244 -369 406 -510 868 -951 1375 -1315 119 -85 215 -170 273
-242 l26 -33 82 41 c68 35 79 44 68 55 -8 7 -64 55 -126 108 -245 207 -421
386 -582 591 -138 177 -332 633 -425 1001 -80 320 -98 541 -94 1194 2 474 1
519 -20 701 -29 244 -60 395 -122 580 -100 305 -250 583 -456 847 -123 156
-361 431 -464 533 -156 156 -331 273 -485 325 -120 40 -353 61 -505 44z m281
-133 c258 -59 482 -198 754 -471 287 -286 510 -607 650 -935 116 -270 197
-592 224 -880 18 -201 20 -250 7 -250 -21 0 -240 106 -351 169 -290 166 -674
450 -856 633 -172 172 -301 338 -619 793 -54 78 -62 85 -56 55 47 -242 70
-536 63 -795 -14 -460 -96 -862 -268 -1300 -63 -161 -213 -475 -227 -475 -15
0 -137 106 -178 156 -195 233 -380 703 -453 1151 -72 443 -42 936 81 1313 132
407 487 771 823 845 102 23 284 18 406 -9z"/>
<path d="M13390 12326 c-316 -89 -553 -247 -890 -592 -174 -179 -269 -294
-374 -452 -170 -257 -355 -657 -415 -897 -84 -335 -109 -596 -121 -1235 -10
-534 -19 -654 -75 -935 -76 -383 -215 -729 -410 -1020 -174 -260 -446 -551
-631 -674 -53 -36 -70 -52 -61 -59 7 -5 44 -26 84 -46 68 -34 72 -35 78 -16 3
11 74 68 156 126 189 135 435 332 604 483 384 344 811 822 999 1121 44 69 99
152 124 185 50 67 132 155 144 155 17 0 2 -257 -39 -640 -21 -201 -23 -674 -5
-860 35 -345 90 -606 239 -1137 l76 -272 50 -11 c27 -6 51 -9 53 -7 2 2 -5 68
-16 148 -91 692 -28 1237 207 1784 145 338 247 487 643 940 239 273 289 336
427 533 249 357 383 628 468 955 70 270 90 480 82 852 -8 367 -37 566 -113
795 -43 129 -121 290 -178 367 -173 235 -445 384 -783 428 -157 21 -191 19
-323 -19z m358 -101 c174 -22 281 -63 407 -158 78 -59 215 -201 259 -269 111
-174 202 -418 245 -659 68 -375 32 -909 -90 -1334 -93 -324 -261 -653 -458
-893 l-60 -74 -35 55 c-20 30 -60 104 -90 163 -249 498 -329 1106 -279 2119
l6 130 -25 -30 c-14 -16 -62 -84 -108 -150 -210 -301 -258 -361 -410 -516
-292 -295 -577 -499 -965 -690 -149 -73 -404 -179 -430 -179 -8 0 -6 33 6 116
74 487 156 778 299 1059 242 476 587 876 988 1144 128 86 247 148 318 165 79
19 271 20 422 1z"/>
<path d="M18524 10779 c4 -34 34 -168 67 -297 103 -410 108 -452 113 -982 3
-289 8 -384 25 -510 49 -373 124 -658 235 -893 50 -109 264 -475 350 -601 63
-93 276 -326 462 -506 112 -109 260 -239 281 -247 15 -6 284 162 498 310 437
303 802 598 1191 964 152 144 440 438 508 520 l27 32 -46 90 c-54 108 -219
398 -282 496 -87 134 -168 231 -312 375 -162 161 -301 273 -526 423 -276 184
-654 340 -1094 451 -167 42 -249 59 -575 121 -136 26 -293 69 -451 125 -91 32
-428 165 -458 181 -19 11 -20 9 -13 -52z"/>
<path d="M11300 10681 c-58 -22 -175 -69 -260 -106 -353 -152 -481 -188 -950
-260 -772 -120 -1326 -382 -1804 -853 -128 -127 -237 -253 -329 -380 -80 -112
-288 -454 -285 -469 5 -20 291 -324 463 -492 526 -512 1072 -938 1718 -1340
l117 -73 108 93 c240 209 290 255 361 333 270 299 507 727 637 1154 124 407
183 855 184 1389 0 206 49 520 157 1021 3 12 1 22 -3 21 -5 0 -56 -17 -114
-38z"/>
<path d="M14885 9333 c-59 -141 -216 -453 -292 -579 -105 -174 -198 -303 -333
-459 -291 -337 -503 -681 -643 -1041 -70 -180 -138 -447 -169 -664 -22 -159
-17 -551 10 -751 24 -173 59 -389 65 -395 8 -8 410 -56 619 -74 727 -62 1452
-45 2193 53 l90 12 7 55 c13 108 48 682 48 792 0 354 -77 737 -219 1090 -50
127 -136 292 -249 481 -119 198 -208 320 -411 566 -295 356 -371 465 -508 727
-76 145 -150 254 -172 254 -5 0 -21 -30 -36 -67z"/>
</g>
</svg>
