<?xml version="1.0" encoding="UTF-8" standalone="no"?>
<!-- Created with Inkscape (http://www.inkscape.org/) -->

<svg
   xmlns:dc="http://purl.org/dc/elements/1.1/"
   xmlns:cc="http://creativecommons.org/ns#"
   xmlns:rdf="http://www.w3.org/1999/02/22-rdf-syntax-ns#"
   xmlns:svg="http://www.w3.org/2000/svg"
   xmlns="http://www.w3.org/2000/svg"
   xmlns:sodipodi="http://sodipodi.sourceforge.net/DTD/sodipodi-0.dtd"
   xmlns:inkscape="http://www.inkscape.org/namespaces/inkscape"
   width="518.83185mm"
   height="242.83182mm"
   viewBox="0 0 518.83185 242.83182"
   version="1.1"
   id="svg6217"
   inkscape:version="0.92.4 (5da689c313, 2019-01-14)"
   sodipodi:docname="laptop-1.svg">
  <defs
     id="defs6211" />
  <sodipodi:namedview
     id="base"
     pagecolor="#ffffff"
     bordercolor="#666666"
     borderopacity="1.0"
     inkscape:pageopacity="0.0"
     inkscape:pageshadow="2"
     inkscape:zoom="0.35"
     inkscape:cx="3204.7553"
     inkscape:cy="690.32333"
     inkscape:document-units="mm"
     inkscape:current-layer="layer1"
     showgrid="false"
     fit-margin-top="0"
     fit-margin-left="0"
     fit-margin-right="0"
     fit-margin-bottom="0"
     inkscape:pagecheckerboard="true"
     inkscape:window-width="3840"
     inkscape:window-height="2056"
     inkscape:window-x="-8"
     inkscape:window-y="-8"
     inkscape:window-maximized="1" />
  <metadata
     id="metadata6214">
    <rdf:RDF>
      <cc:Work
         rdf:about="">
        <dc:format>image/svg+xml</dc:format>
        <dc:type
           rdf:resource="http://purl.org/dc/dcmitype/StillImage" />
        <dc:title></dc:title>
      </cc:Work>
    </rdf:RDF>
  </metadata>
  <g
     inkscape:label="Layer 1"
     inkscape:groupmode="layer"
     id="layer1"
     transform="translate(864.93378,-88.649563)">
    <g
       id="g3116"
       transform="translate(-1526.2938,245.01821)">
      <path
         id="path1345"
         d="m 1172.3065,-156.00453 c 2.3565,1.0795 5.2317,1.97556 6.604,4.34975 0.8537,1.26648 0.6844,2.52942 1.0195,3.95112 0.2011,1.27705 0.5609,2.37772 -0.2081,3.55247 -3.7359,6.49111 -7.9128,12.76703 -12.0121,19.03236 -8.0575,12.24844 -16.2737,24.40869 -24.451,36.579527 -18.3198,27.192111 -36.7207,54.32425 -54.9381,81.5869173 -14.0088,20.9902777 -28.2928,41.7900557 -42.4357,62.6886117 -0.769,1.093611 -1.4428,2.314222 -2.3565,3.291416 -1.2312,1.241778 -2.8681,1.42875 -4.4732,2.236612 -1.9685,0.977194 -4.0323,1.710972 -6.1313,2.353027 -1.8309,0.486834 -3.743,0.677334 -5.5845,1.104195 -2.2154,0.694972 -4.4732,0.645583 -6.8509,1.012472 -13.2151,1.55575 -26.44426,3.026833 -39.65931,4.586111 -2.63878,0.370417 -5.29167,0.15875 -7.93045,0.529167 -5.29519,0.66675 -10.60802,1.202972 -15.90322,1.87325 -4.09928,0.416278 -8.13153,1.100667 -12.26608,1.100667 -4.55789,0.462138 -9.1052,1.075972 -13.65956,1.576916 -1.50989,0.123472 -2.88925,0.716139 -4.3815,0.889 -2.25072,0.215195 -4.445,0.624417 -6.70983,0.645584 -3.06564,0.0071 -6.15245,0.599722 -9.2075,0.927805 -7.04497,0.797278 -14.07936,1.770945 -21.12786,2.511778 -4.39561,0.09525 -8.71714,0.73025 -13.07042,1.280583 -13.462,1.580445 -26.93106,3.245556 -40.39306,4.808361 h -76.69036 c -2.11314,-0.878416 -4.13455,-2.183694 -6.33589,-2.885722 -1.61219,-0.490361 -3.00919,-1.488722 -4.56494,-2.166055 -1.57339,-0.892528 -3.33728,-1.157112 -4.86833,-2.137834 -1.76742,-0.818444 -3.43253,-1.93675 -5.29873,-2.458861 -2.43416,-0.896055 -4.56141,-2.522361 -7.05202,-3.217333 -2.37067,-0.910167 -4.34623,-2.413 -6.76628,-3.107972 -2.60703,-0.956028 -4.81895,-2.592917 -7.47889,-3.457223 -1.7145,-0.525639 -3.13972,-1.516944 -4.75545,-2.25425 -1.70038,-0.850194 -3.53836,-1.23825 -5.16819,-2.261305 -1.68981,-0.79375 -3.33022,-1.845028 -5.13292,-2.321278 -2.35655,-0.910167 -4.51908,-2.564695 -6.97089,-3.192639 -2.44122,-0.994833 -4.67077,-2.631722 -7.17902,-3.418417 -2.3742,-0.836083 -4.32859,-2.391833 -6.72395,-3.14325 -2.45533,-0.853722 -4.49086,-2.423583 -6.92855,-3.316111 -1.26648,-0.437444 -2.46592,-0.956028 -3.61245,-1.647472 -1.63336,-0.959556 -3.38314,-1.5875 -5.13644,-2.278945 -1.65453,-0.867833 -3.37961,-1.478138 -4.08164,-3.369027 -0.13053,-1.262945 -0.0529,-2.557639 -0.0423,-3.827639 0.0529,-2.906889 1.09361,-5.792611 2.75872,-8.15975 0.72672,-1.054806 1.77447,-1.181806 2.82575,-1.770945 1.29469,-0.754944 2.8328,-0.73025 4.27566,-0.92075 12.33664,-1.598083 24.69445,-2.991555 37.04167,-4.5085 22.49664,-2.663472 44.94036,-5.718528 67.40172,-8.657166 1.40053,-0.201084 2.85045,-0.275167 4.22275,-0.620889 3.98287,-27.128612 8.49137,-54.352473 12.47775,-81.51989 1.76389,-11.987389 3.41489,-24.006528 5.2952,-35.955107 0.3175,-2.13431 1.59103,-4.17689 2.80811,-5.92314 1.19592,-1.73567 2.74108,-3.16442 3.94053,-4.8895 0.39864,-0.47978 0.63147,-0.99484 1.3335,-1.01248 15.33878,-1.81327 30.66344,-3.27025 46.02691,-4.80483 44.24539,-4.38503 88.40964,-9.41917 132.61976,-14.14286 47.3921,-5.01297 94.7843,-9.73667 142.1729,-14.7955 13.9912,-1.47461 27.9788,-3.02683 41.9735,-4.46264 1.3406,-0.10936 2.4589,-0.51858 3.7395,0.13758 z"
         inkscape:connector-curvature="0"
         style="fill:#050305;stroke-width:0.35277778" />
      <path
         id="path1347"
         d="m 1171.5868,-147.84478 c 0.882,1.016 1.1783,2.64584 0.6244,3.88409 -0.7726,1.43933 -1.6369,2.82575 -2.6811,4.08869 -1.4711,1.76036 -2.4377,3.84175 -3.8453,5.66209 -1.1183,1.40052 -1.8626,3.0233 -3.0268,4.39561 -1.2312,1.42875 -1.8979,3.18911 -3.1362,4.61786 -1.4922,1.77094 -2.3565,3.91936 -3.8841,5.6515 -0.8678,0.98778 -1.1641,2.25778 -2.0708,3.2138 -1.023,1.16417 -1.8732,2.37773 -2.6211,3.73592 -1.0231,1.88383 -2.48,3.45017 -3.4819,5.35517 -1.27,1.68275 -2.5894,3.29847 -3.6054,5.16114 -0.7832,1.44991 -2.0285,2.508246 -2.7235,4.000496 -0.8749,2.00025 -2.5717,3.309056 -3.5877,5.242278 -0.8608,1.707444 -2.3248,2.970389 -3.108,4.706055 -0.642,1.379361 -1.8485,2.345973 -2.5964,3.690056 -0.8855,1.562805 -1.8239,3.062111 -2.9775,4.445 -0.9525,1.107722 -1.4464,2.4765 -2.4165,3.573639 -1.0583,1.248833 -1.8239,2.649361 -2.6988,4.018139 -0.9207,1.449916 -2.0602,2.688166 -2.8186,4.247444 -0.7268,1.464028 -2.0144,2.458861 -2.7552,3.915834 -0.8397,1.601611 -1.9474,2.959805 -2.9916,4.420305 -0.7126,0.966611 -1.1747,2.053167 -1.9579,2.977445 -0.7162,0.846666 -1.4429,1.647472 -1.9191,2.663472 -1.1042,2.289528 -3.0516,3.817055 -4.1099,6.1595 -0.6385,1.322917 -1.7286,2.250722 -2.4483,3.517194 -1.2065,2.130778 -2.9351,3.989917 -4.1204,6.138334 -0.501,0.881944 -1.1324,1.654528 -1.7498,2.451805 -0.7443,0.948973 -1.143,2.074334 -1.905,3.009195 -1.1148,1.425222 -2.1872,2.811639 -3.0409,4.416778 -0.6985,1.379361 -1.9121,2.335388 -2.6141,3.704166 -0.3951,0.769056 -0.8255,1.49225 -1.3829,2.155473 -1.3547,1.665111 -2.2472,3.566583 -3.5384,5.274027 -0.6738,0.917223 -1.4075,1.629834 -1.9332,2.624667 -0.4374,0.853722 -0.9172,1.658056 -1.531,2.402417 -1.4358,1.774472 -2.4307,3.8311664 -3.8912,5.5915275 -0.8819,0.9807222 -1.3723,2.1519445 -2.0567,3.2526111 -1.0266,1.3581945 -1.9861,2.72697227 -2.861,4.18747228 -0.9984,1.71450002 -2.3989,3.09033332 -3.2773,4.86127782 -0.6526,1.3088056 -1.718,2.2260278 -2.4977,3.4678056 -0.9525,1.5098887 -1.8944,3.0127227 -3.0198,4.4026667 -0.9207,1.061861 -1.2664,2.416528 -2.1907,3.467806 -0.8608,0.98425 -1.5558,1.979083 -2.1555,3.14325 -1.0407,1.9685 -2.7199,3.46075 -3.7112,5.439833 -0.7267,1.351139 -1.8027,2.423583 -2.5647,3.753556 -0.7479,1.344083 -1.7039,2.529416 -2.607,3.767666 -1.0019,1.308806 -1.5134,2.846917 -2.6423,4.078111 -1.2736,1.397 -2.0461,3.065639 -3.175,4.579056 -1.4006,1.933222 -2.473,4.046361 -3.9899,5.898444 -1.4076,2.120195 -2.6812,4.28625 -4.3286,6.251223 -0.9384,1.054805 -2.1872,1.859139 -3.3514,2.642305 -0.9913,0.687917 -2.159,0.694972 -3.0762,1.485195 -1.2418,0.977194 -2.727,1.654527 -4.2404,2.088444 -1.3935,0.321028 -2.8963,0.28575 -4.3216,0.328083 -2.5082,0.0247 -4.8753,0.426862 -7.3624,0.6985 -8.2656,0.878417 -16.52766,1.926167 -24.79325,2.76225 -4.34269,-0.01411 -8.56544,0.765528 -12.87286,1.188862 -9.68022,1.139472 -19.37808,2.123722 -29.0583,3.287889 -5.79967,0.596194 -11.5817,1.319388 -17.38842,1.880305 -2.78342,0.451556 -5.57742,0.331611 -8.37494,0.585611 -8.09625,0.903111 -16.20662,1.732139 -24.30639,2.617611 -3.39725,0.504473 -6.81214,0.243417 -10.21292,0.737306 -4.25097,0.437444 -8.49136,0.924278 -12.73881,1.36525 -1.2065,0.201083 -2.24719,0.786694 -3.50308,0.797278 -2.72344,0.137583 -5.40455,0.60325 -8.13505,0.642055 -3.13973,0.05292 -6.21948,0.493889 -9.3345,0.8255 -7.99748,0.867834 -16.05845,1.725084 -24.06298,2.578806 -4.93889,0.141111 -9.83191,0.673805 -14.732,1.284111 -10.91141,1.11125 -21.80519,2.413 -32.70955,3.612444 -1.65806,0.15875 -3.4537,0.546806 -5.10822,0.409223 -0.26106,-0.860778 -0.1517,-1.679223 -0.0353,-2.550584 0.3563,-5.517444 1.62278,-11.056055 2.55764,-16.499416 0.19402,-1.418167 0.18344,-2.843389 0.39511,-4.261556 0.44097,-2.921 1.06186,-5.813778 1.47461,-8.738306 0.32808,-2.120194 0.635,-4.243916 1.06892,-6.346472 0.42686,-2.007306 0.37041,-3.982861 0.59619,-6.004278 0.34925,-2.575278 0.79728,-5.132916 1.29469,-7.6835 0.51859,-3.862916 1.02306,-7.739944 1.76037,-11.567583 0.33161,-1.647472 0.23636,-3.294945 0.37041,-4.956528 1.04775,-5.969 1.82386,-11.9944445 2.80106,-17.98108346 0.37394,-2.04258334 0.254,-4.10633334 0.64558,-6.13833334 0.71967,-4.0569442 1.14653,-8.1456392 1.90147,-12.1920002 0.381,-3.030361 1.05834,-5.887861 1.24531,-8.904111 0.0917,-1.305278 0.11642,-2.6035 0.32103,-3.901722 0.89958,-5.281084 1.65805,-10.590389 2.52941,-15.878528 0.31045,-1.996722 0.32456,-4.021667 0.62089,-6.021917 0.83256,-5.923139 1.8415,-11.825111 2.79047,-17.734139 0.50095,-2.409472 0.4692,-4.843639 0.81845,-7.277806 0.28928,-2.864555 0.94544,-5.630333 1.36525,-8.480777 0.46919,-3.291417 1.0548,-6.533445 1.36525,-9.849556 0.18344,-2.007306 0.0564,-4.254497 0.64558,-6.177137 0.48331,-1.79211 1.71097,-3.47839 2.7552,-4.99886 0.6103,-0.92075 1.72861,-1.04423 2.59291,-1.64748 0.74789,-0.50447 1.29117,-1.09008 2.25778,-1.12183 4.98122,-0.56797 9.96597,-1.10419 14.94367,-1.70392 2.56822,-0.27869 5.14703,-0.16227 7.71172,-0.48683 7.83519,-0.91722 15.67392,-1.80622 23.50911,-2.7058 3.10092,-0.36337 6.19478,-0.0423 9.28864,-0.37748 7.95867,-0.91369 15.92439,-1.80622 23.87953,-2.76225 2.23661,-0.27164 4.48028,-0.1905 6.71689,-0.44097 9.12636,-1.03011 18.27389,-2.16605 27.39319,-3.21028 8.26559,-0.18697 16.48531,-2.10255 24.73678,-2.32127 3.06211,-0.25753 6.1595,-0.82903 9.23572,-0.93487 1.57339,-0.0564 3.13972,-0.127 4.70606,-0.31397 8.40669,-1.09361 16.83455,-2.03553 25.25183,-3.04447 2.28247,-0.26458 4.57553,-0.15875 6.858,-0.46214 7.12615,-0.91722 14.26985,-1.70392 21.39955,-2.61761 2.0743,-0.27517 4.1486,-0.24342 6.2265,-0.41981 2.8646,-0.28222 5.7291,-0.17991 8.5796,-0.62794 7.0661,-0.82903 14.1146,-1.75331 21.1807,-2.56822 1.4076,-0.16581 2.8152,-0.17992 4.2298,-0.24342 2.4906,-0.1023 5.0095,-0.51858 7.5001,-0.80786 6.3641,-0.69497 12.7141,-1.524 19.0782,-2.21897 1.8239,-0.15522 3.6477,-0.0811 5.4681,-0.29634 4.4979,-0.52916 8.9429,-1.21355 13.4373,-1.29822 5.4222,-0.50447 10.8197,-1.28764 16.2348,-1.87325 2.353,-0.21166 4.7131,-0.16933 7.0591,-0.47978 7.5459,-0.93133 15.0989,-1.76036 22.6377,-2.71638 1.8839,-0.1905 3.7748,-0.11289 5.6551,-0.3422 2.6776,-0.31397 5.3551,-0.66322 8.0362,-0.97014 2.593,-0.28928 5.6515,-0.92428 8.2127,-0.32103 z"
         inkscape:connector-curvature="0"
         style="fill:#a7a7a8;stroke-width:0.35277778" />
      <path
         id="path1349"
         d="m 926.33218,-113.65708 c 1.28764,0.0247 2.58233,0.19755 3.83469,0.49389 1.07597,0.21519 1.97203,1.15005 2.45181,2.09903 -0.0529,0.24341 -0.14817,0.46213 -0.2787,0.65616 -0.82197,0.61736 -1.71803,1.09361 -2.44475,1.83445 -0.61383,0.60325 -1.1818,0.9525 -2.032,1.12889 -12.28019,2.34597 -24.88847,4.62138 -36.83,8.336135 -11.303,3.503083 -22.30967,7.955139 -33.11878,12.738805 -1.21002,0.550334 -2.46944,1.026584 -3.64419,1.658056 -1.22767,0.652639 -2.14842,1.883833 -3.0727,2.910417 -3.07622,3.450166 -6.26533,7.119055 -8.70302,11.056055 -1.47109,2.374195 -2.45534,5.030611 -2.76578,7.817556 -0.41981,3.781778 0.20461,8.128 -0.62089,12.072056 -0.57503,2.818694 -2.04611,5.242277 -3.88761,7.408333 -2.12725,2.437694 -4.62492,4.614333 -7.23195,6.522861 -1.63336,1.210028 -3.35491,2.240139 -4.91066,3.552472 -3.57717,3.002139 -7.18256,6.177139 -11.26067,8.501945 -1.09008,0.596194 -2.25425,0.948972 -3.41136,0.282222 -0.86078,-0.557389 -2.12372,-1.375833 -2.07081,-2.532944 -0.21872,-3.012723 0.55387,-6.293556 0.98073,-9.299223 0.5468,-3.245555 0.98777,-6.484055 1.21708,-9.768416 0.57503,-6.985 1.56281,-13.917084 2.76578,-20.820945 1.64041,-9.419167 3.36903,-18.852445 5.29872,-28.215167 0.26106,-1.093611 0.63147,-2.307167 1.70039,-2.868083 1.12183,-0.352778 2.28247,-0.370417 3.3655,-0.889 1.76036,-0.804334 3.52425,-0.913695 5.39044,-1.315865 6.61106,-1.37583 13.25034,-2.62466 19.91078,-3.72533 5.23875,-0.85725 10.48103,-1.67922 15.70214,-2.64583 16.42181,-3.07975 33.2105,-5.53861 49.89336,-6.52992 4.5967,-0.11289 9.17222,-0.45156 13.77245,-0.45861 z"
         inkscape:connector-curvature="0"
         style="fill:#ffffff;stroke-width:0.35277778" />
      <path
         id="path1351"
         d="m 1127.733,-95.877081 c -0.2293,0.687917 -0.5045,1.150056 -0.9984,1.675695 0.2717,-0.60325 0.5892,-1.153584 0.9984,-1.675695 z"
         inkscape:connector-curvature="0"
         style="fill:#050305;stroke-width:0.35277778" />
      <path
         id="path1353"
         d="m 974.41226,-69.284692 c 2.92453,-0.328083 5.715,0.134056 8.67833,0.246945 4.572,0.913694 9.21456,2.490611 12.98928,5.305778 2.19075,1.742722 4.34273,3.732388 5.99013,6.007805 2.6953,4.018139 4.5156,8.688917 5.1435,13.49375 0.1905,2.804584 0.6597,5.464528 0.1482,8.265584 -0.127,3.615972 -0.9666,7.101416 -2.0179,10.548055 -0.5503,1.859139 -1.4464,3.559528 -2.0955,5.383389 -1.3829,3.273778 -3.1679,6.332361 -5.24226,9.214556 -1.15006,1.520472 -1.93675,3.1573609 -3.22792,4.5190832 -1.20297,1.27 -2.3248,2.6105555 -3.47839,3.9264167 -1.35819,1.60161108 -3.15736,2.67052775 -4.61786,4.2015833 -1.41111,1.4957778 -3.15383,2.4482778 -4.72722,3.7394445 -1.13595,0.9172222 -2.45533,1.5063611 -3.63714,2.3671389 -1.26647,0.9419167 -2.71639,1.4499167 -4.06753,2.2718884 -0.94897,0.575028 -1.98261,0.874889 -3.00214,1.287639 -1.31939,0.694973 -2.53647,1.252362 -3.98639,1.647473 -2.46591,1.005416 -5.03766,1.291166 -7.62,1.837972 -3.79941,0.486833 -7.60588,0.765528 -11.44058,0.515055 -1.32644,-0.130527 -2.63172,-0.518583 -3.94758,-0.744361 -1.60867,-0.28575 -2.94922,-1.026583 -4.49792,-1.474611 -1.99319,-0.479778 -3.83469,-1.93675 -5.48217,-3.118555 -1.06186,-0.8396115 -2.25777,-1.150056 -3.18911,-2.1836949 -1.08655,-1.17475 -2.21544,-2.2683611 -3.10444,-3.6089166 -1.02658,-1.5486945 -2.10961,-2.8927778 -2.80106,-4.63550007 -0.95603,-2.65288893 -2.24366,-4.94241673 -2.58939,-7.84577783 -0.19402,-2.7199166 -0.86783,-5.3375276 -0.53975,-8.1491666 0.25048,-1.947333 0.28223,-3.824111 0.65617,-5.764389 0.76906,-3.598333 1.69686,-7.119056 3.10092,-10.526889 0.47625,-1.661583 1.26294,-3.072694 2.14841,-4.54025 1.03012,-2.307167 2.5012,-4.307417 3.80295,-6.462889 1.1818,-1.979083 2.7693,-3.566583 4.191,-5.362222 1.70744,-1.87325 3.28436,-3.771195 5.21053,-5.351639 1.4993,-1.248833 2.75872,-2.645833 4.36386,-3.753556 2.33539,-1.601611 4.4838,-3.340805 7.06261,-4.564944 2.21544,-0.963084 3.96169,-2.54 6.31119,-3.231445 3.75003,-1.488722 7.60236,-2.497666 11.57464,-3.192639 1.30881,-0.141111 2.6282,-0.134055 3.94053,-0.268111 z"
         inkscape:connector-curvature="0"
         style="fill:#ffffff;stroke-width:0.35277778" />
      <path
         id="path1355"
         d="m 971.1032,-68.057025 c 0.31045,0.0035 0.62089,0.02469 0.92428,0.0635 0.78317,1.919111 1.44639,3.827639 1.56634,5.912556 0.067,1.703916 0.41275,3.3655 0.47625,5.069416 0.381,-0.47625 0.78669,-0.889 0.95602,-1.495777 0.56445,-1.615723 1.2065,-3.076223 2.25073,-4.448528 0.89252,-1.922639 2.59997,-3.150306 3.61597,-4.963584 0.27869,-0.08114 0.56444,-0.127 0.8643,-0.137583 -0.10936,0.776111 -0.82197,0.994833 -1.19239,1.672167 -1.48166,2.649361 -2.10608,5.856111 -2.286,8.861778 0.127,1.675694 0.50095,3.344333 0.8255,4.991805 -0.29986,1.785056 -0.92427,3.517195 -1.26294,5.291667 -0.0317,0.458611 0.19756,0.716139 0.68439,0.769055 1.19239,-0.871361 2.20839,-2.155472 3.21028,-3.210277 2.52236,-2.416528 5.84905,-3.01625 8.45961,-5.305778 1.34761,-1.224139 2.59291,-2.621139 3.63361,-4.120445 0.64205,-1.23825 1.28058,-2.472972 1.95439,-3.693583 l 0.23283,0.462139 c -0.36336,0.889 -0.67733,1.781528 -0.97719,2.695222 -0.5962,1.80975 -1.74978,3.309056 -2.23661,5.164667 -0.9525,1.435805 -1.93675,2.829278 -3.0092,4.180416 2.07433,-1.061861 4.0005,-2.465916 5.97958,-3.683 1.85914,-0.811388 3.73239,-1.499305 5.70085,-2.017888 0.2682,0.102305 0.5363,0.22225 0.7973,0.356305 -1.4428,0.518583 -2.83278,1.139472 -4.19451,1.837972 -2.16605,1.227667 -3.76414,3.725334 -5.27402,5.665611 -1.15359,2.00025 -2.25073,4.138084 -3.70417,5.940778 -0.18697,-1.580444 1.55928,-1.689805 1.47814,-3.256139 -1.2065,-0.105833 -2.32128,-0.15875 -3.3902,0.508 -0.91369,0.363361 -1.70744,1.291167 -2.6035,1.545167 -1.98966,-0.980722 -4.05341,-2.003778 -6.18419,-2.638778 -1.10067,-0.261055 -2.16606,-0.606778 -3.15031,-1.17475 0.59973,0 1.18886,0.06703 1.78506,0.08467 0.85725,-1.040695 0.96661,-2.229556 1.31233,-3.485445 0.22225,-0.959555 0.45861,-1.845027 -0.21872,-2.684638 -0.37747,0.204611 -0.73731,0.402166 -0.99483,0.758472 -1.02306,1.241778 -1.97909,2.57175 -2.82223,3.937 0.0247,0.472722 0.11642,0.92075 0.17639,1.386416 -1.4605,0.07761 -2.70227,-0.469194 -4.10986,-0.702027 -1.06891,-0.06703 -2.01789,0.440972 -3.11503,0.197555 -1.49577,-0.257528 -2.99508,-0.169333 -4.49438,-0.299861 -0.5327,-0.525639 -1.07245,-1.083028 -1.5487,-1.661583 l 0.29281,-0.493889 c 0.65616,0.762 1.30175,1.495778 2.27541,1.880305 0.52211,0.0635 1.05834,0.04939 1.58398,-0.01411 0.40922,-1.291166 0.53622,-2.561166 1.31233,-3.721805 1.03011,-1.594556 1.81328,-3.323167 2.8575,-4.907139 0.59619,-1.407583 1.09714,-2.861028 1.69686,-4.272139 0.40217,-1.389945 0.42333,-2.924528 0.4445,-4.367389 -0.12347,-0.839611 -0.46567,-1.633361 -0.57856,-2.4765 z"
         inkscape:connector-curvature="0"
         style="fill:#050305;stroke-width:0.35277778" />
      <path
         id="path1357"
         d="m 968.85601,-67.718358 c 0.48331,1.996722 0.94544,3.894666 0.81492,5.979583 -0.20814,2.049639 -1.56986,3.799417 -2.32834,5.425722 -0.24341,1.502834 -1.5875,2.257778 -1.94027,3.711223 -0.32456,1.054805 -0.81139,2.067277 -1.31234,3.048 -0.49389,-0.529167 -0.83608,-1.153584 -1.27353,-1.725084 -1.02305,-1.033639 -2.20133,-1.830916 -3.45722,-2.554111 -1.65453,-1.464028 -3.36197,-3.566583 -3.42547,-5.870222 -0.31397,-1.146528 -0.55386,-2.525889 0.15875,-3.559528 0.64206,-0.313972 1.26294,-0.617361 1.82033,-1.068917 0.61384,-0.490361 1.30175,-0.511527 1.9932,-0.846666 1.4605,-0.811389 3.13619,-0.9525 4.66725,-1.647473 1.50989,-0.137583 2.82928,-0.511527 4.28272,-0.892527 z"
         inkscape:connector-curvature="0"
         style="fill:#050305;stroke-width:0.35277778" />
      <path
         id="path1359"
         d="m 984.19479,-67.728942 c 0.83608,0.218723 1.5875,0.613834 2.45533,0.73025 1.44639,0.183445 2.56822,0.850195 3.94758,1.36525 1.27,0.740834 2.57528,0.977195 3.52425,2.19075 -0.51152,1.414639 -1.37583,2.504723 -2.15547,3.894667 -1.26647,1.686278 -2.49061,3.361972 -4.27566,4.519083 -1.34762,0.790223 -2.59292,1.710973 -4.04284,2.328334 -1.27705,0.814916 -2.47297,1.770944 -3.70769,2.652889 0,-1.739195 0.53975,-3.330223 0.23989,-5.009445 -0.15875,-1.231194 -0.2152,-2.532944 -0.18698,-3.771194 0.47625,-3.182056 1.77095,-6.692195 4.20159,-8.900584 z"
         inkscape:connector-curvature="0"
         style="fill:#050305;stroke-width:0.35277778" />
      <path
         id="path1361"
         d="m 953.73948,-62.518414 c 0.10936,1.107722 0.31397,2.268361 0.1905,3.376084 -0.0952,0.938388 0.39159,1.912055 0.66322,2.804583 1.18887,2.039055 3.18206,2.973917 5.03767,4.370917 0.59972,0.627944 1.17828,1.287638 1.69686,1.982611 -0.49036,-0.194028 -0.94897,-0.448028 -1.42875,-0.670278 -0.59972,0.832555 -0.85725,1.718028 -1.04775,2.709333 1.03011,0 2.07434,0.03528 3.09386,0.201084 -2.0955,0.211666 -3.99697,0.03175 -6.06425,0.758472 -0.78669,0.381 -1.62983,0.486833 -2.4518,0.758472 -1.44992,0.493889 -2.82575,1.143 -4.19806,1.820333 0.0847,-0.578555 0.254,-1.146527 0.31045,-1.728611 -0.16581,-1.612194 -0.94545,-2.864555 -1.36173,-4.370916 -0.50094,-0.687917 -1.15711,-1.404056 -1.76388,-2.003778 -1.15712,-0.853722 -2.54706,-1.478139 -3.89467,-1.972028 0.37747,-0.208139 0.762,-0.419806 1.16417,-0.578556 0.81491,0.232834 1.58397,0.589139 2.42711,0.740834 1.19944,0.183444 2.15194,0.818444 3.30905,1.277055 1.27706,0.807861 2.31422,1.785056 3.77472,2.331861 -0.14463,-1.220611 -0.70555,-2.130777 -0.60325,-3.319638 0.0247,-0.906639 -0.19755,-1.883834 -0.30691,-2.772834 0.13405,-1.171222 0.48683,-2.289528 0.49389,-3.481917 0.007,-0.934861 0.33866,-1.566333 0.95955,-2.233083 z"
         inkscape:connector-curvature="0"
         style="fill:#050305;stroke-width:0.35277778" />
      <path
         id="path1363"
         d="m 1002.8744,-53.698969 c 0.7584,0.497416 0.9842,1.259416 1.2841,2.06375 0.4021,1.354666 1.0477,2.550583 1.2947,3.951111 0.2399,1.164166 0.7196,2.370666 0.8502,3.531305 -0.8185,0.941917 -1.8521,1.707445 -2.8999,2.370667 -1.4252,0.567972 -2.921,1.037167 -4.28974,1.735667 -3.18206,1.121833 -5.64797,-0.677334 -8.79475,-0.03528 -0.75847,0.5715 -1.41111,1.30175 -1.98261,2.056694 0.83961,-0.229305 1.6898,-0.758472 2.55764,-0.762 1.73566,-0.116416 3.16794,0.832556 4.91419,0.740834 1.44992,-0.07761 3.22792,0.296333 4.47677,-0.500945 2.2754,-0.973666 4.3286,-2.275416 6.5158,-3.436055 -0.1835,0.41275 -0.3598,0.832555 -0.5821,1.224139 -1.3476,0.874889 -2.8257,1.643944 -4.004,2.737555 -0.8749,0.790222 -1.905,1.36525 -2.77991,2.155472 -1.22767,1.11125 -2.93864,1.509889 -4.36739,2.264834 1.1818,0.109361 2.30364,0.246944 3.43958,0.613833 0.95603,0.377472 1.74982,-0.391583 2.65642,0.148167 1.6369,0.599722 3.175,1.552222 4.8542,1.972028 -0.1728,0.321027 -0.3563,0.635 -0.568,0.931333 -2.3071,-1.668639 -4.7907,-1.185333 -7.37301,-0.589139 -2.01436,0.649111 -3.92994,1.975556 -5.77144,3.058583 -2.159,1.654528 -4.80483,1.837973 -7.43656,2.307167 -1.25941,-0.127 -2.56469,-0.705556 -3.73239,-1.139472 -0.18697,0.381 -0.27869,0.892528 -0.59619,1.185333 -0.51506,0.28575 -1.06892,0.423333 -1.64747,0.522111 0.254,-0.543278 0.57855,-1.033639 0.77964,-1.601611 -1.06539,0.776111 -1.62278,2.070806 -2.61056,2.970389 1.65453,0.215195 2.71286,-0.977194 4.3427,-1.065389 2.16958,-0.109361 3.59833,0.899584 5.53155,1.531056 0.0529,0.310444 0.0917,0.620889 0.11642,0.938389 -1.40053,-0.321028 -2.65642,-1.273528 -3.98992,-1.749778 -1.09008,-0.112889 -2.28953,-0.119945 -3.37961,0.0071 -0.85019,0.638528 -1.65806,1.181806 -2.59997,1.679223 -1.00189,1.157111 -2.04964,2.536472 -1.91911,4.152194 -0.0353,2.067278 1.18886,3.439583 1.96144,5.224639 -0.77964,-0.4445 -1.61572,-1.164167 -2.19075,-1.848556 -0.43039,-0.804333 -0.58208,-1.802694 -0.77258,-2.691694 -0.0952,-2.017889 1.07244,-3.164417 1.6263,-4.885972 -1.95791,0.617361 -3.20675,2.744611 -5.40102,3.210278 -1.17475,0.116416 -1.92617,0.832555 -2.92806,1.337027 -1.524,0.261056 -3.12914,-0.08819 -4.66725,0.268111 -1.30881,0.398639 -2.87514,-0.388055 -4.16631,-0.691444 -1.38994,-0.264583 -2.28247,-1.326444 -3.58775,-1.852083 -0.13758,0.896055 -0.067,1.964972 -0.49036,2.776361 -0.51505,1.0795 -1.30527,2.035528 -1.93675,3.051528 -0.41627,0.751416 -1.08302,1.139472 -1.73214,1.725083 -0.74083,0.511528 -1.09008,1.241778 -2.0708,1.280583 0.75847,-0.85725 1.8168,-1.305278 2.52236,-2.233083 0.66322,-0.829028 1.67217,-1.651 1.88736,-2.705806 0.4445,-1.679222 1.02658,-3.245555 0.77964,-4.970639 -0.6985,-1.262944 -1.8415,-1.026583 -3.05858,-1.36525 -1.54164,-0.299861 -2.88573,0.05645 -4.38856,0.338667 -1.09361,0.338667 -2.13078,1.248833 -3.30553,1.368778 0.30339,-0.324556 0.57856,-0.610306 1.01248,-0.754945 1.08302,-0.405694 2.00025,-0.959555 3.12913,-1.143 1.45345,-0.366888 2.83987,-0.165805 4.30742,-0.292805 0.007,-0.850195 0.0247,-1.42875 -0.6985,-1.996722 -1.34761,0.800805 -2.75872,0.592666 -4.25097,0.899583 -2.12372,0.02469 -3.81,0.543278 -5.72911,-0.144639 -1.58045,-0.871361 -3.08328,-1.852083 -4.62845,-2.779889 -1.21355,-0.642055 -2.26483,-1.315861 -3.70064,-1.273528 -2.63525,0.01411 -5.31988,0.479778 -7.88458,1.090084 0.17992,-0.779639 1.143,-0.779639 1.76036,-1.178278 1.92264,-1.100667 4.12397,-1.890889 6.33942,-2.088445 1.64394,-0.881944 3.73944,-0.906638 5.55625,-0.991305 -1.50989,-0.92075 -3.1362,-1.485195 -4.50145,-2.656417 -0.79022,-0.733778 -1.68627,-1.291166 -2.43416,-2.067278 -0.13759,-1.277055 -1.10772,-1.569861 -1.92264,-2.398888 0.13405,-0.373945 0.31397,-0.726723 0.508,-1.075973 0.83255,0.818445 1.59455,2.024945 2.68817,2.472973 0.77611,0.373944 1.4605,0.800805 2.3495,0.829027 1.42169,0.08467 2.5153,0.656167 3.91583,0.338667 1.8803,-0.119944 3.54894,-0.814917 5.33753,-1.315861 1.76389,-0.194028 3.75002,-0.232833 5.37986,0.564444 -1.79564,0.119945 -3.60892,-0.03175 -5.40809,0.05645 0.33162,1.023055 0.75495,2.014361 1.143,3.012722 0.94898,0.924278 1.97556,1.880306 3.13267,2.529417 0.59972,0.306916 1.20297,0.592666 1.75683,0.980722 -0.889,0.194028 -1.73566,0.335139 -2.49766,0.867833 0.17991,0.303389 0.35983,0.60325 0.54328,0.903111 -0.46567,-0.370416 -0.88195,-0.797277 -1.30528,-1.217083 -1.47461,0.384528 -2.76225,1.23825 -4.19453,1.774472 -1.2065,0.388056 -2.08492,1.2065 -2.97039,2.074334 l 0.25047,0.553861 c 1.69686,0.451555 3.47486,0.419805 5.19289,0.821972 1.778,0.01764 3.8347,-0.165806 5.18584,-1.435806 -0.12348,-0.550333 -0.28928,-1.104194 -0.50095,-1.629833 -0.29633,-0.472722 -0.89958,-0.769056 -1.31939,-1.125361 1.03364,-0.0247 2.16253,0.137583 3.175,-0.102306 1.65806,-0.525639 3.24203,-1.280583 4.90009,-1.813277 2.08844,-0.751417 4.2545,-2.345973 6.50875,-2.391834 -1.32998,1.718028 -1.67217,3.690056 -2.1202,5.757334 -0.33867,1.280583 0.21167,2.7305 0.50447,4.004027 0.92428,1.146528 2.46239,2.307167 4.02167,1.957917 1.61219,-0.776111 3.22439,-1.305278 4.55436,-2.564694 1.45345,-1.591028 2.73403,-3.196167 3.63008,-5.178778 0.5327,-0.899584 0.33162,-1.763889 0.31045,-2.751667 -0.0706,-0.8255 0.06,-1.640417 0.007,-2.462389 -0.2293,-0.306916 -0.46566,-0.606778 -0.70908,-0.903111 0.15875,-0.204611 0.32808,-0.395111 0.51506,-0.5715 0.80433,-0.169333 1.16769,0.01764 1.77094,0.529167 1.77447,1.065389 3.27378,2.659944 4.51908,4.300361 0.508,0.596194 0.43039,1.478139 1.31234,1.612194 -0.46214,-1.407583 -1.12536,-2.892777 -2.06375,-4.046361 -0.81492,-0.726722 -1.54164,-1.516944 -2.44122,-2.144889 -1.79564,-1.075972 -3.64773,-1.93675 -5.715,-2.335389 -1.32998,0.254 -2.52942,0.313973 -3.88409,0.271639 -1.38641,-0.0635 -2.5153,0.448028 -3.84175,0.744361 -1.62278,0.402167 -3.05858,1.241778 -4.62139,1.718028 -1.22061,0.292806 -1.89441,1.241778 -3.2385,1.093611 0.75142,-0.585611 1.55928,-1.037166 2.26484,-1.686277 -1.02659,-0.215195 -2.07081,-0.345723 -3.08681,-0.589139 -1.29117,-0.606778 -2.1343,-1.548695 -3.20675,-2.455334 -1.12183,-1.195916 -1.73567,-2.54 -2.49767,-3.96875 0.94898,-0.373944 1.79917,-1.054805 2.79753,-1.255889 -0.45155,0.659695 -1.03011,1.153584 -1.651,1.643945 0.12347,1.524 1.05481,2.518833 2.10609,3.527778 1.42169,0.92075 2.29305,2.010833 4.07811,2.310694 1.40758,0.112889 2.94569,-0.08819 4.21569,-0.719667 0.74789,-0.786694 1.41111,-1.661583 2.18722,-2.430638 -0.0741,0.966611 -0.72672,1.397 -1.23825,2.130777 1.68981,-0.426861 3.25261,-1.178277 5.03061,-1.097139 1.10067,0.02117 2.12725,-0.0388 3.21381,-0.208138 1.05833,0.0635 2.09903,0.719666 3.16089,0.881944 1.53458,0.239889 2.79753,0.874889 4.25097,1.42875 1.29117,0.515056 2.71639,1.439333 4.1275,1.453444 0.45156,-0.41275 0.84314,-0.881944 1.3335,-1.255888 -0.0529,0.515055 -0.14817,1.026583 -0.17639,1.538111 0.15875,0.47625 0.75142,0.797277 1.06892,1.188861 -0.98072,-0.469195 -1.89795,-0.987778 -2.97392,-1.224139 0.61031,0.716139 1.31586,1.351139 1.97909,2.017889 0.30691,-0.119945 0.60325,-0.268111 0.91369,-0.373945 0.40569,0.246945 0.74436,0.564445 1.11831,0.850195 0.83608,-0.41275 1.64747,-0.871361 2.41652,-1.404056 0.95956,-0.635 2.1837,-1.104194 2.87161,-2.070805 0.62089,-0.871361 1.55575,-1.770945 1.80975,-2.82575 -0.89252,-0.06703 -1.73919,-0.04586 -2.58233,0.282222 -1.8803,0.670278 -3.79942,1.178278 -5.64797,1.929694 -1.62983,-0.134055 -3.49956,-0.102305 -5.02356,-0.659694 -1.10772,-0.719667 -2.28247,-0.610306 -2.72344,-2.024945 0.71614,0.243417 1.28411,0.705556 1.94028,1.04775 1.46755,0.416278 2.87161,0.783167 4.40972,0.786695 1.41817,-0.218722 2.81869,-0.635 4.15925,-1.146528 1.43933,-0.924278 2.77636,-1.890889 3.69358,-3.376083 -0.77611,-0.06703 -1.5875,-0.0247 -2.34597,-0.183445 -1.05833,-0.617361 -2.07433,-1.023055 -2.80106,-2.06375 1.72156,0.497417 3.16795,1.474611 5.08,1.55575 0.29281,0.03881 0.55034,-0.07055 0.77259,-0.328083 1.08655,-0.973667 1.4605,-2.211917 2.30716,-3.347861 1.96145,-2.959806 4.30742,-5.591528 7.3414,-7.478889 0.7478,-0.254 1.524,-0.479778 2.3001,-0.631472 z"
         inkscape:connector-curvature="0"
         style="fill:#050305;stroke-width:0.35277778" />
      <path
         id="path1365"
         d="m 967.86823,-53.279164 c 0.50447,0.60325 0.92075,1.262945 1.28059,1.961445 0.19755,0.970139 0.31397,1.972027 0.42686,2.956277 -1.03364,0.194028 -2.26131,0.680862 -3.29848,0.4445 -0.17638,-0.239888 -0.32808,-0.490361 -0.44802,-0.751416 0.42333,-1.601611 1.2065,-3.185584 2.03905,-4.610806 z"
         inkscape:connector-curvature="0"
         style="fill:#ffffff;stroke-width:0.35277778" />
      <path
         id="path1367"
         d="m 940.86309,-52.742942 c 1.30881,0.373945 3.12209,0.659695 3.79236,1.979084 0.53975,0.867833 1.34056,1.495778 1.85914,2.384778 0.87842,1.294694 0.73025,2.684638 1.38642,4.106333 0.36336,-0.01764 0.73025,-0.03175 1.09714,-0.04939 -0.62442,0.670278 -1.20297,1.139472 -2.07786,1.453444 -2.1837,1.322917 -4.28978,2.659945 -6.12775,4.455584 -0.70909,0.560917 -1.11831,1.033639 -1.50636,1.862667 -0.34925,0.204611 -0.6985,0.405694 -1.06186,0.589138 0.13052,-0.543277 0.42333,-0.970138 0.72319,-1.425222 -1.46756,-0.479778 -3.31258,-0.426861 -4.58258,-1.315861 -0.99484,-0.627944 -2.0567,-1.188861 -2.99861,-1.890889 0.15522,-0.970139 0.49741,-1.513417 1.143,-2.229555 1.07244,-1.643945 2.25072,-3.421945 3.70063,-4.766028 0.63853,-0.896056 1.25589,-1.756834 2.07434,-2.50825 0.89253,-0.850195 1.59808,-1.905 2.5788,-2.645833 z"
         inkscape:connector-curvature="0"
         style="fill:#050305;stroke-width:0.35277778" />
      <path
         id="path1369"
         d="m 984.51582,-51.10958 c 0.43744,0.543277 0.24341,1.414638 0.25047,2.074333 -0.22578,1.471083 -0.87842,2.88925 -1.40406,4.272139 -1.51694,-0.201084 -2.59291,-0.966611 -3.99697,-1.502834 0.46567,-0.624416 0.87136,-1.344083 1.44992,-1.866194 1.29116,-1.037167 2.0955,-2.338917 3.70064,-2.977444 z"
         inkscape:connector-curvature="0"
         style="fill:#ffffff;stroke-width:0.35277778" />
      <path
         id="path1371"
         d="m 964.08645,-46.181275 c 1.77448,0.148167 3.91937,0.352778 5.40456,1.414639 -1.7145,0.112889 -3.10092,-1.016 -4.72017,-1.065389 -1.29469,-0.04586 -2.59291,-0.02117 -3.88761,-0.02469 -1.7533,-0.03528 -3.3408,0.613833 -5.12233,0.342194 2.48355,-0.977194 5.67267,-0.589139 8.32555,-0.66675 z"
         inkscape:connector-curvature="0"
         style="fill:#050305;stroke-width:0.35277778" />
      <path
         id="path1373"
         d="m 962.44251,-44.914803 c -1.25942,0.313973 -2.86456,0.232834 -3.99344,0.881945 0.1658,1.068916 0.38452,2.102555 0.81491,3.097389 l -0.12347,0.363361 c -1.13594,-1.026583 -2.32128,-1.954389 -3.66889,-2.688167 -0.91722,-0.197555 -1.90853,-0.07408 -2.84339,-0.151694 2.14136,-1.49225 4.38503,-0.702028 6.78039,-1.792111 0.96308,-0.522112 2.08492,-0.04233 3.03389,0.289277 z"
         inkscape:connector-curvature="0"
         style="fill:#050305;stroke-width:0.35277778" />
      <path
         id="path1375"
         d="m 963.0634,-44.816025 c 1.06892,-0.01411 1.72861,0.472722 2.5153,1.107722 -1.20297,0.15875 -1.69333,-0.388055 -2.5153,-1.107722 z"
         inkscape:connector-curvature="0"
         style="fill:#050305;stroke-width:0.35277778" />
      <path
         id="path1377"
         d="m 969.59332,-44.787803 c 1.02305,-0.01058 1.97202,0.426861 2.72344,1.107723 -1.06892,0.0071 -1.88031,-0.525639 -2.72344,-1.107723 z"
         inkscape:connector-curvature="0"
         style="fill:#050305;stroke-width:0.35277778" />
      <path
         id="path1379"
         d="m 966.18548,-43.736525 c 0.52211,0.321028 1.00895,0.6985 1.4852,1.0795 -0.51859,-0.116417 -1.03011,-0.264583 -1.5487,-0.377472 0.58561,0.906639 1.29822,1.710972 1.94381,2.575278 -1.4217,-0.493889 -1.87678,-1.718028 -2.5647,-2.917473 0.22225,-0.134055 0.45156,-0.254 0.68439,-0.359833 z"
         inkscape:connector-curvature="0"
         style="fill:#050305;stroke-width:0.35277778" />
      <path
         id="path1381"
         d="m 969.33932,-43.58483 c 0.127,-0.275167 1.60161,0.635 1.40758,0.871361 -0.37042,0.109361 -1.73567,-0.303389 -1.40758,-0.871361 z"
         inkscape:connector-curvature="0"
         style="fill:#050305;stroke-width:0.35277778" />
      <path
         id="path1383"
         d="m 972.73304,-43.704775 c 1.05128,0.134056 1.87325,1.040695 3.00566,1.17475 -1.08302,0.388056 -1.97202,1.033639 -2.85044,1.756834 -0.60678,-0.532695 -1.0795,-1.146528 -1.58044,-1.778001 0.34925,-0.07055 0.6985,-0.141111 1.04775,-0.22225 0.127,-0.310444 0.254,-0.617361 0.37747,-0.931333 z"
         inkscape:connector-curvature="0"
         style="fill:#050305;stroke-width:0.35277778" />
      <path
         id="path1385"
         d="m 967.84354,-42.716997 c 1.81328,0.582083 3.3655,1.852083 5.16819,2.515306 -1.92969,-0.109362 -3.20322,0.631472 -4.87186,-0.261056 0.91017,-0.08819 1.80622,-0.05292 2.71639,-0.08819 -0.98778,-0.821973 -2.12019,-1.241778 -3.01272,-2.166056 z"
         inkscape:connector-curvature="0"
         style="fill:#050305;stroke-width:0.35277778" />
      <path
         id="path1387"
         d="m 976.26434,-42.709942 c 0.15875,0.268112 0.28223,0.560917 0.46214,0.818445 0.83256,0.01411 1.32997,0.144639 2.01436,0.652639 -1.25941,1.100667 -3.34786,0.649111 -4.91419,0.645583 0.1905,-0.169333 0.39158,-0.324555 0.60325,-0.465666 0.4833,0.01058 0.96661,0.08467 1.44992,0.102305 0,-0.409222 -0.0423,-0.818444 -0.0317,-1.227667 0.13052,-0.179916 0.27163,-0.356305 0.41627,-0.525639 z"
         inkscape:connector-curvature="0"
         style="fill:#050305;stroke-width:0.35277778" />
      <path
         id="path1389"
         d="m 964.28048,-42.470053 c -0.19403,1.153584 -0.36336,2.423584 -0.91369,3.471334 0.004,-1.143 0.23283,-2.525889 0.91369,-3.471334 z"
         inkscape:connector-curvature="0"
         style="fill:#050305;stroke-width:0.35277778" />
      <path
         id="path1391"
         d="m 948.39137,-41.905608 c -0.0247,0.430389 -0.0882,0.878417 -0.06,1.312333 0.27164,0.465667 0.63147,0.797278 0.97367,1.213556 -0.49037,0.659694 -1.4217,0.814916 -2.19075,0.913694 -1.90853,0.02822 -4.03931,0.162278 -5.82437,0.892528 -0.58913,0.553861 -1.13947,1.139472 -1.79563,1.61925 l -0.20814,-0.596194 c 0.87136,-0.465667 1.52752,-1.199445 2.3883,-1.679223 1.06186,-0.687916 2.159,-1.051277 3.09034,-1.862666 0.99836,-0.910167 2.44475,-1.125361 3.62655,-1.813278 z"
         inkscape:connector-curvature="0"
         style="fill:#050305;stroke-width:0.35277778" />
      <path
         id="path1393"
         d="m 973.83723,-40.293414 c 0.7867,0.532695 1.43934,1.178278 1.9685,1.9685 -0.89253,-0.275166 -1.66864,-1.097139 -1.9685,-1.9685 z"
         inkscape:connector-curvature="0"
         style="fill:#050305;stroke-width:0.35277778" />
      <path
         id="path1395"
         d="m 949.90126,-36.292914 c 0.52917,0.0071 1.16064,-0.09172 1.65806,0.116417 1.08655,0.790222 2.15194,1.608667 3.12208,2.547056 0.35983,0.391583 0.82197,0.486833 1.28764,0.6985 -1.11125,0.635 -2.24014,1.199444 -3.30553,1.912055 0.55033,-0.733778 1.28058,-1.213555 2.02847,-1.718028 -0.5715,-0.800805 -1.18886,-1.513416 -2.00025,-2.081389 -0.83961,-0.705555 -2.19075,-0.53975 -2.79047,-1.474611 z"
         inkscape:connector-curvature="0"
         style="fill:#050305;stroke-width:0.35277778" />
      <path
         id="path1397"
         d="m 973.33982,-35.523858 0.21519,-0.01058 0.007,0.215194 -0.2152,0.01058 z"
         inkscape:connector-curvature="0"
         style="fill:#050305;stroke-width:0.35277778" />
      <path
         id="path1399"
         d="m 937.94915,-34.804191 c 0.0988,0.405694 -0.61736,0.885472 -0.95956,0.606777 -0.21872,-0.395111 0.68086,-0.758472 0.95956,-0.606777 z"
         inkscape:connector-curvature="0"
         style="fill:#ffffff;stroke-width:0.35277778" />
      <path
         id="path1401"
         d="m 971.53007,-33.474219 c -0.14817,0.469194 -0.30692,1.118305 -0.70909,1.439333 -1.25589,0.987778 -2.46239,2.003778 -3.45722,3.266722 0.0741,0.899584 0.20814,1.806223 0.32103,2.705806 0.87136,0.225778 1.62278,-1.093611 2.28247,-1.562806 0.06,-0.758472 -0.10231,-1.400527 0.3175,-2.0955 0.22931,-0.656166 0.89606,-0.754944 1.46403,-1.04775 -0.29634,2.638778 -2.01436,4.15925 -3.5172,6.180667 0.84667,-0.07408 1.37936,-0.726722 2.21192,-0.818444 -0.0106,0.656166 -0.16228,0.811388 -0.71614,1.114777 -0.97719,0.649112 -2.1343,-0.08114 -3.06917,0.440973 -0.91016,0.41275 -1.41111,1.128889 -2.50472,0.938389 -0.51858,-0.218723 -0.94897,-0.716139 -1.34408,-1.11125 0.15875,-0.991306 0.37747,-2.151945 1.12889,-2.882195 0.55033,-0.493889 1.12536,-1.016 1.55575,-1.61925 0.16933,-0.726722 -0.0635,-1.566333 0.1905,-2.261306 0.35983,-0.66675 0.90311,-1.241777 1.39347,-1.820333 1.38289,-0.606778 2.93511,-0.970139 4.45206,-0.867833 z"
         inkscape:connector-curvature="0"
         style="fill:#050305;stroke-width:0.35277778" />
      <path
         id="path1403"
         d="m 968.04815,-32.761608 c 0.32808,-0.02117 0.65969,-0.02117 0.99483,-0.01058 0.18697,0.737305 -0.6103,2.303638 -1.48519,2.19075 0.0635,-0.751417 0.26105,-1.467556 0.49036,-2.180167 z"
         inkscape:connector-curvature="0"
         style="fill:#ffffff;stroke-width:0.35277778" />
      <path
         id="path1405"
         d="m 983.72207,-32.475858 c 0.51858,0.807861 1.01247,1.693333 1.24177,2.628194 -0.4833,-0.532694 -0.89958,-1.125361 -1.34408,-1.689805 -0.26106,-0.257528 -0.22578,-0.567972 0.10231,-0.938389 z"
         inkscape:connector-curvature="0"
         style="fill:#ffffff;stroke-width:0.35277778" />
      <path
         id="path1407"
         d="m 951.96501,-31.001247 c 0.17286,0.328083 -0.65264,1.11125 -0.97367,1.068917 -0.8643,-0.352778 0.54681,-1.361723 0.97367,-1.068917 z"
         inkscape:connector-curvature="0"
         style="fill:#050305;stroke-width:0.35277778" />
      <path
         id="path1409"
         d="m 985.17551,-31.057691 c 0.91722,0.09172 1.67217,0.469194 2.54,0.737305 1.49578,0.409222 2.80811,1.658056 4.04636,2.564695 -0.4833,0.324555 -0.99483,0.529166 -1.55575,0.673805 -1.2065,0.328083 -2.4518,0.860778 -3.683,1.058333 -0.13758,-1.795638 -0.9525,-3.323166 -1.34761,-5.034138 z"
         inkscape:connector-curvature="0"
         style="fill:#ffffff;stroke-width:0.35277778" />
      <path
         id="path1411"
         d="m 1000.1791,-29.135053 c 1.651,-0.264583 3.6513,0.465667 5.0095,1.418167 -0.2223,1.534583 -1.0054,2.76225 -1.4781,4.258028 -1.263,2.663472 -1.7639,4.92125 -3.4114,7.161389 -0.8749,0.109361 -1.80623,0.183444 -2.68817,0.225778 -2.25778,-0.384528 -4.318,-1.404056 -5.87728,-3.097389 -0.68086,-0.906639 -1.05833,-1.957917 -1.69333,-2.88925 -0.52564,-0.684389 -1.19239,-1.252361 -1.72509,-1.93675 0.73731,-0.864306 2.2225,-0.821973 3.1362,-1.499306 1.70744,-1.329972 3.57011,-1.972028 5.53508,-2.924528 1.18181,-0.112889 2.11667,-0.148166 3.19259,-0.716139 z"
         inkscape:connector-curvature="0"
         style="fill:#050305;stroke-width:0.35277778" />
      <path
         id="path1413"
         d="m 984.95326,-28.828136 h 0.21519 v 0.215195 h -0.21519 z"
         inkscape:connector-curvature="0"
         style="fill:#ffffff;stroke-width:0.35277778" />
      <path
         id="path1415"
         d="m 981.36551,-28.443608 c 0.44097,-0.208139 0.74789,0.585611 0.53269,0.885472 -0.41627,0.08114 -0.86783,-0.546805 -0.53269,-0.885472 z"
         inkscape:connector-curvature="0"
         style="fill:#ffffff;stroke-width:0.35277778" />
      <path
         id="path1417"
         d="m 965.55048,-27.198303 c 0.47625,0.352778 0.73025,0.832556 0.9137,1.382889 -0.11995,0.250473 -0.24695,0.490361 -0.38806,0.723195 -0.28575,0.05644 -0.58208,0.05997 -0.88547,0.0071 -0.19756,-0.797277 0.0353,-1.393472 0.35983,-2.113139 z"
         inkscape:connector-curvature="0"
         style="fill:#ffffff;stroke-width:0.35277778" />
      <path
         id="path1419"
         d="m 979.66159,-26.711469 h 0.21873 v 0.215194 h -0.21873 z"
         inkscape:connector-curvature="0"
         style="fill:#ffffff;stroke-width:0.35277778" />
      <path
         id="path1421"
         d="m 931.78259,-25.515553 c 0.80434,0.218723 1.49931,-0.02469 2.28953,-0.130527 1.8662,0.934861 3.75356,1.763889 5.48922,2.935111 0.94545,0.232833 1.85209,0.384528 2.6917,0.92075 -0.54328,0.370417 -1.23472,0.663222 -1.65806,1.167694 -1.03716,1.266473 -2.51883,1.876778 -3.57716,3.129139 -0.94545,1.118306 -2.12725,1.866195 -3.31612,2.681111 -0.89958,0.885473 -1.99672,1.308806 -3.12913,1.802695 -0.74084,0.306916 -1.28764,0.853722 -2.08139,1.0795 -1.05834,0.352778 -2.04611,0.239889 -3.13973,0.405694 -0.71261,0.116417 -1.42169,0.239889 -2.14489,0.264584 0.16228,-1.100667 0.25048,-2.102556 -0.0635,-3.189112 -0.40922,-1.192388 0.40923,-2.345972 0.26106,-3.644194 -0.16228,-2.0955 0.39864,-4.028722 0.95603,-6.025444 0.82903,-0.349251 1.63336,-0.719667 2.44475,-1.118306 1.77094,-0.194028 3.22439,-0.6985 4.97769,-0.278695 z"
         inkscape:connector-curvature="0"
         style="fill:#050305;stroke-width:0.35277778" />
      <path
         id="path1423"
         d="m 953.85237,-22.111247 c 0.39864,-0.225778 0.75847,0.652639 0.61736,0.934861 -0.40922,0.130528 -0.89605,-0.589139 -0.61736,-0.934861 z"
         inkscape:connector-curvature="0"
         style="fill:#ffffff;stroke-width:0.35277778" />
      <path
         id="path1425"
         d="m 987.09109,-21.920747 0.79375,0.15875 c 1.3335,1.661583 2.43064,3.527778 3.63009,5.284611 1.87677,1.485195 4.04283,2.578806 6.51933,2.338917 -2.01436,1.255889 -4.09928,0.529167 -6.45583,0.723194 -1.37936,0.123473 -2.58939,-0.201083 -3.87703,-0.652639 0.58208,0.973667 1.01953,2.017889 1.60514,2.988028 1.19944,2.0249447 1.44991,4.5190836 2.22955,6.5863614 0.16934,0.41275 -0.06,0.7196667 -0.17991,1.1183056 -0.49389,-1.0548056 -0.72673,-2.1872223 -1.29117,-3.2138056 -0.53269,-0.9419167 -1.32644,-1.7533056 -2.20486,-2.3777222 -1.79917,-0.6350001 -3.60539,-1.1676942 -5.49628,-1.4499172 -0.97367,-0.09525 -2.01083,-0.05644 -2.9598,-0.296333 -0.73731,-0.373944 -1.53106,-0.874889 -2.19781,-1.36525 l -0.0811,-0.642055 c 1.22061,0.486833 2.74108,2.032 4.14867,1.823861 0.75847,-1.188861 -0.16581,-1.700389 -0.11289,-2.892778 -0.0317,-0.500945 0.13053,-1.0795 -0.0917,-1.531056 -0.67381,-1.583972 -1.62278,-2.959805 -2.65642,-4.325055 0.55386,0.144639 1.18533,0.536222 1.76742,0.451555 1.48872,-0.271639 2.85044,0.416278 4.36739,0.28575 1.38994,0.01411 2.39536,-0.680861 3.74297,-1.037166 -0.46214,-0.638528 -1.08656,-1.157111 -1.19945,-1.975556 z"
         inkscape:connector-curvature="0"
         style="fill:#050305;stroke-width:0.35277778" />
      <path
         id="path1427"
         d="m 954.85073,-21.285747 c 1.72861,1.55575 3.86292,2.296583 6.08189,2.850445 1.6122,0.04586 3.24203,0.148166 4.85775,0.08114 1.91911,-0.116416 3.22086,-1.379361 5.13645,-1.393472 -0.30692,0.250472 -0.635,0.465667 -0.98073,0.649111 -3.30905,1.375834 -6.5793,1.284111 -10.07886,1.146528 -0.77611,-0.04939 -1.50989,-0.659694 -2.21897,-0.963083 -1.17828,-0.620889 -2.40594,-0.945445 -2.79753,-2.370667 z"
         inkscape:connector-curvature="0"
         style="fill:#ffffff;stroke-width:0.35277778" />
      <path
         id="path1429"
         d="m 972.63073,-20.710719 0.2152,-0.0071 0.007,0.218723 -0.21519,0.0071 z"
         inkscape:connector-curvature="0"
         style="fill:#ffffff;stroke-width:0.35277778" />
      <path
         id="path1431"
         d="m 942.96918,-20.520219 c -0.55386,0.656167 -1.11125,1.217083 -1.91206,1.566333 0.52211,-0.691444 1.00189,-1.389944 1.91206,-1.566333 z"
         inkscape:connector-curvature="0"
         style="fill:#050305;stroke-width:0.35277778" />
      <path
         id="path1433"
         d="m 972.1439,-20.350886 c 0.13053,0.41275 -0.59267,0.899584 -0.93839,0.617361 -0.22931,-0.398639 0.65969,-0.751416 0.93839,-0.617361 z"
         inkscape:connector-curvature="0"
         style="fill:#ffffff;stroke-width:0.35277778" />
      <path
         id="path1435"
         d="m 940.9407,-18.982108 c -0.27163,0.663222 -0.8255,0.970139 -1.32644,1.432278 0.38806,0.426861 0.58208,0.645583 1.19592,0.645583 1.06891,0.0071 2.27541,0.500945 3.28436,0.144639 1.84503,-0.620889 3.73591,-0.352778 5.61622,-0.821972 -1.11125,1.224139 -2.69875,2.194278 -3.51014,3.647722 -0.50447,0.783167 -1.25236,1.326444 -1.70392,2.155472 -0.74436,1.273528 -1.56986,2.3283336 -1.94027,3.7711947 1.87325,0.09525 2.67405,-1.2558889 4.40266,-1.6651111 0.635,-0.22225 1.1677,-1.3370276 1.76389,-0.5573886 -0.33161,0.3527775 -0.67028,0.6526386 -1.12536,0.836083 -2.40947,1.1288889 -5.13644,2.3001112 -7.78933,2.6423056 -1.05128,-0.1940278 -2.07434,-0.1199444 -3.13267,-0.0635 -0.0247,-0.5150555 -0.007,-1.0301111 -0.0353,-1.5451667 -0.51152,-0.1199444 -1.04775,-0.1763889 -1.56986,-0.2328333 0.74789,-0.7020278 1.64395,-1.23825 2.32481,-2.0037776 -1.3582,0.47625 -2.45181,0.7373054 -3.89467,0.8360831 -1.92264,1.1147778 -3.76767,0.7902223 -5.85964,1.1994445 -1.40053,0.1481667 -2.8328,0.09525 -4.24039,0.056444 0.20109,-0.1869722 0.40922,-0.3668888 0.62089,-0.53975 1.29117,-0.1905 2.53647,0.2751667 3.60892,-0.5468055 1.27,-0.7725831 2.62467,-0.5609161 3.7465,-1.5486941 0.67028,-0.557389 1.49578,-0.846667 2.1978,-1.340556 1.95792,-1.707444 3.88762,-3.372555 5.62328,-5.316361 0.45156,-0.518583 1.13947,-0.867833 1.74272,-1.185333 z"
         inkscape:connector-curvature="0"
         style="fill:#050305;stroke-width:0.35277778" />
      <path
         id="path1437"
         d="m 969.49807,-16.449164 c 1.4993,-0.4445 2.75166,0.631473 3.76766,1.5875 -0.20814,0.144639 -0.42333,0.282223 -0.64205,0.409223 -0.51153,-0.433917 -0.75848,-0.977195 -1.4605,-1.100667 -1.95439,-0.765528 -4.17689,0.620889 -5.53156,1.964972 -0.67733,0.881945 -1.22767,1.87325 -1.77094,2.843389 -1.03364,2.7128613 -1.48167,5.5421391 -0.89606,8.4137502 -0.34925,-0.3774722 -0.69497,-0.6843889 -0.762,-1.2206111 -0.0388,-1.3934723 0.19756,-2.7551945 0.20461,-4.1486667 0,-0.7196667 0.3422,-1.4605 0.66322,-2.0955 0.77612,-1.5063614 1.26295,-2.9739164 2.49767,-4.1980554 1.10067,-1.248834 2.48708,-1.728611 3.92995,-2.455334 z"
         inkscape:connector-curvature="0"
         style="fill:#050305;stroke-width:0.35277778" />
      <path
         id="path1439"
         d="m 958.10687,-15.479025 c 1.01247,-0.109361 2.032,0.440973 2.8575,0.977195 0.92075,1.259416 1.31939,2.642305 0.46214,4.060472 -0.16581,-1.665111 -0.0741,-3.090333 -1.41464,-4.296833 -1.2065,-0.261056 -2.54353,0.345722 -3.79236,0.324555 0.53975,-0.384528 1.18533,-1.097139 1.88736,-1.065389 z"
         inkscape:connector-curvature="0"
         style="fill:#050305;stroke-width:0.35277778" />
      <path
         id="path1441"
         d="m 955.69034,-14.515941 c -0.47977,0.790222 -1.09714,1.188861 -1.93322,1.541639 0.54328,-0.617362 1.07597,-1.382889 1.93322,-1.541639 z"
         inkscape:connector-curvature="0"
         style="fill:#050305;stroke-width:0.35277778" />
      <path
         id="path1443"
         d="m 973.25162,-14.575914 c 0.77964,1.188862 1.50989,2.529417 1.88383,3.90525 0.10231,1.3370283 0.73731,3.4219449 -0.17638,4.5508338 -0.37748,-1.0724444 -0.12348,-2.2366111 -0.11289,-3.3725555 -0.33514,-1.7321393 -1.00189,-3.1432503 -1.94381,-4.6213893 z"
         inkscape:connector-curvature="0"
         style="fill:#050305;stroke-width:0.35277778" />
      <path
         id="path1445"
         d="m 953.30557,-12.939025 c 0.80433,0.356306 -0.19403,1.358195 -0.80081,1.294695 0.0247,-0.423334 0.508,-0.987778 0.80081,-1.294695 z"
         inkscape:connector-curvature="0"
         style="fill:#050305;stroke-width:0.35277778" />
      <path
         id="path1447"
         d="m 968.51029,-12.053552 c 0.6985,1.36525 1.2065,3.136194 2.27541,4.279194 0.82198,0.9454445 1.905,1.2241389 3.06212,1.9296945 0.44802,0.3245556 0.74788,0.1128889 1.23472,0.028222 -0.33514,1.49225 -0.77964,2.9633334 -1.13242,4.4520556 -0.4445,1.5275278 -0.0423,3.0726945 -0.0176,4.7378056 0.23284,2.1519445 1.97909,2.9421667 2.4765,4.9000834 -0.97366,-0.3880556 -1.50283,-1.2735278 -2.37772,-1.8838334 -1.02306,-0.7090833 -1.64394,-1.6933333 -2.36361,-2.6881667 -0.92428,-1.1676944 -1.27706,-2.76577776 -1.89795,-4.13455555 -0.54327,1.14300001 -0.38805,2.23308335 -0.61383,3.44663895 -0.37747,2.5223611 -1.31586,4.6848889 -2.08492,7.0873056 -0.38805,0.963084 -0.75494,2.088445 -1.60866,2.7305 0.15875,-1.721555 0.9278,-3.3549167 1.06539,-5.0623612 -0.0423,-1.7321389 -0.46214,-3.6124444 -1.13595,-5.2034722 -0.46919,-1.1394722 -1.38641,-1.84855559 -2.05669,-2.85044448 0.49389,-0.49388889 1.01953,-0.87841672 1.41111,-1.47108332 2.159,-3.0021389 3.20675,-6.6816112 3.76414,-10.2975828 z"
         inkscape:connector-curvature="0"
         style="fill:#464a4c;stroke-width:0.35277778" />
      <path
         id="path1449"
         d="m 951.86976,-11.534969 c 0.74083,0.04586 -0.46567,1.467555 -0.8255,1.224139 -0.20814,-0.440972 0.46567,-1.058334 0.8255,-1.224139 z"
         inkscape:connector-curvature="0"
         style="fill:#050305;stroke-width:0.35277778" />
      <path
         id="path1451"
         d="m 957.40484,-10.66008 c -0.39511,1.9438054 -1.04775,3.8452776 -1.41111,5.7996665 -0.27516,1.3899445 0.004,2.9104167 0.19403,4.30741671 0.27517,0.0352778 0.55386,0.0670278 0.82903,0.0917222 -0.37042,0.37747222 -0.75142,0.73377778 -1.10067,1.13241667 -1.38642,1.76388892 -3.31964,2.70227782 -4.41325,4.77308342 -0.64558,1.2488333 -1.50989,2.3142222 -2.04258,3.6018611 -0.47625,1.5169444 -0.64206,3.3972504 -1.34761,4.8930274 -0.50448,-3.07975 0.0423,-6.2265274 0.9278,-9.186333 0.31045,-1.0512778 0.93839,-1.8591389 0.9525,-2.9950833 -1.74625,1.2594166 -2.74814,3.1467778 -4.46969,4.4344167 -1.52753,1.7039166 -3.4537,2.8504444 -5.11528,4.4026666 -0.26106,0.28575 -0.61736,0.419806 -1.07244,0.409222 l 0.1658,-0.585611 c 1.397,-1.1853332 2.62467,-2.5752776 3.76767,-4.0075554 0.56797,-0.9771945 1.00189,-2.0355278 1.56986,-3.01625 1.56633,-2.70227785 1.80269,-6.2053612 2.80105,-9.193389 0.32456,-0.6385278 0.71967,-1.2276667 1.29117,-1.6756944 0.0282,1.4322777 -1.32292,2.5258889 -1.4993,3.9828611 1.38288,-0.7761111 2.94922,-1.2770556 4.26861,-2.1484167 1.37583,-1.3546667 2.98802,-1.9861389 4.10986,-3.6371389 0.39511,-0.6455833 0.94544,-1.0195277 1.59455,-1.3828887 z"
         inkscape:connector-curvature="0"
         style="fill:#464a4c;stroke-width:0.35277778" />
      <path
         id="path1453"
         d="m 976.94168,-10.399025 c 1.54869,0.8890004 3.27377,1.4040559 5.05883,1.5098893 0.762,0.070556 1.4605,0.049389 2.11314,0.5150555 1.23472,0.7972778 2.8575,1.4146389 3.82411,2.5364723 0.83608,1.4887222 1.70039,2.9068889 1.11125,4.6601944 -0.74436,0.58208337 -1.524,1.09361115 -2.17664,1.7850556 -1.15711,1.2453056 -2.51883,2.2330833 -3.96875,3.1044445 -1.17828,0.98425 -2.52942,2.1096111 -3.99344,2.69875 -0.51153,-0.2010834 -0.99131,-0.3915834 -1.2947,-0.8784167 -0.95955,-1.4111111 -1.67216,-3.14325 -1.88383,-4.84363891 0.0212,-1.92969449 0.0318,-3.91936109 0.46919,-5.80672229 0.40923,-1.7286111 0.46214,-3.52425 0.74084,-5.2810837 z"
         inkscape:connector-curvature="0"
         style="fill:#464a4c;stroke-width:0.35277778" />
      <path
         id="path1455"
         d="m 950.72676,-9.9792191 c -0.27869,0.9136945 -0.88547,1.5628056 -1.54869,2.2119167 0.15875,-0.8995833 0.85372,-1.6615833 1.54869,-2.2119167 z"
         inkscape:connector-curvature="0"
         style="fill:#050305;stroke-width:0.35277778" />
      <path
         id="path1457"
         d="m 961.5782,-9.5417746 c -0.06,0.8960555 -0.27869,1.7074444 -0.64911,2.5223611 0.0106,-0.9630833 0.18345,-1.68275 0.64911,-2.5223611 z"
         inkscape:connector-curvature="0"
         style="fill:#464a4c;stroke-width:0.35277778" />
      <path
         id="path1459"
         d="m 935.07048,-8.5928024 c 0.52211,0.056444 1.05834,0.1128889 1.56986,0.2328333 0.0282,0.5150556 0.0106,1.0301112 0.0353,1.5451667 1.05833,-0.056444 2.08139,-0.1305278 3.13267,0.0635 -1.68981,0.077611 -2.71639,0.4268611 -4.11339,1.3335 -1.77095,0.4903611 -2.90336,1.7215556 -4.44853,2.6211389 -1.46403,0.889 -2.46592,3.39725005 -4.24744,3.61950005 0.65616,-1.1288889 1.45344,-2.16958335 2.13783,-3.28083335 1.89442,-2.1378334 3.76061,-4.2721389 5.93372,-6.1348056 z"
         inkscape:connector-curvature="0"
         style="fill:#464a4c;stroke-width:0.35277778" />
      <path
         id="path1461"
         d="m 946.84268,-7.4427468 c -0.06,0.9983611 -0.40923,1.9014722 -0.84314,2.7904722 -0.62089,1.3440833 -0.71967,2.7481389 -1.16064,4.12044447 -0.38453,0.8431389 -0.77964,1.67922223 -1.20297,2.50472223 -0.58561,-0.3421944 -1.16064,-0.7161389 -1.77448,-1.00541666 -0.37394,0.25047226 -0.72319,0.54327776 -1.0795,0.81844446 0.15523,-0.6949722 0.29987,-1.50636113 0.6985,-2.10608336 0.52917,-0.73730554 1.31939,-1.30175004 1.77095,-2.08138894 -0.23636,-0.3245555 -0.49036,-0.635 -0.79375,-0.8960555 -0.81492,1.2135555 -2.00378,0.9736666 -3.27025,0.7549444 -0.50095,-0.5538611 -0.73731,-1.397 -1.02306,-2.0778611 1.62631,-0.5715 3.29142,-1.2311945 4.99886,-1.4781389 1.25942,-0.3139722 2.42712,-0.98425 3.67948,-1.3440833 z"
         inkscape:connector-curvature="0"
         style="fill:#464a4c;stroke-width:0.35277778" />
      <path
         id="path1463"
         d="m 960.56926,-6.3914691 c -0.0423,1.0089445 -0.28928,2.0073056 -1.13242,2.6458334 0.004,-1.0759722 0.60325,-1.778 1.13242,-2.6458334 z"
         inkscape:connector-curvature="0"
         style="fill:#464a4c;stroke-width:0.35277778" />
      <path
         id="path1465"
         d="m 938.16434,-4.6205246 c 0.28575,0.6808611 0.52211,1.524 1.02306,2.0778611 1.26647,0.2187222 2.45533,0.4586111 3.27025,-0.7549444 0.30339,0.2610555 0.55739,0.5715 0.79375,0.8960555 -0.45156,0.7796389 -1.24178,1.3440834 -1.77095,2.08138894 -0.39863,0.59972223 -0.54327,1.41111116 -0.6985,2.10608336 0.35631,-0.2751667 0.70556,-0.5679722 1.0795,-0.81844446 0.61384,0.28927776 1.18887,0.66322226 1.77448,1.00541666 -0.48331,1.8026945 -1.82034,3.07975 -2.93159,4.6813612 -1.06186,1.5522222 -2.49766,2.4024166 -3.89114,3.6089167 -1.52047,-0.3739445 -2.95627,-1.8344445 -4.1028,-2.8504445 -0.97014,-0.7584722 -1.71097,-1.7356667 -2.66347,-2.5153056 -0.55386,-0.635 -0.93839,-1.4393333 -1.41464,-2.1378333 0.61736,-1.0018889 1.45344,-1.90147227 2.17664,-2.83633339 0.80786,-0.81491667 1.8803,-1.44991671 2.76577,-2.17663891 1.27706,-1.1183056 3.03389,-1.7321389 4.58964,-2.3671389 z"
         inkscape:connector-curvature="0"
         style="fill:#464a4c;stroke-width:0.35277778" />
      <path
         id="path1467"
         d="m 958.81595,-3.756219 h 0.28223 l 0.13758,0.2681111 -0.13758,0.2645833 h -0.28223 l -0.13758,-0.2681111 z"
         inkscape:connector-curvature="0"
         style="fill:#464a4c;stroke-width:0.35277778" />
      <path
         id="path1469"
         d="m 960.77034,-2.7578579 c 0.42686,1.0301111 0.74084,2.09197222 1.26648,3.08327778 0.508,0.91016662 1.05833,1.82738892 1.46402,2.79047222 0.70556,1.6368889 0.71614,3.6230278 0.71614,5.3904445 -0.0106,1.7638884 -0.74789,3.1961664 -1.38289,4.7871944 -1.3088,0.649111 -2.62114,0.352778 -4.03225,0.846667 -2.48355,0.747889 -4.65314,0.303389 -7.16844,0.423333 -0.50447,-0.01764 -0.9137,-0.01058 -1.19592,-0.504472 0.10231,-1.305278 0.56092,-2.6035 0.84667,-3.880556 0.28222,-1.3723053 1.08303,-2.3389164 1.74978,-3.520722 1.27352,-2.5646944 3.66889,-4.7131111 5.61622,-6.76275001 0.90311,-0.95602779 0.84667,-2.19427779 2.12019,-2.65288889 z"
         inkscape:connector-curvature="0"
         style="fill:#464a4c;stroke-width:0.35277778" />
      <path
         id="path1471"
         d="m 958.38909,-2.3309968 c 0.32103,0.381 -0.55033,1.34408334 -0.94897,1.2276667 -0.0811,-0.3880556 0.46214,-1.4569723 0.94897,-1.2276667 z"
         inkscape:connector-curvature="0"
         style="fill:#464a4c;stroke-width:0.35277778" />
      <path
         id="path1473"
         d="m 962.74943,-1.9923301 c 0.43039,-0.1058334 1.29116,0.9136944 0.58561,1.15711108 -0.41628,-0.0352778 -0.5715,-0.81844448 -0.58561,-1.15711108 z"
         inkscape:connector-curvature="0"
         style="fill:#050305;stroke-width:0.35277778" />
      <path
         id="path1475"
         d="m 938.43951,11.000476 0.25753,-0.137584 0.26105,0.137584 v 0.289277 l -0.26105,0.137584 -0.25753,-0.141111 z"
         inkscape:connector-curvature="0"
         style="fill:#464a4c;stroke-width:0.35277778" />
      <path
         id="path1477"
         d="m 784.1204,15.770031 c -0.70203,4.893028 -1.57692,9.782528 -2.38478,14.661445 -2.38125,-0.652639 -4.55436,-0.137584 -6.94267,0.119944 -5.15408,0.6985 -10.28347,1.675695 -15.4058,2.561167 -7.52122,1.347611 -15.23648,2.63525 -22.62011,4.547305 -2.53295,0.656167 -5.11528,0.927806 -7.66234,1.509889 -2.7305,0.585611 -5.30578,1.478139 -8.09978,1.767417 -0.93486,0.162278 -2.26836,0.215194 -2.99508,0.881944 -0.55386,0.818445 -0.83608,1.852084 -1.12183,2.794 -0.21167,0.804334 -0.26459,1.601611 0.3563,2.240139 0.62089,0.635 1.80623,0.702028 2.6282,0.917223 1.37936,0.257527 2.42711,0.966611 3.63361,1.61925 7.79992,4.169833 15.70214,7.235472 23.79133,10.784416 3.95464,1.700389 7.88106,3.443111 11.86039,5.076473 1.89795,0.790222 3.81706,1.55575 5.66914,2.44475 2.56822,1.266472 5.03414,2.741083 7.56356,4.081638 1.04775,0.567973 2.08491,0.483306 3.22791,0.508 -0.28927,1.612195 -0.39158,3.266723 -0.77611,4.854223 -0.22225,0.712611 -0.55033,1.665111 -1.37936,1.834444 -1.88736,0.585611 -3.63361,0.01411 -5.33047,-0.843139 -2.0567,-1.072444 -4.28272,-1.707444 -6.29708,-2.878666 -2.11667,-1.245306 -4.49439,-1.735667 -6.66398,-2.853973 -1.44991,-0.733777 -2.91394,-1.404055 -4.47322,-1.876777 -2.26131,-0.694973 -4.24039,-1.834445 -6.39233,-2.769306 -1.18886,-0.522111 -2.44828,-0.800806 -3.6442,-1.30175 -1.46403,-0.606778 -2.86455,-1.397 -4.32858,-1.993194 -1.11125,-0.451556 -2.26483,-0.772584 -3.36903,-1.238251 -1.72861,-0.705555 -3.33022,-1.654527 -5.04825,-2.3495 -1.03011,-0.419805 -2.09197,-0.702027 -3.1115,-1.143 -1.36525,-0.592666 -2.66347,-1.354666 -4.03225,-1.940277 -1.18533,-0.504473 -2.43064,-0.804334 -3.60186,-1.347611 -2.03906,-0.931334 -3.91231,-2.06375 -6.06072,-2.758723 -1.54164,-0.493889 -2.97745,-1.195916 -4.41678,-1.929694 -1.78153,-0.913695 -3.72886,-1.361722 -5.5245,-2.240139 -1.96497,-0.927806 -3.78531,-1.986139 -5.87728,-2.617611 -2.50825,-0.776111 -4.62844,-2.286 -7.13669,-3.058584 -3.05153,-0.924277 -5.68325,-2.705805 -8.74536,-3.612444 -2.62114,-0.797278 -4.89656,-2.257778 -7.50711,-3.055056 -1.95792,-0.578555 -3.76767,-1.651 -5.31284,-2.970388 0.52211,-1.280584 1.65806,-1.442862 2.83634,-1.80975 4.22275,-1.097139 8.58308,-1.820334 12.92225,-2.226028 5.588,-0.896056 11.176,-1.763889 16.76752,-2.656417 2.10961,-0.335139 4.24392,-0.306917 6.35353,-0.677333 4.04989,-0.670278 8.11389,-1.27 12.16025,-1.961445 2.72697,-0.448028 5.17172,-1.199444 7.95867,-1.210028 2.57175,0.01058 4.99886,-0.553861 7.52475,-0.938388 4.18747,-0.656167 8.37847,-1.287639 12.56594,-1.929695 2.02142,-0.3175 4.06048,-0.261055 6.08542,-0.560917 6.56519,-0.991305 13.1445,-1.908527 19.70969,-2.906888 1.78859,-0.28575 3.59481,-0.328084 5.38692,-0.564445 2.42358,-0.275167 4.82953,-0.821972 7.26017,-0.98425 z"
         inkscape:connector-curvature="0"
         style="fill:#464a4c;stroke-width:0.35277778" />
      <path
         id="path1479"
         d="m 781.73562,30.431476 c -0.0953,0.589139 -0.17639,1.202972 -0.34925,1.778 -1.36525,0.546805 -2.92453,0.66675 -4.35328,0.998361 -5.86316,1.516944 -11.91683,2.402416 -17.90347,3.284361 -4.37797,0.821972 -8.73125,1.524 -13.02103,2.734028 -7.06261,1.326444 -14.15344,2.522361 -21.22311,3.817055 -1.95439,0.483306 -3.91583,0.853722 -5.88786,1.248834 l 0.10583,0.402166 c 1.76036,0.821972 3.59128,1.502834 5.34459,2.345973 3.7465,1.626305 7.3025,3.608916 11.09486,5.139972 11.8745,4.907139 23.57614,10.181166 35.2425,15.564555 1.651,0.765528 3.42194,1.502834 4.87891,2.599973 0.31398,0.504472 -0.0106,1.36525 -0.0459,1.940277 -1.143,-0.02469 -2.18016,0.05997 -3.22791,-0.508 -2.52942,-1.340555 -4.99534,-2.815166 -7.56356,-4.081638 -1.85208,-0.889 -3.77119,-1.654528 -5.66914,-2.44475 -3.97933,-1.633362 -7.90575,-3.376084 -11.86039,-5.076473 -8.08919,-3.548944 -15.99141,-6.614583 -23.79133,-10.784416 -1.2065,-0.652639 -2.25425,-1.361723 -3.63361,-1.61925 -0.82197,-0.215195 -2.00731,-0.282223 -2.6282,-0.917223 -0.62089,-0.638528 -0.56797,-1.435805 -0.3563,-2.240139 0.28575,-0.941916 0.56797,-1.975555 1.12183,-2.794 0.72672,-0.66675 2.06022,-0.719666 2.99508,-0.881944 2.794,-0.289278 5.36928,-1.181806 8.09978,-1.767417 2.54706,-0.582083 5.12939,-0.853722 7.66234,-1.509889 7.38363,-1.912055 15.09889,-3.199694 22.62011,-4.547305 5.12233,-0.885472 10.25172,-1.862667 15.4058,-2.561167 2.38831,-0.257528 4.56142,-0.772583 6.94267,-0.119944 z"
         inkscape:connector-curvature="0"
         style="fill:#a7a7a8;stroke-width:0.35277778" />
      <path
         id="path1481"
         d="m 780.94187,35.095198 c 0.11642,1.453444 -0.0106,2.945694 -0.34219,4.360333 -1.1042,-0.437444 -1.98262,-1.400528 -3.23145,-1.0795 -1.82386,0.335139 -3.63714,0.677334 -5.47864,0.934861 1.76389,1.252361 3.67595,2.296584 5.48217,3.488973 0.81492,0.575027 1.651,0.47625 2.58586,0.5715 -0.0282,0.430388 -0.0917,0.860777 -0.20814,1.277055 -1.92617,0.864306 -4.18747,0.860778 -6.18419,1.594556 1.00541,0.885472 2.07786,1.728611 3.22086,2.430639 0.65616,0.469194 1.52753,0.201083 2.29658,0.22225 -0.06,0.839611 -0.23283,1.718027 -0.51858,2.50825 -0.83609,-0.229306 -1.4605,-0.694973 -2.35656,-0.41275 -1.45697,0.388055 -2.91041,0.871361 -4.33564,1.372305 1.13948,1.150056 2.45181,2.148417 3.70064,3.175 0.64559,0.585611 1.43934,0.296334 2.26131,0.384528 0.0106,0.490361 -0.0212,0.98425 -0.14817,1.456972 -0.85725,0.645584 -2.08844,0.846667 -3.09739,1.178278 -2.22955,0.702028 -4.55083,1.252361 -6.69219,2.19075 2.79753,1.651 5.98311,2.663472 8.75241,4.34975 0.0988,0.737306 -0.0388,1.464028 -0.26105,2.166056 -1.35114,-0.384528 -2.64231,-1.026584 -3.94758,-1.545167 -12.85875,-5.231695 -25.65401,-10.618611 -38.27639,-16.400639 -2.48709,-1.068917 -4.90714,-2.38125 -7.47184,-3.242028 0.22931,-0.232833 0.35984,-0.522111 0.39511,-0.871361 16.64759,-3.358444 33.34456,-6.484056 50.05917,-9.49325 1.25589,-0.22225 2.52236,-0.522111 3.79589,-0.617361 z"
         inkscape:connector-curvature="0"
         style="fill:#464a4c;stroke-width:0.35277778" />
      <path
         id="path1483"
         d="m 665.67879,37.063698 c 2.58938,0.338667 4.94241,2.268361 7.42597,3.104444 2.90336,0.980723 5.38339,2.769306 8.30086,3.711223 2.38478,0.800805 4.41678,2.268361 6.82272,3.026833 2.96686,0.910167 5.43983,2.741083 8.4067,3.630083 1.71802,0.53975 3.25261,1.393473 4.86127,2.169584 1.64395,0.79375 3.41489,1.2065 5.05884,2.00025 1.86972,0.881944 3.63361,1.866194 5.61975,2.487083 2.61408,0.79375 4.82247,2.363611 7.43655,3.157361 1.98614,0.620889 3.74297,1.612195 5.6127,2.494139 1.72508,0.829028 3.58069,1.248833 5.29166,2.116667 1.60161,0.807861 3.16795,1.640416 4.88598,2.176639 2.67405,0.860777 4.85775,2.511777 7.5318,3.393722 1.62278,0.529167 3.12208,1.30175 4.62492,2.0955 1.76036,0.934861 3.69358,1.375833 5.46453,2.289528 1.92616,1.065389 3.88055,1.820333 5.96194,2.515305 2.27895,0.906639 4.57553,2.148417 6.92856,2.903361 1.38641,0.440973 2.77636,0.959556 4.08516,1.601612 0.54681,0.282222 1.04775,0.582083 1.38289,1.118305 0.004,0.694972 -0.21872,1.368778 -0.52564,1.986139 -1.36877,-0.335139 -2.6423,-0.998361 -4.00755,-1.372306 -2.93864,-0.811388 -5.46453,-2.44475 -8.39611,-3.287889 -2.86809,-0.867833 -5.2952,-2.568222 -8.16328,-3.439583 -2.72697,-0.807861 -5.04472,-2.402417 -7.78228,-3.153833 -1.94733,-0.525639 -3.66536,-1.456972 -5.48922,-2.282472 -1.50636,-0.694973 -3.1115,-1.061862 -4.63197,-1.718028 -1.31234,-0.557389 -2.59292,-1.195917 -3.90525,-1.753306 -1.73567,-0.772583 -3.55248,-1.27 -5.25287,-2.12725 -8.78769,-4.28625 -17.75177,-8.152694 -26.68411,-12.117917 -2.59644,-0.959555 -4.90714,-2.4765 -7.47536,-3.4925 -1.7145,-0.694972 -3.23497,-1.672166 -4.86833,-2.522361 -1.21003,-0.627944 -2.50472,-0.980722 -3.72886,-1.566333 -1.60514,-0.754945 -3.05153,-1.707445 -4.74486,-2.282472 -3.1997,-1.033639 -5.92667,-2.988028 -9.17928,-3.90525 -1.54164,-0.3175 -0.93486,-1.834445 -0.86783,-2.956278 z"
         inkscape:connector-curvature="0"
         style="fill:#464a4c;stroke-width:0.35277778" />
      <path
         id="path1485"
         d="m 772.00954,40.750226 c 1.47108,1.044222 3.09033,1.908527 4.47322,3.058583 -1.29822,0.451556 -2.68817,0.765528 -4.04989,0.941917 -0.93133,0.194027 -1.67922,-0.472723 -2.44122,-0.903111 -1.71097,-1.121834 -3.58422,-2.028473 -5.2317,-3.2385 1.56281,-0.388056 3.18911,-0.684389 4.79073,-0.853723 0.97366,-0.15875 1.67569,0.518584 2.45886,0.994834 z"
         inkscape:connector-curvature="0"
         style="fill:#050305;stroke-width:0.35277778" />
      <path
         id="path1487"
         d="m 762.29051,40.916031 c 1.16417,-0.201083 2.06375,0.705556 2.97392,1.284111 1.43227,1.075973 3.16794,1.919111 4.40619,3.196167 -1.85561,0.34925 -3.71828,0.906639 -5.59506,1.093611 -0.93838,-0.148166 -1.82738,-1.030111 -2.58586,-1.576917 -1.31939,-1.128888 -2.89983,-1.947333 -4.1028,-3.185583 1.58397,-0.377472 3.28083,-0.656167 4.90361,-0.811389 z"
         inkscape:connector-curvature="0"
         style="fill:#050305;stroke-width:0.35277778" />
      <path
         id="path1489"
         d="m 754.27893,42.136642 c 1.22766,-0.1905 2.05316,0.705556 2.7305,1.583973 -2.08139,0.483305 -4.21923,0.596194 -6.28298,1.192388 -3.14678,0.899584 -6.35,1.474612 -9.4368,2.575278 -0.72673,0.1905 -1.65806,0.606778 -2.37773,0.254 -1.32291,-0.53975 -2.61408,-1.213555 -3.84527,-1.943805 1.41111,-0.525639 2.81516,-0.670278 4.28272,-0.9525 2.15547,-0.391584 4.22275,-1.090084 6.40292,-1.379361 2.84691,-0.41275 5.67972,-0.9525 8.52664,-1.329973 z"
         inkscape:connector-curvature="0"
         style="fill:#050305;stroke-width:0.35277778" />
      <path
         id="path1491"
         d="m 727.08681,45.205809 c -0.0353,0.34925 -0.1658,0.638528 -0.39511,0.871361 l -0.57503,-0.278694 c -0.40216,-0.677334 0.52212,-0.776111 0.97014,-0.592667 z"
         inkscape:connector-curvature="0"
         style="fill:#ffffff;stroke-width:0.35277778" />
      <path
         id="path1493"
         d="m 751.91531,46.01367 c 1.15006,0.525639 2.12373,1.506361 2.98803,2.409472 -1.42522,0.479778 -2.99508,0.821973 -4.50144,0.896056 -0.80786,-0.765528 -1.53811,-1.626306 -2.27542,-2.462389 1.10772,-0.553861 2.55058,-1.037167 3.78883,-0.843139 z"
         inkscape:connector-curvature="0"
         style="fill:#050305;stroke-width:0.35277778" />
      <path
         id="path1495"
         d="m 772.22826,46.881504 c 1.25236,0.783166 2.50119,1.689805 3.47839,2.808111 -1.6122,0.645583 -3.28084,1.322916 -4.9777,1.703916 -0.60677,-0.162277 -1.16064,-0.620889 -1.67216,-0.980722 -1.15711,-0.885472 -2.37067,-1.707444 -3.48898,-2.642305 1.57339,-0.289278 3.13267,-0.60325 4.69548,-0.959556 0.67733,-0.09525 1.35819,-0.363361 1.96497,0.07056 z"
         inkscape:connector-curvature="0"
         style="fill:#050305;stroke-width:0.35277778" />
      <path
         id="path1497"
         d="m 763.01723,48.387865 c 0.89253,-0.151695 1.53458,0.433916 2.22603,0.896055 1.20297,0.917222 2.45886,1.763889 3.63361,2.709334 -0.93486,0.578555 -1.98614,1.107722 -3.07269,1.305277 -0.86078,-0.162277 -1.67923,-0.66675 -2.46592,-1.037166 -1.84503,-0.948973 -3.85939,-1.665111 -5.588,-2.755195 1.73214,-0.440972 3.49603,-0.881944 5.26697,-1.118305 z"
         inkscape:connector-curvature="0"
         style="fill:#050305;stroke-width:0.35277778" />
      <path
         id="path1499"
         d="m 756.31445,50.127059 c 2.49414,1.467556 5.19289,2.515306 7.76464,3.848806 1.67922,0.9525 2.85045,-0.363361 4.55789,-0.550334 0.77258,0.254 1.4605,0.821973 2.14136,1.259417 1.09714,0.765528 2.30717,1.3335 3.42195,2.060222 -2.01084,0.758472 -4.11339,1.287639 -6.15598,1.964972 -0.9278,0.268112 -1.91558,0.663223 -2.88572,0.694973 -0.83608,-0.112889 -1.64747,-0.575028 -2.40947,-0.917223 -4.826,-2.321277 -9.78958,-4.374444 -14.61206,-6.695722 1.83798,-0.765528 3.8982,-0.98425 5.81731,-1.538111 0.69497,-0.112889 1.72508,-0.560917 2.36008,-0.127 z"
         inkscape:connector-curvature="0"
         style="fill:#050305;stroke-width:0.35277778" />
    </g>
  </g>
</svg>
