<?xml version="1.0" encoding="UTF-8" standalone="no"?>
<!-- Created with Inkscape (http://www.inkscape.org/) -->

<svg
   xmlns:dc="http://purl.org/dc/elements/1.1/"
   xmlns:cc="http://creativecommons.org/ns#"
   xmlns:rdf="http://www.w3.org/1999/02/22-rdf-syntax-ns#"
   xmlns:svg="http://www.w3.org/2000/svg"
   xmlns="http://www.w3.org/2000/svg"
   xmlns:sodipodi="http://sodipodi.sourceforge.net/DTD/sodipodi-0.dtd"
   xmlns:inkscape="http://www.inkscape.org/namespaces/inkscape"
   width="515.6875mm"
   height="236.54807mm"
   viewBox="0 0 515.6875 236.54807"
   version="1.1"
   id="svg7002"
   inkscape:version="0.92.4 (5da689c313, 2019-01-14)"
   sodipodi:docname="laptop-2.svg">
  <defs
     id="defs6996" />
  <sodipodi:namedview
     id="base"
     pagecolor="#ffffff"
     bordercolor="#666666"
     borderopacity="1.0"
     inkscape:pageopacity="0.0"
     inkscape:pageshadow="2"
     inkscape:zoom="0.35"
     inkscape:cx="1027.3847"
     inkscape:cy="-150.12291"
     inkscape:document-units="mm"
     inkscape:current-layer="layer1"
     showgrid="false"
     fit-margin-top="0"
     fit-margin-left="0"
     fit-margin-right="0"
     fit-margin-bottom="0"
     inkscape:pagecheckerboard="true"
     inkscape:window-width="3840"
     inkscape:window-height="2056"
     inkscape:window-x="-8"
     inkscape:window-y="-8"
     inkscape:window-maximized="1" />
  <metadata
     id="metadata6999">
    <rdf:RDF>
      <cc:Work
         rdf:about="">
        <dc:format>image/svg+xml</dc:format>
        <dc:type
           rdf:resource="http://purl.org/dc/dcmitype/StillImage" />
        <dc:title></dc:title>
      </cc:Work>
    </rdf:RDF>
  </metadata>
  <g
     inkscape:label="Layer 1"
     inkscape:groupmode="layer"
     id="layer1"
     transform="translate(288.8378,127.43475)">
    <g
       id="g2957"
       transform="translate(599.86717,-371.4947)">
      <path
         id="path1143"
         d="m -862.80002,244.05996 c 3.41489,0.0212 6.82978,0.11289 10.2482,0.15522 5.27755,0.37042 10.59039,0.14111 15.86794,0.50094 4.70253,0.15523 9.41917,0.06 14.11111,0.36337 4.81895,0.14463 9.65553,0.0494 14.46389,0.3563 5.17525,0.14111 10.36109,0.0459 15.52223,0.35631 5.29166,0.14111 10.59744,0.0282 15.875,0.34925 5.5245,0.14111 11.06664,0.0353 16.58055,0.36336 4.0005,0.06 8.001,0.12347 12.0015,0.16228 5.15761,0.33513 10.3505,0.24694 15.52222,0.36336 4.21923,0.30339 8.46667,0.22577 12.69648,0.31397 2.24366,-0.0494 4.45911,0.25753 6.70277,0.24342 3.302,0.0529 6.604,0.0952 9.90953,0.14111 5.73264,0.44097 11.5182,0.1023 17.25084,0.53269 3.76413,0.0847 7.5318,0.11289 11.29594,0.16933 4.92125,0.36337 9.88131,0.23284 14.81667,0.35984 5.85964,0.45861 11.77219,0.0811 17.63183,0.52916 3.99697,0.0847 8.001,0.10937 12.0015,0.16934 5.86317,0.47625 11.78278,0.0776 17.64595,0.53975 4.45558,0.14111 8.93938,-0.0212 13.38086,0.33866 5.17525,0.14817 10.37519,-0.004 15.5328,0.37748 4.34622,0.13052 8.72067,-0.0141 13.05278,0.34572 3.41136,0.0847 6.82625,0.0882 10.23761,0.1658 4.09222,0.37042 8.23736,0.20814 12.34722,0.35984 3.85586,0.37394 7.76817,0.1905 11.64167,0.35983 3.49603,0.37042 7.05908,0.16228 10.56569,0.37395 3.3902,0.39158 6.85095,0.0811 10.23762,0.45155 1.58044,0.15875 2.97391,-0.0564 4.46263,0.46567 1.28764,0.44803 2.51531,0.76905 3.54542,1.70744 2.7552,2.46592 5.40456,4.699 7.16139,8.03275 2.25072,3.76767 2.50119,7.72231 3.18206,11.96975 0.21519,3.28084 0.2293,6.58989 0.20461,9.87778 -0.0176,8.35025 -0.0776,16.7005 -0.10584,25.05075 -0.0141,1.41464 -0.24341,2.80811 -0.20814,4.22981 -0.007,16.22777 -0.13758,32.45555 -0.1023,48.68333 0.0317,8.48783 0.1023,16.98978 0.0388,25.47761 9.4615,0.63147 18.91948,1.4217 28.3845,2.01789 13.80773,0.94192 27.68601,1.83797 41.48667,2.89278 14.76022,1.0548 29.50634,2.33539 44.26303,3.2773 1.21708,0.0564 2.34597,0.0247 3.47133,0.57503 2.71286,1.26295 5.35517,3.36903 6.858,5.98311 -0.29986,3.20322 -0.0882,6.39586 -0.25752,9.59909 0.0318,1.90852 -1.79564,3.55952 -2.80106,5.08352 -1.13594,1.75331 -2.82928,2.19781 -4.55789,3.17148 -5.78908,3.05152 -11.57111,6.11716 -17.36019,9.17222 -24.72267,12.94694 -49.657,25.50936 -74.47492,38.27991 -3.04447,1.61573 -6.22653,2.89631 -9.19692,4.66373 -2.21191,1.37583 -4.58611,2.40594 -6.68866,3.96522 -2.54353,0.55386 -4.5967,1.84855 -6.84742,3.07975 -1.83445,0.45155 -3.66889,0.18344 -5.51745,0.47625 -1.11125,0.14111 -2.17311,0.0423 -3.28788,0.0141 -2.46592,-0.0882 -4.93184,-0.10583 -7.39775,-0.1905 -3.26673,-0.27869 -6.62517,-0.21872 -9.89189,-0.35631 -3.18559,-0.2928 -6.34295,-0.20461 -9.525,-0.35983 -3.04095,-0.28575 -6.13481,-0.19755 -9.17223,-0.3563 -2.94216,-0.28575 -5.90197,-0.1905 -8.83355,-0.35984 -3.27731,-0.32808 -6.59342,-0.13758 -9.8672,-0.4445 -3.05505,-0.21166 -6.12775,-0.0776 -9.16516,-0.37394 -2.46592,-0.13759 -4.93889,-0.10936 -7.40481,-0.21872 -3.25966,-0.31398 -6.62164,-0.21167 -9.88483,-0.36337 -4.2157,-0.38452 -8.48431,-0.11641 -12.69647,-0.49036 -3.87703,-0.17639 -7.77875,-0.0212 -11.6452,-0.34925 -3.45016,-0.11994 -6.90386,-0.10936 -10.3505,-0.20461 -4.76603,-0.42686 -9.58144,-0.0882 -14.34042,-0.49741 -4.11338,-0.18345 -8.24794,-0.007 -12.34722,-0.36689 -3.76061,-0.15875 -7.54591,-0.004 -11.28889,-0.34925 -3.64066,-0.16934 -7.30602,0 -10.92905,-0.35631 -3.40784,-0.1658 -6.84742,0.004 -10.23761,-0.34572 -3.28789,-0.17639 -6.61459,0 -9.88836,-0.34925 -2.70228,-0.14111 -5.41162,-0.0741 -8.11037,-0.20814 -3.62302,-0.41275 -7.31661,-0.0882 -10.92905,-0.47978 -3.27378,-0.21166 -6.59342,-0.007 -9.84956,-0.36689 -2.71286,-0.14464 -5.4363,-0.0776 -8.14916,-0.19402 -3.47839,-0.37748 -7.08378,-0.1905 -10.57981,-0.36689 -4.20864,-0.4445 -8.49136,-0.0529 -12.69647,-0.50095 -3.03389,-0.13405 -6.07836,-0.0776 -9.11225,-0.19755 -3.04095,-0.35631 -6.17714,-0.21167 -9.26395,-0.3422 -1.28763,-0.0811 -2.56116,-0.32808 -3.76061,-0.81844 -2.69169,-1.08303 -5.30225,-2.22603 -7.35541,-4.34975 -1.01953,-0.95603 -1.37936,-2.32834 -2.04964,-3.59834 -4.74134,-9.57438 -9.51089,-19.13466 -14.36511,-28.65261 -12.88345,-25.36472 -25.77748,-50.72239 -38.41045,-76.21411 -9.83897,-19.77672 -19.75555,-39.51464 -29.68625,-59.2455 -7.0485,-13.9453 -14.01939,-27.93294 -20.84917,-41.98761 -0.40569,-0.91722 -1.05127,-1.905 -1.14652,-2.91394 0.11641,-2.72345 1.41816,-5.4857 3.89466,-6.80862 2.09198,-1.09008 4.61081,-1.41463 6.91798,-1.75683 3.8488,-0.40922 7.71172,-0.89605 11.57463,-1.15358 z"
         inkscape:connector-curvature="0"
         style="fill:#040000;stroke-width:0.35277778" />
      <path
         id="path1145"
         d="m -888.47518,252.66774 c 0.51153,-0.10584 0.60678,0.6738 0.2293,0.89605 -0.51152,0.10583 -0.60677,-0.6738 -0.2293,-0.89605 z"
         inkscape:connector-curvature="0"
         style="fill:#b5b5b5;stroke-width:0.35277778" />
      <path
         id="path1147"
         d="m -876.33257,253.0064 c 1.17122,-0.27516 2.47297,-0.127 3.67242,-0.12347 3.35491,0.13053 6.7063,-0.0706 10.05416,0.13406 7.08025,0.56797 14.25575,-0.0494 21.33247,0.50094 5.97606,0.19756 11.9627,0.0212 17.93523,0.17286 5.50333,0.42333 11.11955,0.23989 16.65464,0.29633 2.70933,0.0423 5.39044,0.37042 8.1033,0.32103 4.22981,0.0952 8.48431,-0.127 12.68942,0.21872 5.63033,0.35631 11.31005,-0.0847 16.9298,0.37748 5.63387,0.31044 11.31006,-0.0952 16.93334,0.34925 5.63739,0.31044 11.30653,-0.0847 16.93333,0.34572 6.22653,0.32455 12.48833,-0.10231 18.70075,0.37747 6.34295,0.28222 12.7247,-0.11994 19.05353,0.36336 4.70253,0.14464 9.41564,0.0882 14.11817,0.10936 3.06563,0 6.10658,0.37395 9.17222,0.32456 4.96358,0.0988 9.87778,-0.13758 14.80608,0.26105 5.2317,0.22931 10.48103,-0.007 15.71625,0.20462 6.08895,0.46213 12.2555,0.10583 18.34445,0.3563 7.0873,0.53975 14.24516,-0.0353 21.32541,0.50095 6.33942,0.26811 12.72117,-0.11642 19.05,0.34572 7.40128,0.28928 14.83784,-0.127 22.22853,0.37041 8.58308,0.25048 17.19439,-0.127 25.75983,0.36689 7.52828,0.06 15.06009,0.127 22.58837,0.0529 0.98425,0.0247 2.04611,-0.06 2.91394,0.48331 2.40947,1.47813 3.82058,3.73591 5.1435,6.1595 0.80081,1.45697 0.64558,2.91041 0.67381,4.51908 -0.06,6.11011 0.34219,12.2308 0.27516,18.34092 0.0247,2.82222 0.0565,5.64444 0.10584,8.46666 0.50447,8.41022 0.0459,16.85925 0.508,25.273 0.18697,4.04636 0.0388,8.07509 0.11288,12.12145 0.0776,3.94053 -0.0212,7.874 0.25048,11.811 0.18697,7.70114 0.0212,15.40933 0.0847,23.114 -0.20108,6.84036 0.85725,13.59605 0.635,20.45758 -0.11289,2.29306 0.61736,4.43089 0.65617,6.70631 0.0317,3.64419 0.007,7.3025 0.23283,10.93964 0.27517,3.55247 0.0917,7.09788 0.32103,10.65036 0.32456,3.96875 0.10583,7.94455 0.48331,11.9133 0.0882,4.10634 0.44097,8.1915 0.508,12.29784 0.30691,4.25097 0.28575,8.509 0.59266,12.75997 -0.0353,3.30553 0.3175,6.59694 0.28575,9.89189 -0.007,2.57175 -0.86077,5.35516 -2.98802,6.94619 -1.64042,0.55386 -3.76767,-0.2293 -5.49628,-0.0776 -1.18181,0.13758 -2.31775,0.58208 -3.52778,0.65617 -1.29117,0.0635 -2.6035,-0.0635 -3.89467,-0.1517 -4.64608,-0.35278 -9.36625,-0.0176 -13.99116,-0.40922 -4.90009,-0.26811 -9.78959,0.0388 -14.70025,-0.381 -4.54378,-0.16228 -9.10167,-0.06 -13.64545,-0.20461 -4.24039,-0.23283 -8.46314,-0.21167 -12.70705,-0.21872 -2.35656,0.0106 -4.69195,-0.29986 -7.0485,-0.32809 -2.95628,-0.0494 -5.87023,0.0635 -8.82298,-0.18697 -3.88761,-0.34925 -7.75758,0.004 -11.64166,-0.37394 -3.30553,-0.30339 -6.59695,-0.0141 -9.906,-0.32103 -3.40078,-0.3422 -6.80156,-0.0423 -10.20234,-0.37042 -2.23661,-0.20814 -4.46969,-0.15875 -6.70983,-0.17991 -2.24014,-0.007 -4.45206,-0.33514 -6.69219,-0.33867 -2.36009,-0.0106 -4.70959,0.0282 -7.05909,-0.20461 -3.18558,-0.29634 -6.36411,-0.0141 -9.55322,-0.31397 -2.70228,-0.25753 -5.39044,-0.15875 -8.09625,-0.20814 -2.12019,-0.0282 -4.21569,-0.31045 -6.33589,-0.32456 -2.71286,-0.0317 -5.40808,0.0494 -8.11742,-0.1905 -4.12397,-0.35278 -8.21972,0.0106 -12.34722,-0.3563 -4.15925,-0.34573 -8.21619,0.004 -12.37544,-0.33162 -4.35328,-0.381 -8.66775,0 -13.02456,-0.36336 -4.37797,-0.3563 -8.67833,0.007 -13.05278,-0.36336 -4.12397,-0.33866 -8.21972,0.0141 -12.34722,-0.35983 -2.71286,-0.24342 -5.40808,-0.11289 -8.12447,-0.1905 -1.88031,-0.0459 -3.7465,-0.2787 -5.63033,-0.30339 -2.94923,-0.0494 -5.87728,0.0529 -8.82298,-0.20461 -3.30905,-0.2787 -6.58636,-0.10936 -9.88836,-0.17286 -1.32997,0.0106 -2.47297,-0.50095 -3.60186,-1.143 -1.08303,-0.62089 -2.26483,-1.25589 -2.94569,-2.33892 -0.66322,-1.02305 -1.16417,-2.159 -1.72509,-3.2385 -4.79425,-9.34155 -9.56733,-18.70075 -14.23458,-28.10933 -1.10067,-2.01084 -2.10255,-4.03225 -3.048,-6.1207 -8.43492,-16.9298 -16.89806,-33.8455 -25.48819,-50.69769 -4.4697,-8.83356 -9.04523,-17.62125 -13.41262,-26.5042 -0.94544,-1.75683 -1.89441,-3.50661 -2.7693,-5.30225 -7.10847,-14.04761 -14.25222,-28.08111 -21.35364,-42.13225 -6.71689,-13.26797 -13.36322,-26.56769 -20.23181,-39.75805 -0.60677,-1.16417 -1.36172,-2.42006 -1.651,-3.70417 -0.32102,-1.19592 0.29634,-2.6035 1.32645,-3.25614 z"
         inkscape:connector-curvature="0"
         style="fill:#4c4c4c;stroke-width:0.35277778" />
      <path
         id="path1149"
         d="m -888.14004,254.38224 c 0.23283,0.49388 0.51152,1.00188 0.64558,1.53458 -0.0882,0.47625 -0.21167,0.94544 -0.36689,1.41111 -0.27517,-0.99836 -0.39864,-1.91206 -0.27869,-2.94569 z"
         inkscape:connector-curvature="0"
         style="fill:#88888a;stroke-width:0.35277778" />
      <path
         id="path1151"
         d="m -607.02201,264.78918 c 5.99369,0.0953 11.98386,0.53622 17.9705,0.85372 11.68047,0.73378 23.27275,1.3582 34.90383,2.40947 9.28158,0.68087 18.63372,0.83256 27.90119,1.70392 2.35656,0.21167 4.6602,0.22931 6.86859,1.20297 0.50447,0.23284 0.75494,0.99131 0.96661,1.47109 1.21708,3.18911 1.30528,6.93914 0.97719,10.29758 -0.1023,4.22981 0.20461,8.47725 0.28575,12.70706 0.11995,7.59177 0.45156,15.17297 0.69145,22.76122 0.39511,5.61622 0.57855,11.24655 0.93839,16.86278 0.50094,10.56569 1.29116,21.13844 1.54164,31.71119 0.22225,3.50308 0.254,7.01322 0.27516,10.52336 -0.0247,1.524 -0.23283,2.96334 -1.55928,3.90878 -1.63688,1.143 -3.92288,0.46567 -4.74838,-1.33703 -0.76906,-1.81328 -0.59973,-4.10633 -0.77964,-6.05014 -0.59267,-7.7858 -1.44639,-15.53633 -1.74273,-23.34683 -0.36688,-5.28108 -0.2928,-10.57628 -0.62441,-15.85383 -1.42875,-12.67884 -1.58397,-25.2977 -2.11314,-38.02239 -7.08731,-2.36361 -14.19225,-4.67078 -21.32542,-6.88975 -10.02947,-3.02331 -20.14008,-5.76086 -30.34947,-8.11742 -6.24417,-1.42875 -12.51303,-2.75872 -18.76778,-4.15219 -5.0165,-1.10773 -10.0718,-2.21545 -14.98953,-3.71123 -1.78152,-0.57855 -3.80294,-1.26647 -4.73427,-3.03389 -1.13242,-2.09902 0.11994,-4.9283 2.39536,-5.58447 1.87678,-0.54328 4.08164,-0.37747 6.01839,-0.31397 z"
         inkscape:connector-curvature="0"
         style="fill:#a7a7a7;stroke-width:0.35277778" />
      <path
         id="path1153"
         d="m -690.2811,321.09251 c 2.07434,0.3175 4.1522,0.30692 6.23711,0.38806 2.62467,0.37394 5.27756,0.85019 7.80698,1.66158 2.53294,0.98072 4.96358,1.25589 7.24252,2.53647 1.76389,0.97014 3.67595,1.43934 5.3587,2.58587 2.80105,1.50636 5.4363,3.26672 7.87047,5.31636 1.90853,1.19591 3.35844,2.7058 4.83658,4.37797 3.20675,2.89278 5.65856,6.72747 7.99042,10.33286 1.70744,2.89983 3.09033,6.01486 4.21569,9.18281 0.53623,1.82739 0.82198,3.73944 1.16064,5.60916 0.89253,2.25778 0.52211,4.43089 0.58209,6.79098 -0.0423,2.92452 0.23989,5.75733 -0.62795,8.60425 -1.1183,2.48355 -1.08655,4.94594 -2.53294,7.3025 -1.22414,2.00377 -1.75331,4.05694 -3.30553,5.86316 -1.29117,1.50284 -2.26836,3.41842 -3.69358,4.78014 -1.79564,1.61925 -3.67595,3.14325 -5.44336,4.79778 -1.51695,1.34055 -3.42195,2.33539 -5.25287,3.17853 -1.36525,0.62441 -2.53294,1.50636 -3.96169,2.00025 -1.82739,0.64911 -3.45722,1.4993 -5.38339,1.84502 -2.02847,0.40217 -4.12044,1.23825 -6.16303,1.28764 -2.74461,0.0353 -5.34105,0.90664 -8.11389,0.72673 -2.77283,0.15169 -5.3728,-0.73378 -8.13152,-0.73378 -1.5487,-0.0423 -3.16442,-0.62795 -4.68842,-0.94897 -5.54214,-1.07598 -10.91494,-3.46781 -15.79739,-6.25828 -4.7378,-2.9845 -9.17222,-6.08189 -12.80936,-10.40342 -3.90878,-4.064 -7.03792,-8.89705 -9.19339,-14.10405 -0.58561,-1.68628 -1.11125,-3.40078 -1.62278,-5.11175 -0.508,-1.85562 -1.25589,-3.51367 -1.44639,-5.45042 -0.37394,-3.12561 -0.6738,-6.40292 -0.23636,-9.52853 0.55739,-5.3093 2.01084,-10.82675 4.826,-15.39875 0.77259,-1.33703 1.41817,-2.80811 2.45181,-3.91583 2.14842,-2.42359 4.16278,-5.461 6.96383,-7.15434 2.27542,-1.45344 3.96875,-3.39372 6.54403,-4.39208 2.81164,-1.59808 5.82789,-2.65289 8.87236,-3.70417 3.44664,-0.68086 7.03792,-1.8168 10.52689,-1.8168 1.72156,0.0141 3.21028,-0.50095 4.91772,-0.24695 z"
         inkscape:connector-curvature="0"
         style="fill:#fefefe;stroke-width:0.35277778" />
      <path
         id="path1155"
         d="m -687.92807,322.45071 c -0.21519,1.91558 -1.15711,3.63361 -1.41817,5.51744 0.0176,1.39347 0.39864,2.79753 0.59267,4.18042 0.23989,1.67922 0.87842,3.15736 1.50989,4.71311 0.91017,2.30717 2.59292,4.39914 3.51719,6.6922 0.63853,2.05316 0.45861,4.3568 1.06539,6.41702 0.36336,0.17286 0.74084,0.32456 1.12536,0.45509 1.25942,-2.30011 2.78342,-4.88245 5.10823,-6.23711 2.61055,-1.70745 5.1188,-3.51014 7.2778,-5.77498 1.62983,-1.76741 2.6282,-4.16983 2.99508,-6.52639 0.1905,-1.14652 0.49742,-2.10255 1.05128,-3.12914 0.37747,0.76553 0.4692,1.17123 0.29281,2.01789 -0.62442,3.20675 -0.56797,6.86506 -1.72509,9.88837 -0.58913,1.71802 -1.28763,3.4043 -1.96497,5.09058 2.13431,-1.97203 4.31447,-3.75708 6.90386,-5.1047 2.11314,-1.2065 4.18395,-2.27188 6.52992,-2.97391 0.77964,-0.24695 1.50989,-0.10584 2.29306,0.0247 -1.64395,0.91017 -3.36198,1.6757 -5.0165,2.5647 -1.23473,0.59619 -2.02142,2.06022 -2.92806,3.08327 -1.48872,1.76037 -2.20133,3.82764 -2.80106,6.01839 -0.53622,2.09198 -1.45344,4.03225 -1.88383,6.14892 0.67028,-0.0529 1.50989,0.0811 2.12372,-0.21519 1.143,-1.78859 1.4852,-4.28273 2.38478,-6.15598 0.51858,-0.97719 1.18181,-1.86972 1.71803,-2.83633 0.99836,-1.86267 3.04447,-3.24908 4.69547,-4.52261 1.04775,-0.70556 2.31422,-1.76742 3.61597,-1.8415 1.29823,1.17122 2.26484,2.70933 3.46075,3.99344 1.30528,1.42875 1.9932,3.12561 3.00214,4.74486 0.64911,1.17123 1.59456,2.32128 1.98967,3.60187 -1.18181,1.82033 -3.60539,2.94922 -5.47511,3.93347 -1.95792,1.16064 -4.56495,1.32997 -6.7945,1.64747 -2.95981,0.0776 -5.6762,-0.97014 -8.68539,0.0988 -0.16228,-0.34925 -0.32456,-0.70203 -0.49036,-1.05128 l -0.25753,-0.50094 c -1.47814,-0.36689 -2.95275,-0.66323 -4.36739,-1.26648 -1.66511,-0.70555 -3.29847,-1.44639 -5.02355,-2.00377 -2.032,-0.68792 -4.1275,-1.09362 -6.17714,-1.72156 -6.55814,-1.93322 -13.31384,-2.76225 -20.12245,-1.88383 -1.76389,0.1023 -3.5313,-0.0141 -5.29872,0.12347 -0.43039,-0.23636 -0.83608,-0.48683 -1.31233,-0.1905 l -0.10231,-0.27517 c 0.80081,0.0176 1.60161,0.0423 2.40242,0.0952 2.31775,0.26811 4.26508,0.14464 6.5405,-0.32455 1.16416,-0.12348 2.36008,-0.10584 3.53483,-0.14464 -0.90311,-1.97203 -1.74625,-3.81706 -3.4043,-5.28814 -0.41628,-0.41275 -0.91017,-0.39511 -1.45345,-0.52564 l -0.36689,-0.0706 c 0.28222,-2.45886 0.92781,-4.61786 1.03717,-7.05555 0.17286,-2.72345 -0.39158,-5.51745 -1.6122,-7.95514 -0.73025,-1.48872 -1.86619,-2.83986 -2.79752,-4.22628 0.6103,0.13406 1.47814,0.0176 1.87325,0.56445 1.8803,2.12372 3.35491,4.70958 4.8648,7.10141 1.4217,2.17664 1.81681,4.64961 3.58422,6.62517 0.20814,-1.91558 -0.0635,-3.75003 0.41628,-5.63739 0.50095,-2.91394 1.43228,-5.75381 2.56117,-8.48078 0.27517,-0.71966 0.78317,-1.04069 1.41111,-1.42169 z"
         inkscape:connector-curvature="0"
         style="fill:#3f8c95;stroke-width:0.35277778" />
      <path
         id="path1157"
         d="m -684.79893,323.21976 c 1.32292,-0.0988 2.71639,0.22578 4.01108,0.47625 1.61572,0.33514 3.1362,0.42334 4.70253,0.96661 1.75683,0.61031 3.54189,1.12537 5.30578,1.70745 0.77611,0.2928 1.50636,0.47272 1.96497,1.22767 0.51858,0.68086 0.40922,1.51341 0.33161,2.31422 -0.43392,2.74461 -1.37936,5.59153 -3.25261,7.70114 -1.96497,2.49766 -4.6355,4.04283 -7.05203,5.99369 -0.93839,0.84667 -1.80975,1.76036 -2.77989,2.57528 -0.27164,-2.15547 -1.15358,-4.02872 -1.92264,-6.02897 -0.54327,-1.37231 -1.36172,-2.61056 -1.91205,-3.96875 -0.52211,-1.76389 -0.58914,-3.67595 -0.85372,-5.49628 -0.46567,-2.45533 0.63852,-5.16467 1.45697,-7.46831 z"
         inkscape:connector-curvature="0"
         style="fill:#43919a;stroke-width:0.35277778" />
      <path
         id="path1159"
         d="m -705.08718,324.81079 c 0.8643,1.44286 1.77447,2.83281 2.71639,4.22275 1.29822,1.81681 1.41111,4.15925 1.80975,6.33236 0.36336,1.83445 -0.12347,3.57011 -0.46567,5.43631 -0.52917,2.159 -0.26811,4.15572 -0.42686,6.34294 -1.05833,-0.71966 -2.02494,-1.51694 -3.15383,-2.13077 -1.63689,-0.94545 -3.41136,-1.37231 -5.01298,-2.39537 -1.77094,-1.17475 -3.47133,-2.25072 -4.98475,-3.76413 -2.12725,-1.97203 -3.37961,-4.96359 -4.78013,-7.49653 2.56116,-1.24531 4.83305,-3.05153 7.37305,-4.33211 2.26836,-0.8502 4.55436,-1.90148 6.92503,-2.21545 z"
         inkscape:connector-curvature="0"
         style="fill:#3c8994;stroke-width:0.35277778" />
      <path
         id="path1161"
         d="m -720.48946,333.77488 c 1.10772,2.14136 2.1837,4.22627 3.90172,5.96547 1.95439,2.21191 4.60728,3.16089 7.1755,4.45558 1.71803,0.89958 3.41489,1.83445 5.18584,2.6282 0.0423,0.26105 0.0847,0.52211 0.127,0.78669 -0.99484,-0.71614 -2.07786,-1.20297 -3.21381,-1.64747 0.0635,1.30175 0.254,2.55411 0.54328,3.82411 -3.23145,0.65969 -6.31472,1.67569 -9.0417,3.58069 -0.15169,-0.19402 -0.29986,-0.39158 -0.44802,-0.58561 -1.09009,-1.42169 -1.86267,-2.93511 -3.13267,-4.22275 -1.05128,-1.05833 -2.13783,-2.15194 -3.38667,-2.97744 -2.17664,-1.42875 -4.64608,-1.94734 -6.88622,-3.21381 2.286,-0.67028 4.53672,0.22225 6.70278,0.9137 1.45344,0.5468 2.96333,0.98072 4.37444,1.6263 1.31939,0.58561 2.1202,1.59809 3.62656,1.68628 -1.97908,-2.69522 -3.76061,-5.49275 -5.1682,-8.53017 -0.58913,-1.5875 -0.91016,-3.22791 -1.70391,-4.74486 0.55386,-0.0282 1.07597,-0.17991 1.34408,0.45509 z"
         inkscape:connector-curvature="0"
         style="fill:#3d8994;stroke-width:0.35277778" />
      <path
         id="path1163"
         d="m -685.66324,342.06868 c 1.17475,0.79022 1.32645,1.95439 1.70745,3.21028 0.43744,1.58397 0.18344,3.0233 0.14111,4.64608 -1.38995,-0.23989 -2.77989,-0.49036 -4.15572,-0.8008 -0.13053,-2.63878 0.93133,-4.87892 2.30716,-7.05556 z"
         inkscape:connector-curvature="0"
         style="fill:#fdfefe;stroke-width:0.35277778" />
      <path
         id="path1165"
         d="m -699.26635,342.93651 0.36689,0.0706 c 0.0564,1.74978 0,3.49956 0.13053,5.24933 0.39864,0.23284 0.79728,0.4692 1.19239,0.70909 -2.27542,0.46919 -4.22275,0.59266 -6.5405,0.32455 0.25753,-0.21519 0.51505,-0.43039 0.77258,-0.64558 -0.0635,-0.42686 -0.127,-0.85725 -0.1905,-1.28411 0.65264,0.40569 1.31939,0.89253 2.04611,1.14653 0.78317,0.0952 1.59809,0.004 2.38125,-0.0282 -0.38805,-1.89794 -0.59619,-3.62655 -0.15875,-5.54214 z"
         inkscape:connector-curvature="0"
         style="fill:#45868b;stroke-width:0.35277778" />
      <path
         id="path1167"
         d="m -698.89946,343.00707 c 0.54328,0.13053 1.03717,0.11289 1.45345,0.52564 1.65805,1.47108 2.50119,3.31611 3.4043,5.28814 -1.17475,0.0388 -2.37067,0.0212 -3.53483,0.14464 -0.39511,-0.23989 -0.79375,-0.47625 -1.19239,-0.70909 -0.13053,-1.74977 -0.0741,-3.49955 -0.13053,-5.24933 z"
         inkscape:connector-curvature="0"
         style="fill:#fdfeff;stroke-width:0.35277778" />
      <path
         id="path1169"
         d="m -730.57185,344.95088 c 2.49414,0.23283 4.98122,1.39347 7.03792,2.78694 2.65289,1.80622 4.11692,4.23686 6.17714,6.58636 0.31397,-0.56092 0.65969,-1.07244 1.09714,-1.54164 0.14816,0.19403 0.29633,0.39159 0.44802,0.58561 -1.15358,1.40053 -2.78694,2.19781 -4.01108,3.54189 -1.27,1.36525 -2.71992,2.87514 -3.33728,4.64961 -0.36336,-0.0917 -0.72319,-0.20461 -1.08655,-0.30339 -1.59456,-0.4198 -3.11503,-0.47625 -4.64609,-1.06538 -1.92616,-0.64559 -3.45722,-1.70039 -5.29872,-2.62467 0.39159,-2.50472 0.8255,-5.04825 1.56986,-7.47183 0.63148,-1.73567 1.43581,-3.40078 2.04964,-5.1435 z"
         inkscape:connector-curvature="0"
         style="fill:#3a8892;stroke-width:0.35277778" />
      <path
         id="path1171"
         d="m -675.73254,344.5099 c 0.43391,0.73731 0.83961,1.50284 1.143,2.30364 0.55386,1.88031 0.26105,3.60892 0.13758,5.51745 -2.02142,-0.54681 -4.10633,-1.00189 -6.06778,-1.73567 -0.38452,-0.59267 0.15523,-1.05833 0.41628,-1.58044 1.13242,-1.85562 2.7305,-3.1362 4.37092,-4.50498 z"
         inkscape:connector-curvature="0"
         style="fill:#fefefe;stroke-width:0.35277778" />
      <path
         id="path1173"
         d="m -706.41715,349.46996 c 0.47625,-0.29633 0.88194,-0.0459 1.31233,0.1905 -0.45156,0.21872 -1.12889,0.49036 -1.31233,-0.1905 z"
         inkscape:connector-curvature="0"
         style="fill:#597f85;stroke-width:0.35277778" />
      <path
         id="path1175"
         d="m -697.55538,351.10332 c 1.4217,0.26458 2.85398,0.66675 4.24392,1.04069 2.42006,0.60678 4.8507,1.06187 7.2002,1.92617 2.44122,0.89606 4.88597,1.4852 7.20725,2.65995 -1.82034,0.13405 -3.61245,0.34219 -5.40103,0.71966 0.7373,0.62442 1.50283,1.2065 2.20486,1.87325 -1.016,-0.49389 -1.92264,-1.20297 -2.9457,-1.66511 -2.2613,-0.31397 -3.86291,1.07597 -6.08188,0.37042 -2.53648,-0.55386 -4.13456,-2.26484 -5.57037,-4.30036 2.18017,0.75494 4.35681,1.524 6.52287,2.32127 1.42169,0.49389 2.53294,1.24884 4.10633,0.97367 -1.49225,-1.36172 -3.52425,-1.5628 -4.99533,-2.89983 1.37936,0.47978 2.66347,0.91722 4.14866,0.80786 -1.0795,-1.06539 -2.27541,-1.49225 -3.73944,-1.77095 -2.62467,-0.49741 -5.41514,-1.56633 -8.08567,-1.42522 -2.86808,0.0282 -5.73264,-0.38805 -8.50194,0.35984 -1.09714,0.30338 -2.17311,0.28222 -3.29142,0.1658 2.20839,-0.88547 4.49792,-1.016 6.85094,-0.93839 2.17664,0.10936 4.03931,-0.62441 6.12775,-0.21872 z"
         inkscape:connector-curvature="0"
         style="fill:#478690;stroke-width:0.35277778" />
      <path
         id="path1177"
         d="m -664.88815,350.86696 c -0.37042,1.44286 -0.87489,2.8328 -1.44992,4.20158 -1.9685,-0.37041 -3.62303,-0.94544 -5.38692,-1.89441 0.55386,-0.40217 1.10773,-0.78317 1.76389,-1.01248 1.66864,-0.58561 3.28084,-1.21002 5.07295,-1.29469 z"
         inkscape:connector-curvature="0"
         style="fill:#fdfefe;stroke-width:0.35277778" />
      <path
         id="path1179"
         d="m -697.54126,353.44224 c -0.18345,0.30339 -0.36689,0.6103 -0.54328,0.91722 -0.82903,-0.57856 -1.59809,-1.30175 -2.667,-1.28058 -1.48167,-0.0423 -2.96334,-0.0141 -4.445,-0.004 0.14111,1.67569 1.15358,2.72344 1.99319,4.07811 -2.13783,-0.93133 -4.52261,-2.45533 -6.858,-2.71286 -1.41816,-0.13406 -2.55411,1.14653 -3.63361,1.90853 1.83092,1.70391 3.22792,3.48544 5.55978,4.57552 1.90147,0.84667 3.77825,1.9297 5.93019,1.55575 1.32292,-0.26105 3.24556,-0.31397 4.04284,-1.56633 1.13947,-1.54164 0.59266,-3.76414 0.62441,-5.57036 0.33161,1.03717 0.68439,2.17311 0.67028,3.26319 -0.24694,0.95603 -0.59972,1.8662 -0.70908,2.8575 2.21897,-1.02305 4.53319,-1.24177 6.93561,-1.69333 4.10633,0.34925 8.21619,1.36878 12.15672,2.55058 1.86267,0.5327 3.48897,1.3335 5.47158,1.46756 0.80434,-0.19756 1.5487,-0.73378 2.26484,-1.13947 -3.82764,-0.54681 -7.50359,-1.27 -10.86203,-3.29142 2.12372,0.43039 4.01461,1.42169 6.12069,1.73919 1.18887,0.18698 2.38831,0.39159 3.59481,0.35984 1.09714,-0.0635 2.23661,-0.57503 3.25967,-0.96661 1.86972,-0.64206 3.71122,-1.88384 4.77661,-3.57717 0.1658,0.34925 0.32808,0.70203 0.49036,1.05128 -0.52917,0.42686 -1.03364,0.88194 -1.54517,1.32644 1.5487,-0.0459 3.08328,-0.14816 4.63197,-0.0106 2.22603,0.20814 4.45559,0.15169 6.68162,0.39158 2.8575,0.26811 5.23522,-0.71966 7.82461,-1.7533 1.57339,-0.83256 3.00919,-1.96145 4.47675,-2.96686 0.13758,0.45861 0.27869,0.91369 0.43039,1.36877 -1.25589,0.52564 -2.37773,1.15359 -3.38667,2.07786 -3.09739,2.68464 -6.11011,5.17173 -10.07533,6.48053 2.60702,0.41981 5.22463,0.23989 7.81755,0.71261 2.93158,0.44803 5.4857,1.45345 8.39258,2.22956 0.0388,0.28928 0.0811,0.57855 0.12348,0.87136 -1.15006,-0.29986 -2.36714,-0.67381 -3.556,-0.71614 -2.48003,-0.0106 -5.07295,-0.30339 -7.52123,0.41981 -1.54163,0.59266 -2.97038,1.50283 -4.44852,2.24014 -2.13784,1.07597 -3.8347,2.4765 -6.27945,2.82927 l -0.18697,-0.85372 c 1.16064,-0.23989 2.29306,-0.6738 3.41842,-1.05128 -0.99484,-0.75847 -1.82386,-1.5628 -3.05153,-1.91558 -2.06728,-0.64558 -4.26861,-1.47108 -6.42408,-1.59808 0.43038,0.56797 0.87136,1.12889 1.31938,1.68627 l -0.21872,0.0635 c -0.44803,-0.38452 -0.85019,-0.81491 -1.43933,-0.37747 -1.15006,-1.33703 -2.48003,-2.61055 -3.97228,-3.556 -0.63853,-0.38453 -1.43228,-0.81139 -2.19428,-0.80786 -0.46214,0.2152 -0.87136,0.55739 -1.28411,0.85372 -3.048,-2.12372 -6.58989,-3.5948 -10.21291,-4.39208 -1.08303,-0.22225 -2.22603,-0.44097 -3.33023,-0.37042 -3.03036,0.25048 -5.89844,0.15523 -8.7383,1.4217 -2.44475,0.53622 -4.37797,1.8803 -6.54756,3.03036 -1.29469,0.71261 -2.20839,1.74272 -3.42194,2.61761 0.54328,-0.72672 1.52047,-1.52047 1.52047,-2.48003 -0.21519,-0.43744 -0.508,-0.84666 -0.77258,-1.25236 0.63147,0.26811 1.27352,0.62795 1.94733,0.77258 0.78317,-0.45508 1.48519,-1.05833 2.21192,-1.59808 -1.81328,-0.18697 -3.57011,-0.47625 -5.21759,-1.29822 -1.74272,-0.88195 -3.58069,-1.77095 -5.10469,-3.00214 -1.35467,-1.04069 -2.26483,-2.49061 -3.61597,-3.54894 3.42547,-1.57339 6.85094,-2.88925 10.63272,-3.26673 2.51883,-0.51152 4.52967,0.38453 6.94267,0.89959 z"
         inkscape:connector-curvature="0"
         style="fill:#398593;stroke-width:0.35277778" />
      <path
         id="path1181"
         d="m -693.06451,355.34018 c 1.68627,0.56092 3.33727,1.28764 4.85069,2.22956 -2.36714,0.75141 -5.26697,-0.32456 -6.71336,-2.31775 0.64205,-0.06 1.23825,-0.12348 1.86267,0.0882 z"
         inkscape:connector-curvature="0"
         style="fill:#fbffff;stroke-width:0.35277778" />
      <path
         id="path1183"
         d="m -682.62582,355.59771 c -0.10583,0.38805 -0.21167,0.77258 -0.3175,1.16064 -0.78317,-0.21872 -2.25072,0.0529 -2.33539,-1.01247 0.99131,-0.89606 1.54164,-0.44098 2.65289,-0.14817 z"
         inkscape:connector-curvature="0"
         style="fill:#def2f4;stroke-width:0.35277778" />
      <path
         id="path1185"
         d="m -715.98801,356.26093 c 0.63147,1.53106 1.79563,2.45533 2.89277,3.63008 -2.62466,0.13053 -5.2458,0.63853 -7.85636,0.64912 l -0.46566,-0.0317 c 0.67027,-0.60325 1.32644,-1.21709 1.99319,-1.82034 1.01953,-0.94897 2.29306,-1.58397 3.43606,-2.42711 z"
         inkscape:connector-curvature="0"
         style="fill:#3c8792;stroke-width:0.35277778" />
      <path
         id="path1187"
         d="m -731.5949,361.45029 c 2.00025,1.23825 4.59316,1.12889 6.95325,1.74272 0.20108,0.4445 0.25047,0.91723 0.77258,1.09009 0.31044,-0.48331 0.58208,-0.99484 0.85725,-1.49578 0.20108,0.0811 0.40217,0.16228 0.60678,0.23989 1.47461,-0.36336 2.76578,-1.05833 4.318,-1.17122 1.89089,-0.11995 3.79589,-0.20109 5.69383,-0.17286 -1.67922,0.65616 -3.70769,0.32102 -5.49628,0.51152 0.99484,1.03011 1.96498,2.04259 3.13267,2.8822 1.58044,1.21003 3.43606,1.97555 5.24581,2.84691 0.73025,0.34925 1.50636,0.508 2.28952,0.68439 -0.84314,0.28928 -1.67569,0.61031 -2.50472,0.94898 0.3422,0.36336 0.69145,0.72319 1.03364,1.08302 -0.79022,-0.22577 -1.58044,-0.60325 -2.39889,-0.70202 -2.16958,0.35277 -3.84528,1.48519 -5.45394,2.91747 -0.40217,0.20108 -0.80434,0.39864 -1.2065,0.59619 -2.38478,-0.97366 -4.54025,-2.07786 -7.10848,-2.55411 -1.2065,-0.17992 -2.49061,-0.56092 -3.66888,-0.15875 -1.53106,0.47978 -3.04095,0.94897 -4.6355,1.17828 0.33513,-0.67733 0.92427,-1.05128 1.54516,-1.44286 1.34761,-0.74436 2.59292,-1.53811 4.11692,-1.88384 2.10608,-0.65616 4.18747,-0.27869 6.20183,-1.30175 -1.07597,-0.31044 -2.18369,-0.53975 -3.2385,-0.91016 -1.95791,-0.67381 -3.81353,-1.82386 -5.59153,-2.87867 -1.58044,-1.04775 -3.11502,-1.97203 -4.41325,-3.32317 1.13948,0.127 1.98614,0.71967 2.94923,1.27353 z"
         inkscape:connector-curvature="0"
         style="fill:#34818e;stroke-width:0.35277778" />
      <path
         id="path1189"
         d="m -659.56121,360.0674 c -0.85725,2.07786 -2.18722,3.85586 -4.191,4.94242 -1.14653,0.58914 -2.06375,1.27353 -2.99155,2.16606 -1.96145,-0.57503 -3.27025,-1.95439 -4.42384,-3.55953 0.91722,-0.72672 1.92264,-1.56281 3.0092,-2.02847 1.39347,-0.52564 2.87514,-0.84667 4.29683,-1.29823 1.36172,-0.44097 2.88925,-0.28575 4.30036,-0.22225 z"
         inkscape:connector-curvature="0"
         style="fill:#fdfefe;stroke-width:0.35277778" />
      <path
         id="path1191"
         d="m -721.41726,360.50838 0.46566,0.0317 c -0.51153,0.81491 -1.00189,1.63688 -1.45344,2.48708 -0.20461,-0.0776 -0.4057,-0.15875 -0.60678,-0.23989 -0.27517,0.50094 -0.54681,1.01247 -0.85725,1.49578 -0.52211,-0.17286 -0.5715,-0.64559 -0.77258,-1.09009 0.10936,-0.64911 0.26105,-1.29116 0.39511,-1.93675 0.36336,0.0988 0.72319,0.21167 1.08655,0.30339 0.62442,-0.27516 1.20298,-0.63852 1.74273,-1.05127 z"
         inkscape:connector-curvature="0"
         style="fill:#9ec4cf;stroke-width:0.35277778" />
      <path
         id="path1193"
         d="m -710.24479,361.96888 c 1.65805,0.57855 3.61597,1.16416 4.79072,2.52236 -2.42358,-0.94898 -4.69194,-2.0567 -7.3025,-2.45886 0.87489,-0.22578 1.62983,-0.41628 2.51178,-0.0635 z"
         inkscape:connector-curvature="0"
         style="fill:#63858a;stroke-width:0.35277778" />
      <path
         id="path1195"
         d="m -683.18674,362.75204 c 2.02848,0.23284 3.69359,1.08656 5.51745,1.92617 1.3088,0.63853 2.61761,1.33703 3.79941,2.19428 1.55223,1.09008 2.60703,2.667 4.19806,3.7218 -0.762,-1.98261 -2.52236,-3.42194 -4.16278,-4.68489 0.41275,-0.29633 0.82197,-0.63852 1.28411,-0.85372 0.762,-0.004 1.55575,0.42333 2.19428,0.80786 1.49225,0.94545 2.82222,2.21897 3.97228,3.556 0.45155,0.57856 0.762,0.64559 1.43933,0.37747 l 0.21872,-0.0635 c 0.93487,1.00542 1.70745,2.06728 2.43417,3.22792 0.76906,-0.1023 1.54164,-0.21519 2.30364,-0.34925 l 0.18697,0.85372 c -1.1818,0.15875 -2.37419,0.20461 -3.556,0.37748 -1.9685,0.36336 -4.06047,-0.40217 -5.95841,-0.92428 0.007,0.39511 0.0106,0.79375 0.0176,1.19239 -0.66322,0.11641 -1.31233,0.17639 -1.98613,0.18697 0,-0.52564 0,-1.05128 0,-1.57692 -0.55739,1.0407 -1.19945,2.02495 -1.82739,3.01978 0.90664,-0.0459 1.78505,-0.14817 2.65994,-0.39864 1.49931,-0.4445 2.95981,-0.38453 4.50497,-0.3175 1.82386,0.10583 3.62303,1.31586 5.3587,1.9297 1.45697,0.50447 2.72697,1.35466 3.88408,2.36008 -0.32808,0.10936 -0.65617,0.22225 -0.98778,0.33514 -0.84314,-0.79728 -1.80269,-1.36172 -2.8575,-1.82739 -2.15547,-0.9772 -4.3568,-2.13783 -6.78391,-2.13078 -1.16417,0.004 -2.5647,-0.10583 -3.64067,0.39511 -1.4605,0.508 -2.29306,2.30011 -2.67053,3.69006 -0.007,1.77447 1.6757,3.31258 2.39536,4.90008 l -0.0176,0.48331 c -1.36172,-1.05128 -2.71991,-2.4765 -3.37961,-4.07811 -0.0282,-1.25942 0.14111,-2.51884 0.11995,-3.78178 -0.41628,0.32808 -0.82903,0.65969 -1.24884,0.98425 -0.55033,-0.13053 -1.18533,-0.45509 -1.73919,-0.21872 -1.58397,0.57855 -2.94569,1.45344 -4.65667,1.70744 -2.38125,0.35631 -4.81189,0.92075 -7.1755,0.51858 -2.50119,-0.33866 -4.70252,-1.21355 -7.04144,-2.08844 -0.4057,0.44803 -0.83256,0.87489 -1.27,1.29117 0.17992,0.0564 0.3563,0.11288 0.53269,0.16933 0.28575,1.84855 0.61031,3.7465 -0.85019,5.21405 0.0423,-1.41111 0.6985,-2.99508 0.16228,-4.30036 -0.54328,-1.25941 -1.32998,-2.3883 -1.81328,-3.67947 -0.86078,-0.067 -1.72156,-0.14817 -2.57175,-0.31044 -0.13758,-0.20814 -0.2787,-0.41275 -0.41981,-0.61736 -0.52564,-0.69498 -1.13241,-1.25237 -1.74625,-1.88737 -1.26294,0.35278 -2.52589,0.70909 -3.78883,1.05128 -0.90311,-0.14464 -1.78153,-0.36689 -2.67053,-0.55739 2.17311,0.33161 3.88409,-0.49389 5.90903,-1.1183 -1.00542,-1.22414 -2.01436,-2.09903 -3.37608,-2.91042 1.56633,-0.06 3.01625,0.06 4.51908,-0.42686 1.73567,-0.52564 3.1115,-1.62278 4.80483,-2.24719 1.67217,-0.64559 3.34081,-1.23473 4.93889,-2.0567 0.0176,1.19592 -0.0529,2.39183 0,3.5807 0.20109,2.51883 1.09009,5.12938 3.05506,6.81566 1.23472,1.17828 2.87514,1.88031 4.57905,1.9685 1.3582,0.14464 2.74814,-0.93133 3.80295,-1.68275 2.38478,-1.72155 3.7218,-4.68489 3.23144,-7.60589 -0.71261,-2.52236 -2.31775,-4.11339 -3.82764,-6.14186 z"
         inkscape:connector-curvature="0"
         style="fill:#34808e;stroke-width:0.35277778" />
      <path
         id="path1197"
         d="m -686.9156,365.1086 c 0.98425,-0.38453 1.85561,-0.0282 2.83986,0.15875 -0.2928,0.58914 -0.57855,1.19239 -0.91016,1.76036 -0.59267,1.02658 -1.65806,1.78858 -2.286,2.77636 0.36689,0.97719 0.83961,2.032 1.59102,2.77283 0.80081,0.0494 1.33703,-0.7373 1.92617,-1.19944 -0.24342,-0.56445 -0.59267,-1.143 -0.70555,-1.74978 0.25752,-0.50447 0.58913,-0.98072 0.89605,-1.45344 0.40217,0.43039 0.83608,0.85725 1.17828,1.33702 -0.55739,1.55928 -1.40053,2.99156 -1.87325,4.58964 0.62089,-0.23989 1.23472,-0.49741 1.85561,-0.74083 -0.0847,0.40217 -0.17286,0.80786 -0.26106,1.21356 -0.635,0.0635 -1.29116,0.0953 -1.90852,0.24341 -0.9772,0.31397 -1.95439,1.07597 -2.97745,1.26295 -1.57339,0.15169 -3.26319,-1.06186 -3.29494,-2.71639 0.0106,-1.00189 0.9525,-1.93675 1.34055,-2.83986 -0.0988,-0.94545 -0.75847,-1.80975 -0.9278,-2.7552 0.6103,-1.70039 2.00025,-2.05316 3.51719,-2.65994 z"
         inkscape:connector-curvature="0"
         style="fill:#37808e;stroke-width:0.35277778" />
      <path
         id="path1199"
         d="m -686.31588,366.26218 c -0.50094,0.74083 -1.00541,1.47814 -1.50988,2.21545 -0.28223,-0.60678 -0.58562,-1.21003 -0.86784,-1.82034 0.87842,-0.71614 1.31586,-0.60325 2.37772,-0.39511 z"
         inkscape:connector-curvature="0"
         style="fill:#f6ffff;stroke-width:0.35277778" />
      <path
         id="path1201"
         d="m -706.76993,368.18835 c 0.23283,0.23283 0.23283,0.23283 0,0 z"
         inkscape:connector-curvature="0"
         style="fill:#7f8e91;stroke-width:0.35277778" />
      <path
         id="path1203"
         d="m -666.04526,368.04724 c 2.15547,0.127 4.3568,0.9525 6.42408,1.59808 1.22767,0.35278 2.05669,1.15711 3.05153,1.91558 -1.12536,0.37748 -2.25778,0.81139 -3.41842,1.05128 -0.762,0.13406 -1.53458,0.24695 -2.30364,0.34925 -0.72672,-1.16064 -1.4993,-2.2225 -2.43417,-3.22792 -0.44802,-0.55738 -0.889,-1.1183 -1.31938,-1.68627 z"
         inkscape:connector-curvature="0"
         style="fill:#fcfffe;stroke-width:0.35277778" />
      <path
         id="path1205"
         d="m -664.9446,369.79701 c -0.67733,0.26812 -0.98778,0.20109 -1.43933,-0.37747 0.58914,-0.43744 0.9913,-0.007 1.43933,0.37747 z"
         inkscape:connector-curvature="0"
         style="fill:#96ccda;stroke-width:0.35277778" />
      <path
         id="path1207"
         d="m -644.14835,369.90285 c 2.01436,0.254 4.00403,0.65616 5.92314,1.32644 -0.21167,2.24367 -0.0529,4.45559 -0.59619,6.67103 -0.41275,1.83092 -0.62089,4.49439 -2.14842,5.77144 -1.43581,0.19403 -2.91394,-0.28222 -4.37797,-0.24694 -2.91747,-0.06 -5.55272,-1.23472 -7.73995,-3.12561 -2.10961,-1.85208 -4.14161,-3.75003 -6.49464,-5.29872 1.30881,-0.37748 2.64231,-0.75142 3.8982,-1.28411 1.27705,-0.55387 2.21192,-1.524 3.48544,-2.10256 1.61925,-0.75142 3.40784,-0.87136 5.12586,-1.29469 0.98778,-0.23284 1.89442,-0.56092 2.92453,-0.41628 z"
         inkscape:connector-curvature="0"
         style="fill:#337f91;stroke-width:0.35277778" />
      <path
         id="path1209"
         d="m -688.75004,372.07596 c 1.03716,-0.28575 1.40758,1.35114 1.74978,2.02142 -0.52917,-0.15875 -1.18887,-0.23989 -1.64042,-0.57856 -0.1517,-0.4445 -0.12347,-0.97367 -0.10936,-1.44286 z"
         inkscape:connector-curvature="0"
         style="fill:#f0ffff;stroke-width:0.35277778" />
      <path
         id="path1211"
         d="m -725.99279,372.7039 c 1.91558,0.27164 3.71828,0.45861 5.4998,1.27706 2.63173,1.16769 5.32695,1.79211 8.05745,2.69875 -2.6035,2.12019 -3.79942,5.34458 -6.48053,7.24958 -2.06728,1.26295 -4.77308,1.65806 -7.08025,2.35656 -1.46756,-1.55575 -2.57175,-3.2385 -3.47839,-5.17525 -1.12889,-2.13078 -2.06022,-4.27214 -2.56469,-6.64281 0.1023,-0.762 1.14652,-0.75141 1.72861,-0.98425 1.41111,-0.30339 2.90689,-1.06539 4.318,-0.77964 z"
         inkscape:connector-curvature="0"
         style="fill:#31798a;stroke-width:0.35277778" />
      <path
         id="path1213"
         d="m -716.5454,372.8556 c 1.778,1.17475 3.67241,1.40405 5.72205,1.72155 0.889,0.1905 1.76742,0.41275 2.67053,0.55739 -3.05858,0.9772 -6.77686,-0.47978 -9.59908,-1.68275 0.40216,-0.19755 0.80433,-0.39511 1.2065,-0.59619 z"
         inkscape:connector-curvature="0"
         style="fill:#789fa6;stroke-width:0.35277778" />
      <path
         id="path1215"
         d="m -702.61774,375.97063 c 0.14111,0.20461 0.28223,0.40922 0.41981,0.61736 -0.96308,-0.17286 -1.94028,-0.26459 -2.921,-0.22931 -1.90853,-0.0176 -3.86997,1.17475 -5.58447,1.95086 -1.22061,0.55034 -1.91206,1.53811 -2.6917,2.56822 2.40595,0.56092 4.80836,0.45862 7.26017,0.41628 1.22061,-0.0388 2.42005,-0.38453 3.62655,-0.63853 -0.62794,1.31587 -1.41463,2.52589 -2.17311,3.76414 -0.87841,1.34761 -0.85019,3.07623 -1.03364,4.62492 1.49931,-0.0776 2.77989,-0.54328 4.11692,-1.17828 1.53811,-0.62089 2.43064,-1.88736 3.60186,-2.98803 -0.53975,1.62631 -1.82739,2.44828 -3.15736,3.3902 -2.286,1.44286 -4.85775,1.77447 -7.47889,2.0708 -1.60866,0.10937 -2.92453,0.92428 -4.318,1.6757 -0.82903,0.51505 -1.72508,1.09361 -2.36008,1.84503 -0.59267,0.98072 -1.00895,1.96144 -1.92264,2.71286 0.21167,-2.37067 0.92428,-4.25097 2.29658,-6.19831 0.84314,-1.42875 1.79917,-2.63525 2.91042,-3.86291 -2.0955,0.70202 -4.12397,1.18533 -6.30061,1.56633 -2.36714,0.58914 -5.08353,0.73378 -7.33072,-0.34925 2.27541,-0.23989 4.94947,-0.15522 6.91444,-1.50989 2.26483,-1.68275 3.82411,-4.03931 5.44689,-6.26181 1.18886,-1.67922 3.26319,-2.44827 5.05531,-3.31611 1.61925,-0.93486 3.72886,-0.37747 5.62327,-0.67027 z"
         inkscape:connector-curvature="0"
         style="fill:#317889;stroke-width:0.35277778" />
      <path
         id="path1217"
         d="m -667.3329,375.69193 c 2.42711,-0.007 4.62844,1.15358 6.78391,2.13078 1.05481,0.46567 2.01436,1.03011 2.8575,1.82739 -1.3335,0.4445 -2.56469,0.93839 -3.99344,0.96661 -2.73403,0.13053 -5.19995,-0.49036 -7.83167,-1.08656 1.143,1.27706 2.55059,2.33186 3.69359,3.64067 1.26647,1.56986 2.06375,3.31964 2.93511,5.11528 -1.57339,-0.35631 -3.13267,-0.78317 -4.66373,-1.27706 -1.3335,-0.508 -2.46238,-1.59808 -3.69711,-2.33186 -0.71966,-1.5875 -2.40241,-3.12561 -2.39536,-4.90008 0.37747,-1.38995 1.21003,-3.18206 2.67053,-3.69006 1.07597,-0.50094 2.4765,-0.39158 3.64067,-0.39511 z"
         inkscape:connector-curvature="0"
         style="fill:#fefefe;stroke-width:0.35277778" />
      <path
         id="path1219"
         d="m -698.9171,377.34646 c 0.82197,0.23989 1.3335,0.51153 1.86972,1.18886 -1.08655,-0.13758 -1.37936,-0.14111 -1.86972,-1.18886 z"
         inkscape:connector-curvature="0"
         style="fill:#85bdc9;stroke-width:0.35277778" />
      <path
         id="path1221"
         d="m -675.77488,378.28485 c -0.50447,0.39158 -1.02305,0.75847 -1.57338,1.08303 -1.59456,0.0847 -3.03742,0.61736 -4.5332,1.11477 -0.23989,-0.42686 -0.55739,-0.59972 -0.95603,-0.52211 -0.58914,0.45861 0.39511,0.65617 0.73731,0.59267 -1.16064,0.0529 -2.27189,0.31044 -3.40078,0.54328 1.23472,0.13758 2.4377,0.27164 3.67595,0.067 -4.12045,0.35984 -7.69056,1.25942 -11.64873,-0.35983 0.29986,0.0282 1.25589,0.28928 1.26295,-0.2293 -0.35278,-0.67734 -1.25942,-0.39159 -1.70745,0.0388 -0.32102,-0.14464 -0.64205,-0.29633 -0.95955,-0.44803 0.35278,-0.007 0.55033,-0.127 0.58914,-0.35983 -0.2152,-0.58561 -0.94545,-0.25753 -1.36878,-0.14111 -0.49036,0 -0.98072,0 -1.46756,0 -0.17639,-0.0565 -0.35277,-0.11289 -0.53269,-0.16933 0.43744,-0.41628 0.8643,-0.84314 1.27,-1.29117 2.33892,0.87489 4.54025,1.74978 7.04144,2.08844 2.36361,0.40217 4.79425,-0.16227 7.1755,-0.51858 1.71098,-0.254 3.0727,-1.12889 4.65667,-1.70744 0.55386,-0.23637 1.18886,0.0882 1.73919,0.21872 z"
         inkscape:connector-curvature="0"
         style="fill:#99c4cc;stroke-width:0.35277778" />
      <path
         id="path1223"
         d="m -677.34826,379.36788 c -1.38289,0.83961 -2.89631,1.44286 -4.47675,1.79563 -1.23825,0.20462 -2.44123,0.0706 -3.67595,-0.067 1.12889,-0.23284 2.24014,-0.49036 3.40078,-0.54328 l 0.21872,-0.0706 c 1.49578,-0.49741 2.93864,-1.03011 4.5332,-1.11477 z"
         inkscape:connector-curvature="0"
         style="fill:#56828e;stroke-width:0.35277778" />
      <path
         id="path1225"
         d="m -694.28865,379.80532 c -0.0388,0.23283 -0.23636,0.35278 -0.58914,0.35983 -0.27517,-0.13758 -0.53622,-0.30339 -0.77964,-0.50094 0.42333,-0.11642 1.15358,-0.4445 1.36878,0.14111 z"
         inkscape:connector-curvature="0"
         style="fill:#648c91;stroke-width:0.35277778" />
      <path
         id="path1227"
         d="m -669.5166,379.53015 c 2.63172,0.5962 5.09764,1.21709 7.83167,1.08656 1.42875,-0.0282 2.65994,-0.52211 3.99344,-0.96661 0.33161,-0.11289 0.6597,-0.22578 0.98778,-0.33514 2.71992,2.14842 4.65667,4.63197 8.09625,5.70442 2.35656,0.59619 4.7872,0.29633 7.14022,1.01247 -2.62819,0.19403 -5.25991,0.26811 -7.88811,0.47625 -2.27541,0.21519 -4.27214,-0.53622 -6.50169,-0.71614 0.85372,1.143 1.73566,2.03553 2.91041,2.85044 1.50637,1.016 1.91912,2.56117 3.18559,3.88056 0.98778,1.02658 1.41816,2.1343 1.67569,3.51367 -0.81844,-1.1042 -1.37936,-2.25778 -2.54353,-3.02684 -1.68275,-1.18533 -3.54188,-2.7305 -5.58447,-3.175 -3.57364,-0.64205 -7.14375,-0.96661 -10.61508,-2.08491 -1.78506,-0.36337 -3.1115,-1.41112 -4.43795,-2.58939 l 0.0176,-0.48331 c 1.23473,0.73378 2.36361,1.82386 3.69711,2.33186 1.53106,0.49389 3.09034,0.92075 4.66373,1.27706 -0.87136,-1.79564 -1.66864,-3.54542 -2.93511,-5.11528 -1.143,-1.30881 -2.55059,-2.36361 -3.69359,-3.64067 z"
         inkscape:connector-curvature="0"
         style="fill:#317b8e;stroke-width:0.35277778" />
      <path
         id="path1229"
         d="m -692.21079,380.57438 c -0.007,0.51858 -0.96309,0.25752 -1.26295,0.2293 l -0.4445,-0.1905 c 0.44803,-0.43039 1.35467,-0.71614 1.70745,-0.0388 z"
         inkscape:connector-curvature="0"
         style="fill:#5d858b;stroke-width:0.35277778" />
      <path
         id="path1231"
         d="m -682.83749,379.96054 c 0.39864,-0.0776 0.71614,0.0953 0.95603,0.52211 l -0.21872,0.0706 c -0.3422,0.0635 -1.32645,-0.13406 -0.73731,-0.59267 z"
         inkscape:connector-curvature="0"
         style="fill:#e4fcfe;stroke-width:0.35277778" />
      <path
         id="path1233"
         d="m -690.34813,380.50029 c 0.21873,-0.40216 0.98073,-0.30691 0.87489,0.21872 -0.21872,0.38806 -0.97719,0.29987 -0.87489,-0.21872 z"
         inkscape:connector-curvature="0"
         style="fill:#e7ffff;stroke-width:0.35277778" />
      <path
         id="path1235"
         d="m -690.45396,381.21643 c 1.32997,-0.20814 2.2472,-0.22578 3.52425,0.22578 -1.31586,0.20814 -2.25778,0.2293 -3.52425,-0.22578 z"
         inkscape:connector-curvature="0"
         style="fill:#4d7b84;stroke-width:0.35277778" />
      <path
         id="path1237"
         d="m -679.28149,382.6981 c 1.98261,-0.0741 4.14514,0.55739 5.53156,2.04258 1.524,1.58397 3.36197,3.17853 4.36386,5.15761 1.2065,2.68817 0.71967,6.20536 1.68628,8.91822 0.71614,1.524 1.50989,3.12914 2.77989,4.2545 1.0548,1.05834 2.3883,1.30528 3.20675,2.59998 -2.59998,-0.94545 -4.96359,-2.61409 -7.14023,-4.29331 -1.49577,-1.13947 -2.667,-2.6035 -4.17688,-3.72886 0.56797,1.50283 1.22766,3.1115 1.38994,4.71664 0.0247,2.14136 -0.0988,4.24744 -0.67381,6.32178 -0.49388,-1.53459 -0.69144,-3.11503 -1.36877,-4.59317 -0.89606,-2.26836 -2.71286,-4.18042 -4.6602,-5.60211 -2.2225,-1.76389 -4.36033,-3.92642 -5.27403,-6.67808 -0.83961,-1.97909 -0.58913,-4.29684 0.10584,-6.28298 0.71614,-1.71097 2.40241,-2.74461 4.2298,-2.8328 z"
         inkscape:connector-curvature="0"
         style="fill:#32788a;stroke-width:0.35277778" />
      <path
         id="path1239"
         d="m -690.29168,383.26607 -0.0176,0.65264 c -1.07244,-0.0494 -2.35303,-0.32808 -3.31258,0.26458 -1.25942,0.73731 -2.5012,1.77095 -3.40784,2.91747 -0.8255,1.32292 -1.07244,2.87867 -2.06022,4.13809 0.20814,-1.89795 0.81492,-3.68653 2.16606,-5.07647 0.96308,-0.9772 2.02494,-2.14137 3.30552,-2.6917 1.03717,-0.32103 2.2472,-0.17992 3.3267,-0.20461 z"
         inkscape:connector-curvature="0"
         style="fill:#83a0a6;stroke-width:0.35277778" />
      <path
         id="path1241"
         d="m -689.91421,383.31899 c 1.17475,0.49389 2.22956,1.15358 2.95275,2.22602 0.77964,1.27 1.26647,2.74109 1.5875,4.18748 0.22931,1.62277 0.36336,3.53836 -0.52211,4.99533 -0.49742,0.88547 -0.93486,1.8415 -1.55575,2.64936 -0.83608,0.99836 -1.86619,1.96145 -2.56469,3.06917 -0.5962,1.2065 -0.8502,2.59997 -0.85373,3.937 0.0529,1.4605 0.48331,2.92453 0.762,4.3568 -1.34055,-1.52752 -2.15194,-3.33727 -2.79047,-5.24933 -0.58914,-1.71803 -0.2928,-3.47839 -0.77611,-5.22111 -1.27,1.54164 -2.07081,3.22439 -3.51014,4.56142 -1.36878,1.26647 -2.56117,2.54 -4.40972,3.03741 0.53622,-0.65264 1.11478,-1.26647 1.66158,-1.90853 1.40406,-1.64041 2.07081,-3.85586 1.64042,-5.99369 -0.43745,-2.30011 -0.82197,-4.55083 -0.56092,-6.90033 0.17286,0.91016 0.32103,1.82386 0.43392,2.74461 3.05153,-1.05834 5.51744,-3.25967 7.20372,-5.98311 0.54681,3.24555 1.36525,6.30061 3.46075,8.92175 0.72672,-0.93486 1.46403,-1.75331 1.7145,-2.9457 0.50447,-1.95791 0.1905,-3.96875 -0.32455,-5.89139 -0.67381,-1.97908 -2.2225,-3.1115 -3.54895,-4.59316 z"
         inkscape:connector-curvature="0"
         style="fill:#307285;stroke-width:0.35277778" />
      <path
         id="path1243"
         d="m -677.69046,383.38249 c 2.53647,0.57502 4.33917,2.35655 6.03603,4.21216 1.4993,1.57339 2.03905,3.56306 2.59644,5.60917 -1.11477,-0.32103 -2.18016,-0.5715 -3.18911,-1.16417 -2.18016,-1.31939 -4.27566,-2.67405 -5.93372,-4.64608 -0.0847,1.69686 0.23636,3.36903 0.15169,5.06236 0.004,1.53811 -0.8255,3.1362 -1.32291,4.58611 -1.1042,-0.94897 -2.11314,-1.86266 -2.77989,-3.18558 -1.00542,-2.02847 -1.651,-4.54025 -1.27,-6.79803 0.31397,-1.00542 1.11125,-2.44122 1.82739,-3.2138 1.15711,-0.74084 2.58233,-0.91723 3.88408,-0.46214 z"
         inkscape:connector-curvature="0"
         style="fill:#fefefe;stroke-width:0.35277778" />
      <path
         id="path1245"
         d="m -668.05257,388.91757 c 2.06728,0.4445 4.14867,1.22414 6.29708,1.48872 1.12184,0.17992 2.28953,0.22578 3.39373,0.508 1.60513,0.5327 3.14325,1.55928 4.62844,2.36714 1.68628,0.762 2.81517,2.71992 3.98286,4.10281 -2.84339,3.11855 -6.26886,4.88597 -9.80369,7.0485 -2.04611,-1.15359 -3.65831,-2.59292 -5.11881,-4.42384 -1.016,-1.60161 -1.73919,-3.35139 -2.18369,-5.19289 -0.19403,-1.04069 -0.14111,-2.17311 -0.42686,-3.18205 -0.254,-0.91017 -0.57503,-1.78858 -0.76906,-2.71639 z"
         inkscape:connector-curvature="0"
         style="fill:#327389;stroke-width:0.35277778" />
      <path
         id="path1247"
         d="m -700.62101,389.95121 c -0.0882,2.1978 0.11288,4.29683 0.52211,6.4523 0.41627,3.29142 -0.79728,6.11012 -3.37961,8.17034 -4.20159,-1.30175 -8.07862,-4.1275 -11.66284,-6.62164 0.72672,-1.29117 1.28764,-2.58233 2.42006,-3.60186 1.59103,-1.74978 3.99697,-2.19428 6.22653,-2.58586 2.09197,-0.25753 3.92288,-1.07598 5.87375,-1.81328 z"
         inkscape:connector-curvature="0"
         style="fill:#2f7084;stroke-width:0.35277778" />
      <path
         id="path1249"
         d="m -499.00146,394.21629 c 2.09903,0.22578 4.16278,0.51153 6.26181,0.66675 7.28486,0.51153 14.56972,1.00895 21.84753,1.57339 23.19866,1.83445 46.40791,3.51014 69.63127,5.01297 5.85259,0.32809 11.69106,0.87489 17.54012,1.29117 1.47813,0.0882 2.88219,0.0988 4.30036,0.60678 l -0.64559,0.10936 c -0.40216,0.72672 0.59973,0.8008 0.79375,0.15875 -0.13758,0.37747 -0.16227,0.61383 -0.58561,0.75494 -1.16064,0.508 -2.36714,0.88548 -3.49955,1.4605 -18.19628,8.78417 -36.05036,18.34092 -54.1902,27.31206 -10.05064,4.97417 -20.05542,10.05064 -30.08136,15.07772 -8.45961,4.2792 -16.99683,8.4067 -25.48819,12.62239 -0.88195,0.41628 -1.778,0.77964 -2.68112,1.14653 -0.35277,-2.9845 -0.34219,-5.96547 -0.4445,-8.96056 0.13406,1.45697 0.2787,2.91395 0.39159,4.37445 1.40053,-0.70203 2.69169,-1.4852 3.96875,-2.39184 3.45016,-2.24366 7.04497,-4.31447 10.64683,-6.30414 4.13456,-2.29305 8.14917,-4.79425 12.26256,-7.12258 7.36952,-4.05342 14.70377,-8.13858 22.16503,-12.04383 1.16416,-0.64206 2.77636,-1.38642 3.38666,-2.63172 0.7232,-1.34056 0.19403,-3.23145 -1.22061,-3.85939 -1.59808,-0.45509 -3.34081,-0.34925 -4.97769,-0.66323 -7.5177,-1.38641 -15.07773,-2.25072 -22.67303,-3.06563 -5.9937,-0.69498 -11.95211,-1.59809 -17.96345,-2.14489 -2.4518,-0.28223 -4.8895,-0.49036 -7.36247,-0.40217 -0.0529,0.73731 -0.10936,1.4605 -0.13053,2.19781 -0.36689,-8.26206 -0.8643,-16.51706 -1.25236,-24.77559 z"
         inkscape:connector-curvature="0"
         style="fill:#343233;stroke-width:0.35277778" />
      <path
         id="path1251"
         d="m -684.17099,394.91126 c 1.24531,0.58562 1.9685,1.99673 3.06211,2.84692 1.83092,1.52753 3.47487,3.12914 4.63903,5.24228 0.99836,1.94733 1.22061,4.01461 1.21356,6.17361 -1.61572,0.007 -3.21734,-0.007 -4.81895,0.24342 -1.91205,0.27869 -3.67947,-0.27517 -5.61975,-0.21873 -1.05127,-0.0247 -2.01789,0.0176 -2.50119,-1.09361 -0.51858,-1.90147 -0.83961,-3.76766 -0.17639,-5.68325 0.69144,-2.38125 2.56117,-3.69358 3.52778,-5.89491 0.23989,-0.5327 0.43391,-1.08303 0.6738,-1.61573 z"
         inkscape:connector-curvature="0"
         style="fill:#327085;stroke-width:0.35277778" />
      <path
         id="path1253"
         d="m -380.06596,403.47671 0.64559,-0.10936 0.14816,0.26811 c -0.19402,0.64205 -1.19591,0.56797 -0.79375,-0.15875 z"
         inkscape:connector-curvature="0"
         style="fill:#ada9a8;stroke-width:0.35277778" />
      <path
         id="path1255"
         d="m -378.12215,407.66771 c 0.0494,1.28411 0.17992,2.71992 -0.1905,3.96169 -0.70556,0.71967 -1.81681,1.10067 -2.72345,1.50636 -2.29658,0.92781 -4.39208,2.15195 -6.59341,3.26673 -20.69042,10.61155 -41.25384,21.47358 -61.76081,32.43791 -13.47611,7.23195 -27.04394,14.30867 -40.4883,21.59706 -1.51695,0.76905 -2.99509,1.91558 -4.6355,2.36714 -0.78317,0.27164 -0.87842,-0.82903 -0.99837,-1.33703 -0.16933,-1.53811 -0.34572,-3.26319 0.0776,-4.76603 0.99483,-0.82197 2.29658,-1.31586 3.43605,-1.91205 12.48128,-6.34295 24.92022,-12.76703 37.47558,-18.96534 9.58145,-4.74486 19.10998,-9.59555 28.68437,-14.35805 14.05466,-6.99206 28.2575,-13.78303 42.19927,-20.955 1.83092,-0.94192 3.64067,-2.03553 5.51745,-2.84339 z"
         inkscape:connector-curvature="0"
         style="fill:#343233;stroke-width:0.35277778" />
      <path
         id="path1257"
         d="m -497.61857,416.79407 c 2.47297,-0.0882 4.91067,0.11994 7.36247,0.40217 6.01134,0.5468 11.96975,1.44991 17.96345,2.14489 7.5953,0.81491 15.15533,1.67922 22.67303,3.06563 1.63688,0.31398 3.37961,0.20814 4.97769,0.66323 1.41464,0.62794 1.94381,2.51883 1.22061,3.85939 -0.6103,1.2453 -2.2225,1.98966 -3.38666,2.63172 -7.46126,3.90525 -14.79551,7.99041 -22.16503,12.04383 -4.11339,2.32833 -8.128,4.82953 -12.26256,7.12258 -3.60186,1.98967 -7.19667,4.06048 -10.64683,6.30414 -1.27706,0.90664 -2.56822,1.68981 -3.96875,2.39184 -0.11289,-1.4605 -0.25753,-2.91748 -0.39159,-4.37445 -0.0247,-0.71614 -0.14463,-1.54164 0.0741,-2.23308 1.21003,-0.9772 2.794,-1.53458 4.16983,-2.25425 11.03136,-5.50686 22.14739,-10.83028 33.29517,-16.10078 3.28436,-1.53458 6.30766,-3.65478 9.39447,-5.55272 -0.61736,-0.52917 -1.27706,-1.28411 -2.11667,-1.38642 -1.397,-0.24694 -2.84691,-0.27164 -4.26155,-0.37394 -11.53936,-0.82903 -23.06109,-1.89089 -34.57222,-3.048 -2.43417,-0.24342 -4.86834,-0.43745 -7.29192,-0.7867 -0.0741,-0.77611 -0.15522,-1.54164 -0.19756,-2.32127 0.0212,-0.73731 0.0776,-1.4605 0.13053,-2.19781 z"
         inkscape:connector-curvature="0"
         style="fill:#4c4c4c;stroke-width:0.35277778" />
      <path
         id="path1259"
         d="m -497.51626,423.28165 c 1.74977,-0.0635 3.53483,0.26811 5.27755,0.43745 9.92364,1.06891 19.84728,2.14136 29.74622,3.43958 2.08139,0.24695 4.15573,0.48331 6.20889,0.93133 -1.78505,1.12889 -3.67241,2.04964 -5.54566,3.01273 -9.76842,5.09411 -19.57917,10.11061 -29.45342,15.00364 -1.7145,0.88547 -3.429,1.76036 -5.22464,2.48002 -0.0282,-1.01247 -0.14817,-2.09197 0.0423,-3.09386 0.3175,-0.63147 1.24884,-0.98778 1.84503,-1.31586 2.7305,-1.23119 5.36222,-2.65289 8.07156,-3.92289 2.17664,-1.13594 4.46616,-1.99672 6.58636,-3.24203 -1.7145,-0.21166 -3.55953,-0.62441 -5.28461,-0.4198 -1.64042,0.49389 -3.09386,1.68275 -4.61434,2.47297 -2.32833,1.22767 -4.50144,2.76931 -6.95325,3.5172 0.30339,-0.75142 0.55387,-1.36173 1.29823,-1.77095 2.44827,-1.53458 4.98827,-2.8963 7.3413,-4.58258 -2.88925,-0.53975 -5.82083,-0.74084 -8.71714,-1.23825 -0.26811,-1.96497 -0.3563,-3.91936 -0.33514,-5.89845 1.68628,0.10936 3.35492,0.32809 5.02356,0.57856 0.74789,0.06 1.60161,0.26105 2.22956,-0.26458 1.00894,-0.74437 1.91911,-1.6122 2.921,-2.36362 -3.41489,-0.74083 -6.7945,-1.11477 -10.287,-1.18533 -0.0776,-0.85372 -0.17992,-1.72155 -0.17639,-2.57528 z"
         inkscape:connector-curvature="0"
         style="fill:#343233;stroke-width:0.35277778" />
      <path
         id="path1261"
         d="m -484.86212,427.09165 c 1.00894,-0.16933 2.12372,0.0459 3.13266,0.16934 1.85561,0.28222 3.71828,0.42333 5.588,0.5468 -1.29469,1.00895 -2.53647,2.18722 -3.96169,3.00214 -0.69145,0.39864 -1.37936,0.27517 -2.13078,0.2152 -1.85914,-0.22931 -3.71122,-0.55034 -5.55978,-0.8502 0.86078,-1.04069 1.73214,-2.42358 2.93159,-3.08328 z"
         inkscape:connector-curvature="0"
         style="fill:#040000;stroke-width:0.35277778" />
      <path
         id="path1263"
         d="m -471.91165,428.07238 c 1.53458,0.17286 3.07269,0.21519 4.60728,0.36336 0.79727,0.0388 1.26647,0.52211 1.8803,0.95602 -1.19944,0.76553 -2.39183,1.54517 -3.59833,2.30364 -0.74789,0.44098 -1.40053,0.88548 -2.31422,0.762 -2.07787,-0.20108 -4.13809,-0.58914 -6.19831,-0.91369 1.07597,-1.09714 2.13783,-2.3495 3.41489,-3.21381 0.62442,-0.47977 1.47814,-0.27869 2.20839,-0.25752 z"
         inkscape:connector-curvature="0"
         style="fill:#040000;stroke-width:0.35277778" />
      <path
         id="path1265"
         d="m -489.13074,431.61074 c 2.19781,-0.18345 4.51203,0.3563 6.67809,0.71261 -1.12889,0.90311 -2.36361,2.0955 -3.76414,2.53294 -1.66158,0.33161 -3.59481,-0.28928 -5.23522,-0.635 0.63852,-0.82903 1.31233,-2.21897 2.32127,-2.61055 z"
         inkscape:connector-curvature="0"
         style="fill:#040000;stroke-width:0.35277778" />
      <path
         id="path1267"
         d="m -488.35462,476.97796 c -1.05481,0.92428 -2.14137,1.85914 -3.41842,2.46239 -1.016,0.48683 -2.32128,0.51505 -3.429,0.61736 2.25072,-1.2312 4.30389,-2.52589 6.84742,-3.07975 z"
         inkscape:connector-curvature="0"
         style="fill:#353334;stroke-width:0.35277778" />
    </g>
  </g>
</svg>
