<?xml version="1.0" encoding="UTF-8" standalone="no"?>
<!-- Created with Inkscape (http://www.inkscape.org/) -->

<svg
   xmlns:dc="http://purl.org/dc/elements/1.1/"
   xmlns:cc="http://creativecommons.org/ns#"
   xmlns:rdf="http://www.w3.org/1999/02/22-rdf-syntax-ns#"
   xmlns:svg="http://www.w3.org/2000/svg"
   xmlns="http://www.w3.org/2000/svg"
   xmlns:sodipodi="http://sodipodi.sourceforge.net/DTD/sodipodi-0.dtd"
   xmlns:inkscape="http://www.inkscape.org/namespaces/inkscape"
   width="307.31033mm"
   height="418.50162mm"
   viewBox="0 0 307.31033 418.50162"
   version="1.1"
   id="svg4697"
   inkscape:version="0.92.4 (5da689c313, 2019-01-14)"
   sodipodi:docname="mic-2.svg">
  <defs
     id="defs4691" />
  <sodipodi:namedview
     id="base"
     pagecolor="#ffffff"
     bordercolor="#666666"
     borderopacity="1.0"
     inkscape:pageopacity="0.0"
     inkscape:pageshadow="2"
     inkscape:zoom="0.7"
     inkscape:cx="395.94583"
     inkscape:cy="747.97139"
     inkscape:document-units="mm"
     inkscape:current-layer="layer1"
     showgrid="false"
     fit-margin-top="0"
     fit-margin-left="0"
     fit-margin-right="0"
     fit-margin-bottom="0"
     inkscape:window-width="3840"
     inkscape:window-height="2056"
     inkscape:window-x="-8"
     inkscape:window-y="-8"
     inkscape:window-maximized="1" />
  <metadata
     id="metadata4694">
    <rdf:RDF>
      <cc:Work
         rdf:about="">
        <dc:format>image/svg+xml</dc:format>
        <dc:type
           rdf:resource="http://purl.org/dc/dcmitype/StillImage" />
        <dc:title></dc:title>
      </cc:Work>
    </rdf:RDF>
  </metadata>
  <g
     inkscape:label="Layer 1"
     inkscape:groupmode="layer"
     id="layer1"
     transform="translate(-203.91031,347.67937)">
    <g
       id="g3968"
       transform="translate(-657.86727,-203.52692)">
      <path
         id="path1013"
         transform="scale(0.26458333)"
         d="m 3400.2598,-544.82031 c -2.6554,0.0423 -5.2966,0.25535 -7.8985,0.66015 -24.146,7.3466 -47.2653,17.33396 -67.7715,32.24024 -11.76,8.20002 -22.1873,18.89328 -32.0273,29.30664 -12.9467,14.82667 -26.6136,32.24008 -32.9336,51.08008 -1.8933,7.53335 -4.0397,16.69314 -0.9863,24.14648 3.3866,8.90668 5.7343,18.18647 8.9609,27.14649 9.64,25.50663 22.2517,49.45453 36.625,72.58789 14.1467,22.83998 30.4547,44.87965 49.0547,64.29296 21.28,21.82666 45.6666,39.58608 74.9199,49.05274 12.68,3.96 26.3057,6.9996 39.6524,6.59961 5.84,0.0933 9.3216,-3.89196 14.6816,-4.94531 4.4267,1.06665 8.5322,3.9989 12.4922,6.18554 9.52,5.42669 17.9599,12.17407 26.9199,18.41407 4.24,2.86665 7.9876,6.34617 10.961,10.51953 -2.0934,6.82666 -3.5065,13.17397 -1.7598,20.33398 0.8133,2.58667 2.5332,4.34675 4.5332,6.08008 4.5866,3.94666 7.8799,8.90613 12.2266,13.13281 5.16,5.09333 9.799,10.64058 14.7324,15.94727 26.3466,27.039985 50.8661,56.025214 74.8262,85.171872 3.6266,4.680001 8.708,7.0141966 11.748,12.1875005 4.2933,7.32 9.8135,13.5872001 15.4668,19.8671875 2.68,8.946671 1.3332,19.052573 0.5332,28.199219 -0.6535,6.946658 -0.5211,13.893515 -0.1211,20.853515 4.36,0.6 9.0129,0.800131 13.2129,2.160157 1.2001,3.853304 0.8945,8.359349 0.9746,12.359375 -0.1067,9.999987 0.747,19.94724 0.7734,29.947264 0.027,4.8 0.3325,9.57358 1.5059,14.24024 2.1733,8.78668 3.107,16.95897 6.707,25.26562 3.8267,8.74666 6.1331,18.42766 11.0664,26.34766 1.7867,3 3.9595,5.90642 5.4395,9.0664 1.2933,2.67999 0.8263,6.13368 0.6797,9.01367 -0.96,10.22665 -1.1064,20.49244 -1.9863,30.73243 -0.9067,22.61336 -3.1988,45.30692 -2.7188,67.93359 -4.2133,1.16001 -8.4141,2.20096 -12.8008,2.42774 -17,0.99998 -34.0274,-0.39977 -50.7207,-3.75977 -4.1067,-0.89333 -8.5466,-1.76002 -12.3066,-3.69336 -3,-1.64001 -3.7855,-6.68028 -5.1055,-9.62695 10.4134,1.09334 20.6669,2.69242 30.9336,4.73242 13.8533,1.81326 27.999,2.0662 41.959,1.51953 3.7066,-13.14667 3.6928,-25.94619 4.2129,-39.51953 0.16,-12.92001 1.1864,-25.74637 0.4531,-38.67969 -0.6533,-9.48 0.4149,-18.5329 -2.3984,-27.21289 -1.9867,-6.20001 -3.7343,-12.74652 -6.5743,-18.5332 -3.1866,-6.44002 -5.7469,-13.13358 -8.0136,-19.9336 -2.8,-8.58667 -3.3203,-18.02598 -5.2403,-26.97265 -1.4267,-6.45336 -1.7066,-12.948133 -2.08,-19.521487 -2.1867,3.96 -4.5332,7.867597 -6.4532,11.960937 -1.6533,5.79999 -2.4651,11.77254 -4.3984,17.50586 -3.5333,11.00001 -3.3209,22.74661 -6.2676,33.61328 -3.0532,9.73334 -0.4659,19.65464 -2.8926,29.66797 -3.0933,1.82668 -6.4934,2.3718 -7.7734,6.0918 -6.6,12.89333 -5.7601,25.72115 -8.4668,39.50781 -2.9467,11.08002 -2.8672,23.05203 -4.8672,34.33203 -0.7066,2.79999 -3.0657,3.49505 -5.3457,4.76172 -2.2533,-5.57333 -4.1467,-11.1485 -4.3867,-17.22852 -0.2267,-8.26665 -0.4667,-16.1717 1.3066,-24.31836 1.8133,-7.57334 0.679,-14.69304 1.5723,-22.37304 1.1067,-8.98666 0.8265,-19.78671 4.1465,-28.38672 2.16,-5.17334 6.1598,-7.74781 11.1465,-9.81445 0.6,-4.30666 1.0005,-8.41263 2.2539,-12.58594 3.8,-13.3067 2.8799,-28.38799 7.6133,-41.36133 1.9866,-6.97334 2.9599,-13.82552 6,-20.492188 2.4133,-5.799987 4.1739,-11.013016 9.6406,-14.679687 2.3066,-0.706658 4.8258,-0.893765 7.1992,-1.173828 l 0.2813,-4.439453 c -6.7867,-0.106696 -13.561,-0.40002 -20.3477,-0.773438 -4.5866,23.413304 -11.2527,46.119124 -19.666,68.425784 -1.7734,4.62667 -4.0412,9.01359 -6.5879,13.24023 -4.44,7.58669 -9.2796,15.01369 -13.5195,22.70703 -1.2534,2.02666 -1.3598,4.22656 -1.4532,6.53321 -0.1886,7.05335 0.2262,14.14553 -0.1738,21.18554 -0.9333,12.50669 -1.3723,25.1073 -1.6523,37.64063 -0.9732,12.39999 -0.8405,24.89364 -0.7071,37.32031 -0.12,3.09332 1.8007,4.78625 3.334,7.21289 2.04,2.97336 3.4927,6.09338 6.3594,8.38672 4.4266,3.6133 10.8259,5.13376 16.1992,6.78711 -0.16,8.10663 -1.2802,16.13426 -1.3203,24.26758 -0.5999,13.8 0.2401,27.5333 -0.9199,41.30664 -0.2934,30.25332 -0.6518,60.44002 -0.7051,90.69336 -1.4401,19.92 -1.0534,40.02667 -1.3066,60 -1.4266,19.02667 -1.0144,38.25166 -1.2676,57.31836 0.1333,6.70666 -0.9875,13.29496 -0.8809,19.98828 -0.2531,27.12004 -0.5728,54.23904 -0.5195,81.3457 0.1867,6.97334 -1.0395,13.83949 -1.4395,20.82617 -2.6533,0.0934 -5.4007,-0.12036 -8.0273,0.29297 -3.1067,1.73333 -6.2266,3.88019 -8.6133,6.54688 -1.84,4.75997 -1.9592,10.33337 -2.5059,15.38672 -0.3866,20.69332 -1.4538,41.29462 -1.8671,61.97461 -0.013,4.38667 0.2409,8.75948 0.5078,13.13281 4.7866,0.62668 10.6664,-0.13426 14.0664,4.03906 6.7466,7.50667 8.0122,16.94764 6.4922,26.6543 -2.48,-5.68003 -3.9861,-11.72008 -6.4395,-17.38672 -1.1066,-1.92 -3.3461,-5.64002 -5.7461,-5.77344 -5.12,1.94665 -9.4676,6.62672 -13.6543,10.08008 -12.7066,10.86667 -25.6925,21.44083 -38.5058,32.1875 -32.4667,26.57333 -63.6533,54.55909 -95.6133,81.73242 -11.6133,9.70666 -23.6,19.04033 -35,29.01367 -4.9467,4.26664 -8.3615,9.55899 -11.9082,14.95899 2.7866,3.28002 5.7867,6.4135 8.3867,9.85351 1.1467,1.76002 2.5214,2.98725 1.8281,5.25391 -1.92,3.42667 -6.2802,2.46585 -8.9336,0.50586 -8.7866,-6.66667 -11.854,-18.59903 -7.0273,-28.65235 -5.1867,0.04 -8.8256,2.78571 -13.5723,4.34571 -4.7067,1.73333 -8.7474,4.21361 -13.1074,6.62695 -8.0533,4.63998 -16.1468,8.64096 -23.0801,14.96094 1.72,7.24002 0.4535,14.17189 3.5469,21.17192 4.5733,12.7866 18.226,21.1348 31.666,19.5214 4.3067,-0.44 7.9477,-2.76 10.7344,-6 6.52,-7.68 13.3468,-15.1199 20.0801,-22.61324 4.3466,-4.86667 7.172,-10.44063 12.0254,-14.64063 54.6266,-47.25332 110.1605,-93.1874 163.9472,-141.41406 2.7867,-2.53334 5.4661,-5.50585 8.666,-7.50586 2.8667,-0.63999 6.2001,0.20028 9.0801,0.62695 7.7067,1.23999 15.5082,2.89365 23.2949,3.24024 -1.88,24.14664 -3.4147,48.24023 -6.8281,72.24023 -1.9066,0.91998 -5.1854,1.41194 -6.0254,3.55859 -3.7733,8.04 -0.7334,15.87977 -3.7734,24.06641 -1.1999,5.82667 -4.2663,14.6144 -0.2129,19.73438 2.1866,3.52002 6.8667,4.57273 10.6934,5.05273 7.3866,0.63999 14.9048,0.10727 22.1582,-1.35937 2.28,-0.45336 4.3603,-1.38605 5.707,-3.35938 2.8133,-13.92 2.3338,-27.96092 0.4805,-41.96094 -0.7734,-2.62666 -4.3732,-4.41229 -6.4532,-5.95898 0.1333,-4.14667 0.119,-8.1749 0.5723,-12.29492 0.9867,-8.10667 0.3873,-16.23871 1.6406,-24.33203 0.8133,-11.65335 2.2002,-23.16085 2.2403,-34.88086 7.5866,-0.72 15.133,-1.53355 22.6796,-2.54688 50.76,46.71999 102.0668,93.00098 152.92,139.6543 4.1068,3.63999 5.186,9.47926 7.5996,13.89258 6.1334,7.30669 13.5208,12.97284 20.6543,19.21284 8.0402,7.1067 16.6265,15.9872 28.1465,16.0938 9.6136,-1.0133 18.8271,-3.7456 25.707,-10.8789 3.9598,-3.3733 5.8133,-7.8937 7.3867,-12.70704 0.6134,-2.54665 -0.7338,-4.30716 -2.2539,-6.17383 -12.6266,-13.71999 -26.2936,-26.34665 -41.4004,-37.30664 -2.1199,-1.48002 -4.4256,-3.08062 -6.8789,-3.94727 -3.8933,-1.21334 -9.1335,0.73471 -12.2402,-2.25195 -54.68,-46.50667 -107.2271,-91.81487 -161.7871,-138.21484 -0.8667,-1.92 -1.587,-3.89224 -2.3204,-5.87891 -4.9466,1.95999 -10.3325,3.63981 -14.1992,7.45313 -3.6133,3.45335 -5.5072,7.72048 -8.5605,11.48047 -1.44,2.01316 -3.6269,1.90588 -5.8535,2.27929 -7.5467,0.61342 -15.2005,0.0663 -22.7871,0.13281 -6.8267,-0.13334 -14.8652,-0.36013 -21.0918,-3.46679 -4.0934,-2.42669 -2.4803,-8.21232 1.373,-9.95899 5.2133,-2.2134 11.6793,-2.0807 17.2793,-2.41406 -1.76,-2.02666 -3.8267,-4.09381 -5.0801,-6.48047 -1.3467,-2.98666 -0.052,-6.55997 2.668,-8.30664 4.28,-2.88 9.6001,-4.46639 14.3867,-6.37305 -6.2266,-0.73334 -12.9478,-1.25263 -18.8945,-3.27929 -3.84,-1.32 -6.6007,-3.77433 -9.6406,-6.34766 7.3333,0.8267 14.2269,2.42853 21.6269,2.61524 4.9867,0.24 10.2398,-0.13449 15.1465,0.79882 1.4934,2.84002 2.2548,6.60034 1.2148,9.70704 -1.4,3.03998 -4.4401,5.4795 -6.7734,7.82617 2.1333,2.14666 4.7319,4.31964 6.1719,6.98633 -0.067,2.86665 -0.9594,5.81454 -1.666,8.58789 3.4266,-0.1733 6.8526,-0.30648 10.2793,-0.45313 3.12,-7.10664 6.7069,-13.40158 13.9336,-16.98828 3.48,-1.99997 7.854,0.18708 11.414,1.09375 1.8401,-19.30666 1.453,-38.58566 1.5195,-57.95898 -0.067,-10.35999 -1.8931,-20.54693 -1.7597,-30.9336 -0.5734,-1.98667 -0.9324,-3.82712 -2.7324,-5.09375 -5.24,-4.08004 -11.2667,-5.93321 -17.6133,-7.5332 -1.4802,-9.27999 -0.1587,-18.27927 -0.1739,-27.58594 0.2,-12.28002 0.079,-24.57353 0.2657,-36.85351 0.6398,-10.22669 0.3075,-20.42799 0.4277,-30.66797 0.56,-64.44 -0.1472,-128.90571 0.7461,-193.34571 0.9734,-12.44001 0.4794,-24.85364 0.5996,-37.32031 0.1733,-22.38665 0.2805,-44.78716 0.5606,-67.17383 5.3333,-0.18667 12.6399,-0.5862 16.9199,-4.21289 2,-2.57333 4.413,-7.30681 5.2929,-10.46679 1.1335,-9.93336 -0.4806,-20.14679 1.0528,-30.16016 0.7467,-9.06663 -0.1063,-18.25235 1.0937,-27.3457 1.2667,-7.90666 0.7606,-15.33305 0.8672,-23.37305 0.2,-8.92003 -1.4807,-17.65423 -1.6406,-26.57422 -0.1067,-3.84 -2.2788,-6.38731 -4.4121,-9.33398 -5.8267,-7.35999 -9.1467,-17.14645 -13,-25.75977 -1.2134,-3.16002 -3.1616,-6.70581 -3.1465,-10.11914 0.64,-5.88 1.5717,-11.7745 3.0117,-17.50781 2.1467,-10.22669 1.2934,-20.31894 2.6934,-30.572268 1.08,-9.466696 -1.1068,-18.586406 -0.4668,-28.066406 0.8668,-10.653317 0.8533,-21.307951 1.0801,-31.97461 34.8933,40.173355 69.3205,80.720754 103.9472,121.107424 4.9467,-0.58666 9.3603,-1.69381 14.0137,-3.48047 4.3865,-1.73333 9.2528,-2.14544 13.5059,-4.10547 4.5868,-2.37332 8.6931,-6.32164 12.6132,-9.68164 8.0002,8.6533 13.0146,18.86661 21.8946,26.61328 3.6268,3.12 7.0519,6.6152 11.0254,9.22852 0.1999,7.24002 4.4947,11.69203 7.1211,18.02539 5.4667,12.77333 7.1732,25.92123 8.5996,39.58789 2.44,40.42666 -2.5864,78.37176 -6.8399,118.39844 -4.1465,37.32 -8.3727,74.81331 -10.5058,112.30664 -1.067,8.30664 -0.7345,16.82722 -1.1211,25.2539 -1.0953,14.13332 -1.3478,28.58706 -0.2676,42.70703 1.5197,47.16 10.0656,95.25372 29.7324,138.40039 13.1199,29.26666 31.4528,56.26628 53.4395,79.59961 32.2401,34.13333 72.948,60.79948 113.8281,83.43946 40.6133,22.54669 82.4268,41.5607 124.8535,61.7207 40.1201,18.74665 88.2487,35.73925 126.8887,57.39258 29.9889,19.67848 80.8203,17.12483 65.8359,90.33012 h 19.6699 c 3.0935,-7.8084 1.84,-20.1088 2.4063,-22.375 -7.6415,-4.44 -0.6277,-36.42783 -7.8145,-41.50786 -22.9731,-16.37333 -48.4942,-29.82717 -73.8144,-42.17382 -27.5467,-13.30666 -55.5191,-25.77404 -83.666,-37.72071 -55.6131,-24.18667 -111.0532,-47.67902 -165.5332,-74.3457 -35.627,-17.01332 -72.4145,-36.71942 -100.668,-64.74609 -3.5199,-3.53333 -7.2779,-7.14793 -10.0781,-11.28125 -1.8278,-2.45333 -1.6138,-6.05333 -2.0137,-9 9.1465,3.92001 14.5472,10.84067 22.0137,17.02734 20.6668,17.88 43.3597,33.08078 67.5332,45.80078 41.6266,22.26667 85.9718,40.93165 129.1718,59.93164 3.6669,1.54666 7.495,2.21452 11.375,2.89453 -37.7865,-17.42668 -75.4417,-35.34777 -112.0683,-55.12109 -33.32,-18.53337 -66.8267,-39.42603 -94.9199,-65.35938 -5.7067,-4.92 -10.945,-10.29359 -15.9317,-15.93359 -27.8933,-29.47997 -48.3614,-66.22692 -60.2812,-104.93359 -13.92,-46.59999 -17.052,-96.99971 -15.0254,-145.37305 1.24,-10.22665 0.3194,-20.45337 1.666,-30.69336 2.5999,-47.54668 8.2534,-95.01287 12,-142.51953 1.9465,-27.12 3.4671,-54.72018 0.4004,-81.85352 -1.6131,-13.17331 -4.1867,-27.41406 -10.0801,-39.41406 -2.8532,-5.97332 -7.0414,-10.90524 -11.668,-15.55859 2.0667,-2.52 4.2267,-4.94696 6.4668,-7.32032 -2.4,-9.6 -8.332,-16.62723 -14.2519,-24.2539 -5.8534,-6.9467 -12.5476,-13.62664 -17.4141,-21.30664 2.5867,-6.08002 6.6391,-11.853218 10.0528,-17.533206 3.973,-4.773316 5.2146,-9.186376 5.2675,-15.373046 0.2536,-2.640001 -1.1611,-4.401039 -2.5879,-6.427735 C 3852,38.852807 3827.0415,7.3471749 3802.0547,-24.132812 c -3.0799,-3.920013 -6.1213,-8.185981 -10.0547,-11.279297 -1.7068,-1.386671 -3.3194,-2.866611 -4.666,-4.613282 -10.4135,-13.666658 -19.7874,-28.026628 -30.7207,-41.30664 -13.1467,-16.666659 -26.5866,-33.120249 -39.5332,-49.933589 1.84,-3.82666 4.2532,-7.01416 3.2265,-11.49415 -2.6666,-8.41334 -7.4797,-14.81244 -12.1464,-22.11914 -5.4133,-8.11997 -11.9195,-15.68116 -18.1329,-23.20117 -16.8933,-20.49331 -32.7731,-41.74558 -50.4531,-61.57226 -9.24,-10.25333 -17.3999,-20.3471 -28.2265,-29.09375 -3.6801,-3.08002 -7.9212,-3.8268 -8.1211,-9.4668 3.2,-3.89333 6.7338,-6.59966 8.1738,-11.67969 2.8933,-9.43997 -0.6672,-20.90767 -3.5606,-30.04101 -8.4799,-24.42667 -18.892,-48.37211 -31.9453,-70.71875 -33.7866,-57.09336 -84.0546,-104.58755 -142.0547,-136.57422 -10.2699,-4.73417 -22.0706,-7.7772 -33.58,-7.59375 z"
         style="fill:#040000;stroke-width:1.33333337"
         inkscape:connector-curvature="0" />
      <path
         id="path1015"
         d="m 889.81862,-134.21419 c -1.53458,1.26294 -3.26672,2.22602 -4.84011,3.43958 1.05834,2.71992 2.2225,5.37281 3.63009,7.93397 2.51178,-1.34408 4.5085,-2.94216 7.20725,-3.85586 -1.62278,1.84503 -3.73945,2.81164 -5.62681,4.30036 -0.26105,0.25753 -0.88547,0.68439 -0.67028,1.11125 0.62442,1.75331 1.85914,3.34081 2.89631,4.87539 2.59997,-1.23119 4.88597,-2.64936 7.62,-3.29494 -2.02847,1.92264 -4.65314,2.80458 -6.93914,4.48027 4.78014,7.41187 10.28347,14.43214 16.60172,20.59517 2.16253,2.21192 4.445,4.28272 6.97442,6.07131 1.10419,0.77964 2.16253,1.61219 3.11856,2.57175 -2.43064,-1.0407 -4.49792,-2.75873 -6.57578,-4.40267 -3.06211,-2.56822 -5.97959,-5.30225 -8.62189,-8.30439 -4.64961,-4.93536 -8.63247,-10.36108 -12.51656,-15.90322 -1.06891,0.69497 -2.11314,1.41817 -3.13619,2.17664 0.68792,1.09714 1.37936,2.20133 2.11314,3.27378 1.22414,1.81327 2.62819,3.38666 3.54541,5.40102 -1.85208,-1.21708 -2.9845,-2.8963 -4.35327,-4.58611 -0.82903,-1.04069 -1.62631,-2.09903 -2.43064,-3.15736 -1.24531,0.76553 -2.36714,1.60867 -3.4537,2.58586 1.92617,3.29142 4.02167,6.59342 6.42056,9.56381 0.77611,0.96308 1.46755,1.97203 2.04258,3.06916 -2.02141,-1.34408 -3.16794,-3.18205 -4.69547,-5.00944 -1.76036,-2.15547 -3.17853,-4.48381 -4.80483,-6.74158 -0.6985,0.56797 -1.397,1.13947 -2.0955,1.71097 3.47133,5.89844 7.16139,11.73692 11.37355,17.13794 1.524,2.04259 3.32317,3.49603 4.52967,5.74323 -1.12536,-0.75142 -2.12372,-1.64748 -3.06564,-2.62114 -5.57389,-5.5245 -10.08239,-12.32606 -14.33336,-18.87361 -0.56092,0.59266 -1.11831,1.18533 -1.67922,1.778 1.83797,3.33727 3.95464,6.56166 6.096,9.72255 3.13972,4.67431 6.51227,9.18633 10.18469,13.45495 1.36878,1.57338 2.86456,2.921 3.94406,4.73075 -2.14842,-1.2312 -3.71828,-2.90337 -5.45748,-4.62845 -4.27919,-4.48028 -8.19502,-9.29217 -11.73691,-14.37217 -1.6122,-2.2613 -3.02684,-4.64255 -4.57906,-6.93913 -0.64558,0.85725 -1.55928,1.87325 -1.73214,2.95627 -0.007,0.90664 0.51859,1.85561 0.93134,2.64584 2.10961,3.72886 4.28272,7.42244 6.66397,10.99255 3.85586,5.82789 7.84578,11.60639 12.21317,17.06386 1.51341,1.94028 3.25613,3.48192 4.41324,5.69384 -2.59644,-1.16064 -4.74486,-3.48545 -6.85447,-5.36575 -6.07483,-6.1207 -11.14072,-13.335 -15.70214,-20.63045 -4.07458,-6.70983 -8.01511,-13.50786 -9.83191,-21.21958 -0.37395,-1.73214 -0.9137,-3.47486 0.10936,-5.09764 2.97391,-4.93889 6.858,-9.36272 11.08075,-13.2715 1.40405,-1.34056 3.01272,-2.38831 4.53672,-3.57364 0.8502,-0.64205 0.95603,-1.52753 1.30175,-2.46944 0.36689,0.29986 0.73731,0.60325 1.1042,0.90311 1.6263,-0.79022 3.26672,-1.44639 5.07999,-1.66511 z"
         inkscape:connector-curvature="0"
         style="fill:#4c4c4c;stroke-width:0.35277778" />
      <path
         id="path1017"
         d="m 883.73674,-129.7833 c 0.71614,1.27352 1.23472,2.61408 1.74977,3.97933 -0.73377,0.39158 -1.80269,1.55928 -2.67052,1.29822 -0.52564,-0.98072 -0.92428,-2.16958 -0.85373,-3.29142 0.3175,-0.79727 1.15359,-1.42522 1.77448,-1.98613 z"
         inkscape:connector-curvature="0"
         style="fill:#040000;stroke-width:0.35277778" />
      <path
         id="path1019"
         d="m 880.02199,-126.13558 c 0.44097,1.06891 0.8255,2.16958 1.22061,3.25614 -0.76553,0.62441 -1.53106,1.2453 -2.30011,1.86266 -0.32809,-0.9525 -0.95603,-2.16605 -0.76906,-3.18205 0.38806,-0.77611 1.18181,-1.397 1.84856,-1.93675 z"
         inkscape:connector-curvature="0"
         style="fill:#040000;stroke-width:0.35277778" />
      <path
         id="path1021"
         d="m 885.80049,-125.13017 c 0.44097,0.66323 0.87489,1.36878 1.18886,2.10256 0.13053,0.39864 0.45508,0.92781 0.0282,1.26294 -0.65264,0.67028 -1.50284,1.19945 -2.27542,1.72509 -0.49742,-1.06539 -0.98072,-2.13431 -1.46403,-3.20675 0.82903,-0.64911 1.64748,-1.2947 2.52236,-1.88384 z"
         inkscape:connector-curvature="0"
         style="fill:#040000;stroke-width:0.35277778" />
      <path
         id="path1023"
         d="m 876.96693,-122.94294 c 0.2787,0.9525 0.62089,2.032 0.51506,3.02683 -0.47978,0.8255 -1.32645,1.47814 -2.01789,2.12019 -0.28575,-0.76905 -0.87489,-1.72861 -0.80434,-2.55763 0.49389,-1.016 1.48167,-1.8415 2.30717,-2.58939 z"
         inkscape:connector-curvature="0"
         style="fill:#040000;stroke-width:0.35277778" />
      <path
         id="path1025"
         d="m 881.64476,-121.73292 c 0.63148,0.83256 1.21356,1.88737 1.28059,2.94923 -0.58914,0.8643 -1.60161,1.52047 -2.43417,2.13783 -0.39864,-1.016 -0.79022,-2.03553 -1.17475,-3.05506 0.75142,-0.69497 1.49578,-1.43933 2.32833,-2.032 z"
         inkscape:connector-curvature="0"
         style="fill:#040000;stroke-width:0.35277778" />
      <path
         id="path1027"
         d="m 888.16057,-120.73455 c 1.12183,1.56633 2.08139,3.26319 3.07622,4.91419 -1.00541,0.66675 -2.02142,1.32292 -3.03741,1.97203 -0.94192,-1.41817 -2.22603,-3.07975 -2.48709,-4.79072 0.60678,-0.86431 1.55928,-1.54164 2.44828,-2.0955 z"
         inkscape:connector-curvature="0"
         style="fill:#040000;stroke-width:0.35277778" />
      <path
         id="path1029"
         d="m 873.14987,-118.83308 c 0.2787,0.78316 0.66323,1.67569 0.62795,2.51883 -0.27517,0.635 -0.73378,1.21003 -1.12889,1.77447 -0.32456,-0.74436 -0.71261,-1.5628 -0.8255,-2.37066 0.28575,-0.70909 0.84667,-1.33703 1.32644,-1.92264 z"
         inkscape:connector-curvature="0"
         style="fill:#040000;stroke-width:0.35277778" />
      <path
         id="path1031"
         d="m 878.08876,-118.4168 c 0.49389,0.94544 0.9137,1.905 1.34761,2.87513 -0.69497,0.65617 -1.39347,1.30881 -2.09549,1.95792 -0.43039,-0.87842 -0.85725,-1.76389 -1.28059,-2.64583 0.66322,-0.74436 1.32292,-1.4852 2.02847,-2.18722 z"
         inkscape:connector-curvature="0"
         style="fill:#040000;stroke-width:0.35277778" />
      <path
         id="path1033"
         d="m 884.00485,-117.28086 c 1.01247,1.38289 1.89089,2.87161 2.82222,4.31094 -1.06892,0.84667 -2.159,1.66512 -3.25967,2.46945 -0.85019,-1.37936 -1.57339,-2.80811 -2.21544,-4.29331 0.86783,-0.85725 1.7145,-1.70744 2.65289,-2.48708 z"
         inkscape:connector-curvature="0"
         style="fill:#040000;stroke-width:0.35277778" />
      <path
         id="path1035"
         d="m 870.19712,-114.81847 c 0.20109,0.75142 0.51506,1.58044 0.47978,2.36714 -0.33866,0.77611 -1.04069,1.42875 -1.59455,2.06022 -0.11289,-0.64911 -0.40217,-1.40758 -0.28575,-2.06728 0.28927,-0.85372 0.87136,-1.64041 1.40052,-2.36008 z"
         inkscape:connector-curvature="0"
         style="fill:#040000;stroke-width:0.35277778" />
      <path
         id="path1037"
         d="m 874.55393,-114.49039 c 0.51858,0.72672 1.04775,1.5875 1.18533,2.48003 -0.32808,0.64206 -0.84666,1.20297 -1.29116,1.76742 -0.39864,-0.8255 -1.05128,-1.80623 -1.05481,-2.74461 0.28575,-0.55739 0.7232,-1.06187 1.16064,-1.50284 z"
         inkscape:connector-curvature="0"
         style="fill:#040000;stroke-width:0.35277778" />
      <path
         id="path1039"
         d="m 880.17015,-113.56964 c 0.87136,1.26295 1.56634,2.62467 2.21545,4.01109 -0.65264,0.55738 -1.30881,1.11125 -1.9685,1.66511 -0.81139,-1.2065 -1.52753,-2.45534 -2.18017,-3.75356 0.63147,-0.65617 1.25942,-1.3088 1.93322,-1.92264 z"
         inkscape:connector-curvature="0"
         style="fill:#040000;stroke-width:0.35277778" />
      <path
         id="path1041"
         d="m 871.43185,-110.60983 c 0.34925,0.47272 0.65616,0.97719 0.889,1.52047 0.74789,1.18181 -0.87489,2.56822 -1.45698,3.50308 -0.31397,-0.81139 -0.71613,-1.67569 -0.81491,-2.54352 0.0776,-0.90664 0.83255,-1.79564 1.38289,-2.48003 z"
         inkscape:connector-curvature="0"
         style="fill:#040000;stroke-width:0.35277778" />
      <path
         id="path1043"
         d="m 876.82582,-110.00305 c 0.76553,1.15711 1.40405,2.38125 2.02847,3.6195 -0.59619,0.49388 -1.18886,0.9913 -1.78505,1.48166 -0.60325,-1.07597 -1.41464,-2.30011 -1.58045,-3.53483 0.35278,-0.61031 0.82903,-1.08303 1.33703,-1.56633 z"
         inkscape:connector-curvature="0"
         style="fill:#040000;stroke-width:0.35277778" />
      <path
         id="path1045"
         d="m 873.71432,-106.12955 c 0.65969,1.04422 1.22767,2.12725 1.79917,3.22086 -0.70556,0.91369 -1.40053,1.8415 -2.10256,2.76225 -0.44097,-0.80081 -0.92428,-1.63689 -1.23472,-2.49767 -0.68086,-1.26647 0.78316,-2.59644 1.53811,-3.48544 z"
         inkscape:connector-curvature="0"
         style="fill:#040000;stroke-width:0.35277778" />
      <path
         id="path1047"
         d="m 937.42951,-88.70233 c -2.01436,1.41111 -4.33916,1.97203 -6.44525,3.19969 -5.09058,2.86809 -9.63788,6.82625 -13.53608,11.15484 -2.79047,3.10091 -5.23169,6.44172 -7.12611,10.16705 -0.91017,1.83092 -1.70744,3.81353 -2.02494,5.842 -0.24342,1.47814 0.30338,2.68817 0.7373,4.064 -0.58208,-0.0353 -1.19239,-0.0353 -1.76389,-0.16228 -1.12889,-0.59619 -1.40405,-2.06022 -1.4358,-3.22791 -0.004,-2.36714 0.68791,-4.78367 1.54869,-6.97442 2.51531,-6.15597 6.72042,-11.16189 11.78278,-15.39522 4.33211,-3.63714 9.33803,-6.63575 14.80608,-8.17739 1.13242,-0.32103 2.28953,-0.43039 3.45722,-0.49036 z"
         inkscape:connector-curvature="0"
         style="fill:#4c4c4c;stroke-width:0.35277778" />
      <path
         id="path1049"
         d="m 949.35693,-82.36292 c 0.14817,1.66864 0.4692,3.30553 0.67733,4.96712 0.24342,2.55058 1.56634,4.89302 2.55412,7.239 -5.35517,-0.40923 -10.16353,2.17311 -14.13228,5.5245 -2.48356,2.08844 -4.77309,4.51555 -6.49111,7.27427 -1.07245,1.74273 -1.99673,3.46781 -2.31775,5.51392 1.30175,-1.36172 1.89794,-2.97392 2.98802,-4.48733 1.69334,-2.36714 3.78178,-4.4697 5.95842,-6.39234 1.72508,-1.53105 3.67242,-2.70227 5.58095,-3.97933 -0.23637,1.58044 -0.16934,2.58233 0.46566,4.05694 -4.08869,5.24934 -6.29355,11.47939 -8.62189,17.63184 -1.50283,-1.27 -3.22439,-2.21545 -4.76955,-3.42547 -1.54164,-1.19239 -3.12209,-2.30717 -4.77661,-3.33728 -2.0567,-1.28058 -4.0005,-2.72345 -6.08895,-3.95464 0.0459,-2.80458 2.01789,-4.99886 3.72534,-7.02381 3.4678,-3.90877 7.88458,-7.03086 12.59063,-9.271 0.87489,-0.42333 1.70392,-0.90664 2.45887,-1.524 -1.98262,0.18698 -3.76414,1.12889 -5.55273,1.95792 -5.15055,2.52589 -10.05769,6.30767 -13.11627,11.22539 -0.87842,1.3723 -1.3335,2.79047 -1.51695,4.40619 -1.35467,-0.15169 -2.83986,0.0635 -3.77472,-1.12889 -0.98072,-1.60866 -0.59972,-3.81352 0.39158,-5.34105 2.81164,-4.6602 6.33942,-8.92175 10.46692,-12.47422 5.08705,-4.37092 11.60992,-7.03086 18.11867,-8.4067 1.82386,-0.4445 3.47838,0.38806 5.1823,0.94897 z"
         inkscape:connector-curvature="0"
         style="fill:#a7a7a7;stroke-width:0.35277778" />
      <path
         id="path1051"
         d="m 955.57993,-70.69303 c 1.69686,1.47814 2.8575,3.19617 4.30036,4.90714 4.60022,5.5245 9.3592,10.89025 13.72306,16.61231 2.20133,2.85044 4.37091,5.71853 6.73453,8.44197 0.91369,1.02306 1.22413,2.21897 1.42875,3.54542 -1.77095,-1.62631 -3.03037,-3.52778 -4.5332,-5.38339 -3.73239,-4.64256 -7.29192,-9.33803 -11.25714,-13.79361 -1.70744,-1.89795 -2.794,-4.18395 -4.42736,-6.14539 -1.97908,-2.67759 -4.52614,-5.17878 -5.969,-8.18445 z"
         inkscape:connector-curvature="0"
         style="fill:#4c4c4c;stroke-width:0.35277778" />
      <path
         id="path1053"
         d="m 953.13871,-68.66455 c 0.53622,0.65263 0.91722,1.44991 1.3335,2.18722 -0.66322,0.29633 -1.64042,0.51505 -2.07786,1.12183 -0.64911,1.29822 0.53975,2.70228 1.06186,3.85586 -1.21708,-1.37583 -2.30717,-2.86455 -3.48192,-4.27214 -0.84666,-0.9913 -1.97908,-1.50989 -3.10797,-2.10961 2.10961,-0.40922 4.09575,-1.07244 6.27239,-0.78316 z"
         inkscape:connector-curvature="0"
         style="fill:#a7a7a7;stroke-width:0.35277778" />
      <path
         id="path1055"
         d="m 947.64949,-65.17558 c 1.04069,0.45861 1.88736,1.47108 2.55411,2.36361 0.99483,1.36525 1.92616,2.7693 2.95275,4.10633 6.94972,9.02406 13.91355,18.06223 20.96558,27.00867 0.88195,1.16769 2.0955,2.31069 2.64231,3.67947 -0.13406,0.58561 -0.43745,1.15711 -0.70909,1.68981 -1.92969,3.37961 -2.93511,7.39069 -3.61244,11.19716 -0.75495,4.47323 -0.61383,9.017 0.21167,13.46906 0.38805,2.58586 1.2453,5.05883 1.5875,7.64822 -0.8502,-0.44097 -1.62984,-0.9525 -2.21545,-1.72508 -3.3655,-4.36739 -6.92503,-8.60425 -10.37167,-12.90814 -6.25475,-7.66233 -12.53772,-15.86089 -19.685,-22.65186 -1.778,-1.84856 -3.53483,-3.77825 -5.15408,-5.76086 -1.12536,-1.22767 -0.22578,-2.98097 0.1517,-4.33917 2.40241,-6.604 5.10469,-13.38792 9.05227,-19.23344 1.21709,1.67569 2.49414,3.29494 3.85234,4.85775 3.88408,4.49086 7.76111,8.92175 11.48291,13.56077 3.14325,3.91584 6.25475,7.85637 9.39095,11.77573 1.25589,1.60161 2.42358,3.21733 3.98286,4.55083 -0.4057,-1.18886 -0.92075,-2.32833 -1.6122,-3.37961 -3.5948,-5.47158 -7.59177,-10.3505 -11.60638,-15.57161 -3.39373,-4.3427 -6.78745,-8.71361 -10.4775,-12.80936 -1.68276,-1.87325 -4.32859,-3.88409 -4.90714,-6.42409 -0.23284,-0.97719 0.73377,-1.41111 1.524,-1.10419 z"
         inkscape:connector-curvature="0"
         style="fill:#4c4c4c;stroke-width:0.35277778" />
      <path
         id="path1057"
         d="m 954.86732,-63.69392 c 0.99131,0.26459 1.90853,0.56798 2.61408,1.35467 1.06892,1.17828 1.97909,2.49767 2.98098,3.73592 17.18733,21.7558 34.15594,43.68447 51.20212,65.55317 -0.4691,0.51858 -1.0371,1.07244 -1.3476,1.70744 0.1764,1.30175 1.0478,2.44828 1.831,3.46075 2.4906,3.09033 5.0094,6.1595 7.4753,9.26394 -3.7042,3.01625 -7.8458,6.48406 -10.2658,10.65742 -0.9031,1.45345 -1.2171,3.05153 -1.3371,4.74133 -3.5736,-4.19452 -7.3377,-8.23383 -11.00309,-12.35075 -5.28461,-5.88433 -10.55158,-11.79688 -15.80797,-17.70591 -1.24531,-1.37936 -2.52236,-2.49767 -3.13267,-4.318 -0.41628,-1.25942 -1.57339,-1.98261 -2.10256,-3.11856 -0.99483,-3.78883 -0.91016,-7.88458 -0.78316,-11.77572 0.28222,-3.66889 1.27,-7.39069 2.44475,-10.86908 0.4833,-1.50636 1.03716,-3.03389 1.31586,-4.59317 0.1905,-0.72319 -0.26811,-1.37936 -0.56445,-2.00378 -0.88547,-1.54516 -1.93322,-2.99861 -2.98097,-4.43794 -3.46075,-4.62492 -7.00616,-9.18634 -10.74914,-13.589 -2.32833,-2.83634 -4.70958,-5.64092 -6.91444,-8.5725 1.23472,1.13594 2.22603,2.39183 3.68653,3.27025 -1.34056,-3.81 -4.79778,-6.90386 -6.56167,-10.41048 z"
         inkscape:connector-curvature="0"
         style="fill:#a7a7a7;stroke-width:0.35277778" />
      <path
         id="path1059"
         d="m 969.61343,4.01825 c 0.70908,2.36714 0.35278,5.0412 0.14111,7.46125 -0.17286,1.83797 -0.13758,3.67595 -0.0318,5.51745 1.15359,0.15875 2.38478,0.21166 3.49603,0.5715 0.3175,1.01952 0.23636,2.21191 0.25753,3.27025 -0.0282,2.64583 0.19755,5.27755 0.20461,7.92339 0.007,1.27 0.0882,2.53294 0.39864,3.76766 0.57503,2.32481 0.82197,4.48734 1.77447,6.68514 1.01247,2.31422 1.62278,4.87539 2.92806,6.97089 0.47272,0.79375 1.04775,1.56281 1.43933,2.39889 0.34219,0.70908 0.21872,1.62278 0.17992,2.38478 -0.254,2.7058 -0.29281,5.42219 -0.52564,8.13152 -0.23989,5.98312 -0.84667,11.98739 -0.71967,17.97403 -1.11478,0.30692 -2.22603,0.58209 -3.38667,0.64206 -4.49791,0.26458 -9.00289,-0.10584 -13.41966,-0.99484 -1.08656,-0.23636 -2.26131,-0.46566 -3.25614,-0.97719 -0.79375,-0.43392 -1.00189,-1.76742 -1.35114,-2.54706 2.75519,0.28928 5.46805,0.71262 8.18444,1.25237 3.66536,0.47977 7.40834,0.5468 11.10192,0.40216 0.98072,-3.47839 0.97719,-6.86505 1.11478,-10.45633 0.0423,-3.41842 0.31397,-6.81214 0.11994,-10.23408 -0.17286,-2.50825 0.10936,-4.90362 -0.635,-7.2002 -0.52564,-1.64042 -0.98778,-3.37255 -1.73919,-4.90361 -0.84314,-1.70392 -1.52047,-3.47486 -2.1202,-5.27403 -0.74083,-2.27189 -0.87841,-4.76955 -1.38641,-7.13669 -0.37748,-1.70745 -0.45156,-3.42547 -0.55034,-5.16467 -0.57855,1.04775 -1.19944,2.08139 -1.70744,3.16442 0.33867,-1.21003 0.889,-2.33892 1.27,-3.53484 0.36689,-1.12536 0.36336,-2.41652 0.4445,-3.59127 0.0247,-0.39159 0.0494,-0.78317 0.0741,-1.17475 -1.79564,-0.0282 -3.58775,-0.10584 -5.38339,-0.20461 -1.21355,6.19477 -2.97744,12.20258 -5.20347,18.10455 -0.46919,1.22414 -1.06892,2.38478 -1.74272,3.50308 0.4833,-1.80622 0.77611,-3.65477 1.27705,-5.45747 1.3582,-5.19641 2.3742,-10.46691 3.11856,-15.78328 0.17286,-1.03363 0.21872,-1.97908 0.86431,-2.85044 1.52047,-0.0847 3.07269,0.22578 4.60022,0.28928 0.0741,-4.318 0.32808,-8.62189 0.16933,-12.92931 z"
         inkscape:connector-curvature="0"
         style="fill:#4c4c4c;stroke-width:0.35277778" />
      <path
         id="path1061"
         d="m 1011.8374,8.75253 c 0.2893,-0.14111 0.5821,-0.27164 0.882,-0.38806 3.122,3.77473 6.1065,7.67998 9.1193,11.54642 -0.5151,0.34572 -1.0302,0.69145 -1.5487,1.03364 -0.6245,-0.91722 -1.2453,-1.83797 -1.8557,-2.76578 -1.6933,-2.59291 -3.8346,-4.90714 -5.5844,-7.47889 -0.4163,-0.61736 -0.7867,-1.23472 -1.0125,-1.94733 z"
         inkscape:connector-curvature="0"
         style="fill:#a7a7a7;stroke-width:0.35277778" />
      <path
         id="path1063"
         d="m 969.93446,20.83164 c 0.6103,-0.18697 1.27705,-0.23636 1.905,-0.31044 -0.0811,1.17475 -0.0776,2.46591 -0.4445,3.59127 -0.381,1.19592 -0.93133,2.32481 -1.27,3.53484 -0.43745,1.53458 -0.65264,3.11503 -1.16417,4.63197 -0.93486,2.91042 -0.87841,6.01839 -1.65805,8.89353 -0.80786,2.57528 -0.12348,5.19994 -0.76553,7.8493 -0.81845,0.48331 -1.71803,0.62795 -2.0567,1.6122 -1.74625,3.41136 -1.524,6.80508 -2.24013,10.4528 -0.77964,2.93159 -0.75848,6.09953 -1.28764,9.08403 -0.18698,0.74083 -0.81139,0.92428 -1.41464,1.25942 -0.5962,-1.47461 -1.09714,-2.94922 -1.16064,-4.55789 -0.06,-2.18722 -0.12347,-4.2792 0.34572,-6.43467 0.47978,-2.00378 0.17992,-3.88761 0.41628,-5.91961 0.2928,-2.37772 0.21872,-5.23522 1.09714,-7.51064 0.5715,-1.36878 1.62983,-2.04964 2.94922,-2.59644 0.15875,-1.13947 0.26458,-2.22603 0.59619,-3.33022 1.00542,-3.52073 0.762,-7.51064 2.01436,-10.94317 0.52564,-1.84503 0.78317,-3.65831 1.58751,-5.4222 0.63852,-1.53458 1.10419,-2.91394 2.55058,-3.88408 z"
         inkscape:connector-curvature="0"
         style="fill:#a7a7a7;stroke-width:0.35277778" />
      <path
         id="path1065"
         d="m 1023.4791,21.97464 c -0.5362,1.78858 -1.4147,3.33728 -2.533,4.82247 -0.7514,-0.0423 -1.6051,-0.1905 -2.3424,0.0106 -0.8044,0.28927 -1.5522,0.78669 -2.2931,1.21002 2.0814,-2.26836 4.4168,-4.6108 7.1685,-6.04308 z"
         inkscape:connector-curvature="0"
         style="fill:#4c4c4c;stroke-width:0.35277778" />
      <path
         id="path1067"
         d="m 1018.4555,29.24892 c 0.7091,0.50447 1.3124,1.19592 1.8838,1.84503 1.7428,2.03552 3.3797,4.10986 5.2988,5.98664 0.762,0.8008 1.718,1.65452 2.166,2.67758 0.039,1.45344 -1.6157,2.00378 -2.7622,1.46403 -0.7726,-0.45861 -1.3935,-1.24884 -1.9791,-1.92264 -2.2684,-2.72697 -4.7625,-5.24581 -6.9392,-8.05392 0.7303,-0.68792 1.4747,-1.47108 2.3319,-1.99672 z"
         inkscape:connector-curvature="0"
         style="fill:#4c4c4c;stroke-width:0.35277778" />
      <path
         id="path1069"
         d="m 1013.5731,31.1257 c 0.4551,0.6985 0.8678,1.37583 1.0936,2.18369 -0.6315,1.36878 -2.4024,2.07081 -3.6971,2.64936 0.5009,-1.93675 1.2594,-3.35139 2.6035,-4.83305 z"
         inkscape:connector-curvature="0"
         style="fill:#4c4c4c;stroke-width:0.35277778" />
      <path
         id="path1071"
         d="m 966.74182,80.65217 c 0.83256,-0.10583 1.69686,-0.0953 2.53647,-0.10583 0.0318,9.54969 0.0212,19.099385 -0.004,28.64908 0.007,1.49225 -0.14816,2.95981 -0.39511,4.42736 -0.51858,3.175 -0.15522,6.11011 -0.32102,9.34861 -0.10584,2.3495 -0.36689,4.67784 -0.30339,7.03792 0.0917,3.50661 -0.43745,6.96736 -0.381,10.47044 -0.29986,0.14464 -0.60325,0.28928 -0.90311,0.43392 -0.18345,-4.32506 -0.0176,-8.65364 -0.13053,-12.98928 -0.41981,-13.5255 -0.29281,-27.07216 -0.32456,-40.60119 0.0353,-2.20486 -0.11994,-4.49086 0.22578,-6.67103 z"
         inkscape:connector-curvature="0"
         style="fill:#4c4c4c;stroke-width:0.35277778" />
      <path
         id="path1073"
         d="m 966.96407,159.31103 c 0.29986,0.0141 0.59972,0.0282 0.89958,0.0388 0.36689,2.74461 0.381,5.49981 0.60678,8.255 0.22225,2.76225 0.0247,5.51745 0.36336,8.27264 0.33161,2.83633 0.56445,5.60917 0.35278,8.47019 -0.14464,1.63337 -0.68439,3.10798 -1.21708,4.64256 3.32669,0.0988 6.56872,0.18697 9.79664,-0.77611 0.0106,0.82903 0.0176,1.66158 0.0282,2.49061 -1.87325,0.27164 -3.76767,0.42686 -5.65503,0.56092 -2.81517,0.20814 -5.56683,-0.35631 -8.38906,-0.25753 -1.82033,-0.0141 -4.30388,0.0141 -5.71852,-1.32292 -0.47978,-0.8008 -0.56445,-1.8803 -0.762,-2.78341 1.32644,0.4445 2.63172,0.94897 3.94758,1.42875 1.69333,0.64911 3.45369,0.4198 5.28108,0.52916 -0.61736,-3.85586 -0.21519,-8.01158 -0.11641,-11.95211 0.25047,-4.07105 -0.004,-8.128 0.34925,-12.18847 0.14111,-1.79917 0.17991,-3.60186 0.23283,-5.40808 z"
         inkscape:connector-curvature="0"
         style="fill:#4c4c4c;stroke-width:0.35277778" />
      <path
         id="path1075"
         d="m 1031.1767,163.40678 c 0.6209,1.37231 1.0301,2.80458 1.4675,4.24039 0.7056,2.33539 1.8168,4.43442 2.9246,6.61105 1.7215,3.36198 3.6477,6.61106 5.8208,9.70139 1.3018,1.85561 2.8328,3.40784 3.9194,5.41514 -1.1325,-0.381 -2.1908,-0.83255 -3.0375,-1.70744 -2.3001,-2.30011 -4.1416,-5.16467 -5.7926,-7.95514 -2.2225,-3.90525 -4.1733,-8.16681 -5.1258,-12.57653 -0.2681,-1.23119 -0.2681,-2.4765 -0.1764,-3.72886 z"
         inkscape:connector-curvature="0"
         style="fill:#4c4c4c;stroke-width:0.35277778" />
      <path
         id="path1077"
         d="m 980.71535,188.14709 c 0.68439,2.59997 0.56444,5.51744 0.57503,8.18444 0.0635,6.08542 -0.0353,12.16025 -0.14817,18.24214 -0.22931,-0.508 -0.41981,-1.03011 -0.61383,-1.55575 -1.30881,0.51858 -2.73403,0.96308 -3.75709,1.97203 -0.95603,0.91369 -1.45697,2.04258 -2.26483,3.03741 -0.381,0.5327 -0.95956,0.50448 -1.5487,0.60325 -1.99672,0.16228 -4.02166,0.0176 -6.02897,0.0353 -1.80622,-0.0353 -3.93347,-0.0952 -5.58094,-0.91722 -1.08303,-0.64205 -0.65617,-2.17311 0.36336,-2.63525 1.37936,-0.58561 3.09033,-0.55033 4.572,-0.63853 -0.46567,-0.53622 -1.01247,-1.08302 -1.34409,-1.7145 -0.3563,-0.79022 -0.0141,-1.73566 0.70556,-2.1978 1.13242,-0.762 2.54,-1.18181 3.80647,-1.68628 -1.64747,-0.19403 -3.42547,-0.33161 -4.99886,-0.86783 -1.016,-0.34925 -1.74625,-0.99836 -2.55058,-1.67922 1.94028,0.21872 3.76414,0.64205 5.72205,0.69144 1.31939,0.0635 2.70934,-0.0353 4.00756,0.21167 0.39511,0.75141 0.59619,1.74625 0.32103,2.56822 -0.37042,0.80433 -1.17475,1.44992 -1.79211,2.0708 0.56444,0.56798 1.25236,1.143 1.63336,1.84856 -0.0176,0.75847 -0.254,1.53811 -0.44097,2.27189 0.90663,-0.0459 1.81327,-0.0811 2.71991,-0.11995 0.8255,-1.8803 1.77447,-3.54541 3.68653,-4.49438 0.92075,-0.52917 2.07786,0.0494 3.01978,0.28927 0.48683,-5.10822 0.38453,-10.20938 0.40216,-15.33525 -0.0176,-2.74108 -0.50094,-5.4363 -0.46566,-8.18444 z"
         inkscape:connector-curvature="0"
         style="fill:#4c4c4c;stroke-width:0.35277778" />
      <path
         id="path1079"
         d="m 956.8711,191.84773 c 0.59266,-0.0353 1.43933,-0.21167 1.651,0.52563 0.6985,1.68981 0.3175,3.94406 0.22225,5.73264 -0.0988,3.08328 -0.69497,6.06778 -1.19945,9.09814 -0.24694,-0.0141 -0.49389,-0.0247 -0.74083,-0.0353 -0.86783,-4.08869 -0.56092,-8.11741 -0.62089,-12.2555 0.0353,-0.9913 -0.0776,-2.31069 0.68792,-3.06564 z"
         inkscape:connector-curvature="0"
         style="fill:#a7a7a7;stroke-width:0.35277778" />
      <path
         id="path1081"
         transform="scale(0.26458333)"
         d="m 3965.1211,733.75977 c 0.3999,2.94667 0.187,6.54667 2.0137,9 2.8002,4.13332 6.5582,7.74792 10.0781,11.28125 28.2535,28.02667 65.041,47.73277 100.668,64.74609 54.48,26.66668 109.9201,50.15903 165.5332,74.3457 28.1469,11.94667 56.1193,24.41405 83.666,37.72071 25.3202,12.34665 62.3318,35.90204 73.8144,42.17382 5.1557,8.47905 -3.0784,46.99046 0.7871,63.88286 h 15.3907 c 3.3708,-18.6178 1.1115,-59.54708 -6.2618,-67.68754 -16.3286,-14.42431 -21.7575,-17.55552 -42.2773,-29.04883 -30.24,-16.88001 -61.3453,-31.82696 -93.1055,-45.62695 -18.8398,-8.31999 -37.9195,-16.07902 -56.666,-24.65235 -7.8266,-3.46666 -15.5203,-7.45382 -23.5469,-10.48047 -3.88,-0.68001 -7.7081,-1.34787 -11.375,-2.89453 -43.2,-18.99999 -87.5452,-37.66497 -129.1718,-59.93164 -24.1735,-12.72 -46.8664,-27.92078 -67.5332,-45.80078 -7.4665,-6.18667 -12.8672,-13.10733 -22.0137,-17.02734 z"
         style="fill:#4c4c4c;stroke-width:1.33333337"
         inkscape:connector-curvature="0" />
      <path
         id="path1083"
         d="m 954.03124,206.83373 c -0.004,1.16063 0.0635,2.31775 0.13405,3.47486 1.26647,0.1658 2.82222,-0.0353 3.72181,1.06891 1.78505,1.98614 2.12019,4.48381 1.71803,7.05203 -0.65617,-1.50283 -1.05481,-3.10092 -1.70392,-4.60022 -0.29281,-0.508 -0.88547,-1.49225 -1.52047,-1.52753 -1.35467,0.51506 -2.50473,1.75331 -3.61245,2.667 -3.36197,2.87514 -6.79803,5.67267 -10.18822,8.51606 -8.59014,7.03086 -16.84161,14.43566 -25.29769,21.62527 -3.0727,2.56823 -6.24417,5.03767 -9.26042,7.67645 -1.30881,1.12889 -2.21192,2.52942 -3.15031,3.95817 0.73731,0.86783 1.53106,1.69686 2.21898,2.60702 0.30338,0.46567 0.66675,0.79023 0.4833,1.38995 -0.508,0.90664 -1.66158,0.65264 -2.36361,0.13405 -2.32481,-1.76388 -3.13619,-4.92125 -1.85914,-7.58119 0.77258,-0.0459 1.38994,-0.21167 1.98614,-0.71967 6.30767,-5.34105 12.52008,-10.76325 18.77836,-16.15016 9.46856,-8.18798 19.05706,-16.22778 28.59969,-24.32403 0.39512,-0.381 0.93839,-0.8502 1.06187,-1.40406 0.23636,-1.25941 0.20108,-2.58233 0.254,-3.86291 z"
         inkscape:connector-curvature="0"
         style="fill:#4c4c4c;stroke-width:0.35277778" />
      <path
         id="path1085"
         d="m 968.48101,241.99509 c 0.86431,-0.127 1.23473,0.45508 1.87325,0.90664 -2.37066,1.29469 -5.43277,1.56986 -7.48241,-0.46567 1.87678,-0.0811 3.73944,-0.27517 5.60916,-0.44097 z"
         inkscape:connector-curvature="0"
         style="fill:#4c4c4c;stroke-width:0.35277778" />
      <path
         id="path1087"
         d="m 1026.8728,252.75128 c 0.6421,0.89606 0.1058,1.62983 -0.3739,2.4377 -1.6757,2.37419 -4.117,3.96875 -6.9251,4.68489 -0.1234,-0.23989 -0.2505,-0.48331 -0.3739,-0.72673 2.2048,-1.31586 4.251,-2.61055 5.8102,-4.70958 0.5151,-0.56092 1.0337,-1.63689 1.8627,-1.68628 z"
         inkscape:connector-curvature="0"
         style="fill:#4c4c4c;stroke-width:0.35277778" />
    </g>
  </g>
</svg>
