<?xml version="1.0" encoding="UTF-8" standalone="no"?>
<!-- Created with Inkscape (http://www.inkscape.org/) -->

<svg
   xmlns:dc="http://purl.org/dc/elements/1.1/"
   xmlns:cc="http://creativecommons.org/ns#"
   xmlns:rdf="http://www.w3.org/1999/02/22-rdf-syntax-ns#"
   xmlns:svg="http://www.w3.org/2000/svg"
   xmlns="http://www.w3.org/2000/svg"
   xmlns:sodipodi="http://sodipodi.sourceforge.net/DTD/sodipodi-0.dtd"
   xmlns:inkscape="http://www.inkscape.org/namespaces/inkscape"
   width="283.02063mm"
   height="432.18066mm"
   viewBox="0 0 283.02063 432.18066"
   version="1.1"
   id="svg4021"
   inkscape:version="0.92.4 (5da689c313, 2019-01-14)"
   sodipodi:docname="mic-1.svg">
  <defs
     id="defs4015" />
  <sodipodi:namedview
     id="base"
     pagecolor="#ffffff"
     bordercolor="#666666"
     borderopacity="1.0"
     inkscape:pageopacity="0.0"
     inkscape:pageshadow="2"
     inkscape:zoom="0.35"
     inkscape:cx="104.8421"
     inkscape:cy="708.14794"
     inkscape:document-units="mm"
     inkscape:current-layer="layer1"
     showgrid="false"
     fit-margin-top="0"
     fit-margin-left="0"
     fit-margin-right="0"
     fit-margin-bottom="0"
     inkscape:pagecheckerboard="false"
     inkscape:window-width="3840"
     inkscape:window-height="2056"
     inkscape:window-x="-8"
     inkscape:window-y="-8"
     inkscape:window-maximized="1" />
  <metadata
     id="metadata4018">
    <rdf:RDF>
      <cc:Work
         rdf:about="">
        <dc:format>image/svg+xml</dc:format>
        <dc:type
           rdf:resource="http://purl.org/dc/dcmitype/StillImage" />
        <dc:title></dc:title>
      </cc:Work>
    </rdf:RDF>
  </metadata>
  <g
     inkscape:label="Layer 1"
     inkscape:groupmode="layer"
     id="layer1"
     transform="translate(44.748399,95.983191)">
    <g
       id="g1009"
       transform="translate(2.8679976,22.163329)">
      <path
         id="path817"
         d="m 193.81057,-118.0481 c 1.96497,-0.127 4.2157,-0.27164 6.03956,0.55033 7.38364,2.33186 14.27691,5.79967 20.21064,10.81264 3.92641,3.40783 7.32366,7.298974 10.37872,11.49703 2.60703,3.767667 4.86833,7.630583 4.96005,12.35075 0.0565,1.23825 -0.40922,2.268361 -0.82902,3.39725 -1.00542,3.185584 -1.90148,6.378223 -3.29142,9.429751 -4.01461,9.3345 -9.20397,18.19275 -15.34583,26.289001 -4.29684,5.644444 -9.34156,11.066639 -15.12712,15.20825 -6.14538,4.420306 -13.23975,7.337778 -20.81036,7.997473 -1.60514,0.08467 -3.10444,0.239888 -4.54025,-0.624417 -0.70555,-0.313972 -1.56633,-0.9525 -2.33539,-0.504472 -3.96875,1.859139 -7.16844,4.441472 -10.7068,6.949722 -1.00542,0.6985 -1.7145,1.601611 -2.52236,2.501195 0.70908,1.74625 0.93486,3.5701108 0.57502,5.425722 -0.29633,1.1183056 -1.08655,1.6263056 -1.88383,2.3600834 -3.79589,4.18394461 -7.69408,8.2902781 -11.55347,12.421306 -7.41539,8.0221666 -14.37217,16.7428336 -21.46653,25.1036676 -0.60678,0.719667 -1.30528,1.42875 -1.77447,2.243667 -0.35984,4.406194 0.35278,8.660694 0.23636,13.059833 -1.30881,0.127 -2.6035,0.303389 -3.8982,0.525639 -0.23636,0.867834 -0.27163,1.7145 -0.23636,2.610556 0.0882,3.305528 -0.20461,6.589889 -0.21166,9.891889 0,1.164167 -0.16581,2.218973 -0.49742,3.330223 -0.59619,2.053166 -0.63147,4.028722 -1.50636,6.00075 -1.25589,2.755194 -1.68628,5.390444 -3.302,7.955139 -0.51153,0.85725 -1.21708,1.661583 -1.60514,2.582333 -0.17639,1.012473 0.0106,2.109612 0.0706,3.129139 0.42686,7.03439 0.81491,14.061723 1.19944,21.09611 0.0141,1.62278 -0.0564,3.24203 0.0706,4.86128 0.67027,0.3175 1.31586,0.62089 2.06375,0.68792 3.31258,0.2928 6.6428,0.27869 9.9448,-0.12348 2.77989,-0.33513 5.64797,-0.71261 8.30792,-1.61219 1.22766,-0.31044 1.36525,-1.80269 1.74978,-2.80811 -1.64395,0.16228 -3.28084,0.40922 -4.92125,0.635 -1.77095,0.23989 -3.43606,0.79728 -5.23523,0.87136 -3.19969,0.14464 -6.5158,0.49389 -9.70139,0.13406 -0.42686,-1.19945 -0.76905,-2.40242 -0.83961,-3.683 -0.19755,-3.18206 -0.45861,-6.353532 -0.44097,-9.546171 -0.0811,-2.942167 -0.17286,-5.877278 -0.0212,-8.819445 0.13759,-2.250723 -0.19402,-4.780139 0.67381,-6.847417 0.37747,-0.973667 0.635,-1.975556 0.89958,-2.9845 0.36336,-1.382889 1.27353,-2.501195 1.7145,-3.8735 0.66675,-2.049639 1.53811,-3.845278 1.87325,-5.909028 0.31045,-1.813278 0.43392,-3.630084 0.91017,-5.415139 0.45861,-1.689806 0.19403,-3.407834 0.79022,-5.072945 0.49036,1.146528 1.17122,2.243667 1.50989,3.429 0.43039,1.516945 0.60678,3.055056 1.12536,4.557889 1.09009,2.980972 0.95603,6.459361 1.78859,9.496778 0.9525,2.54 -0.0706,5.372806 0.85019,7.902223 0.50094,0.543278 1.45697,0.751416 1.8415,1.361722 0.70203,1.569861 1.37583,3.072695 1.59456,4.79425 0.48683,2.677584 0.45508,5.259917 1.28411,7.806973 0.4445,2.980972 0.44802,6.14539 1.29116,9.04522 0.40923,0.0247 0.81492,0.0353 1.22061,0.0353 0.63853,-1.35467 1.17123,-2.67053 1.10773,-4.20158 -0.0529,-2.257781 0.25047,-4.667254 -0.26459,-6.872115 -0.58914,-1.93675 -0.26458,-3.975806 -0.4833,-6.078361 -0.28575,-2.504722 -0.26106,-5.376334 -1.09714,-7.761112 -0.61736,-1.478138 -1.74272,-2.201333 -3.1362,-2.853972 -0.15875,-1.016 -0.24341,-2.067278 -0.50447,-3.062111 -1.17475,-3.697111 -0.8008,-7.902223 -2.13783,-11.528778 -0.50447,-1.703917 -0.74789,-3.626556 -1.47461,-5.231695 -0.6985,-1.506361 -0.97367,-2.956278 -2.28953,-4.09575 -0.73025,-0.811389 -1.54164,-0.532695 -2.51178,-0.522111 -0.0388,-0.437445 -0.0741,-0.874889 -0.10583,-1.312334 1.85561,-0.148166 3.71475,-0.201083 5.57389,-0.239888 0.54328,1.74625 0.77258,3.538361 1.2065,5.312833 1.04422,4.370917 2.4765,8.692445 3.98991,12.922251 0.34925,1.023055 0.88548,1.933222 1.49225,2.818694 1.21709,2.829278 3.25614,5.309306 4.52614,8.113889 0.24342,2.278945 -0.0247,4.617862 0.13759,6.910917 0.27869,3.418417 0.36689,6.865056 0.44802,10.290528 0.27517,3.400775 0.22578,6.829775 0.19403,10.241135 0.0564,1.01248 -1.016,1.85914 -1.43228,2.76225 -1.11477,2.16253 -3.48544,2.61056 -5.59505,3.31612 0.0388,3.9758 0.51505,7.93044 0.44097,11.90272 0.0106,5.76439 0.14817,11.52525 0.1905,17.28611 0.34925,7.40128 -0.0388,14.81314 0.48683,22.225 0.0247,5.64092 0.0423,11.29947 0.34573,16.93333 0.0388,11.58523 0.51152,22.99053 0.46566,34.57223 0.0106,1.90147 -0.0741,3.69358 0.54328,5.52803 0.76553,-0.0176 1.79211,-0.41628 2.413,0.14464 0.83608,0.64558 2.09197,1.21002 2.17664,2.38477 0.71967,3.94406 0.33161,8.04334 0.71261,12.05089 0.067,2.58586 0.0741,5.17525 0.16933,7.76111 0.0388,1.37584 0.007,2.74461 -0.16933,4.10986 -1.26294,0.18345 -2.82928,-0.0953 -3.71475,1.016 -1.86619,2.04964 -2.20839,4.64962 -1.91911,7.32014 0.76906,-0.41627 0.68086,-1.25941 0.92075,-2.01436 0.34572,-1.63336 0.93486,-3.16089 2.21192,-4.29683 0.68439,0.20461 1.397,0.45156 2.10608,0.52917 0.52211,-0.11642 1.01247,-0.41981 1.48872,-0.6597 16.33361,13.03867 31.97931,27.04395 47.90723,40.5765 0.8255,0.68439 1.62277,1.51342 2.56822,2.02848 0.85725,0.0917 1.84855,-0.22931 2.6035,0.18697 0.63853,0.29633 1.26647,0.60678 1.94028,0.8255 1.45344,0.4833 2.69522,1.28058 4.04636,2.02847 1.48166,0.86078 2.99861,1.67922 4.42383,2.62819 0.53975,0.40923 1.21708,0.85373 1.55222,1.45698 -0.24694,2.36008 -0.16933,4.46969 -1.32997,6.62164 -1.20297,2.44475 -3.61597,3.94758 -6.25122,4.39913 -1.524,0.16581 -3.15383,0.0529 -4.29683,-1.08655 -1.91559,-1.97908 -3.61245,-4.14161 -5.54567,-6.10658 -1.524,-1.59456 -2.49061,-3.6195 -4.20864,-4.96359 -14.86606,-12.87286 -30.02845,-25.37883 -44.68989,-38.56214 -0.74789,-0.71966 -1.51695,-1.397 -2.34245,-2.02494 -2.86808,0.36336 -5.73263,1.09008 -8.62188,1.19944 -0.0141,1.24884 0.10583,2.48709 0.22577,3.72534 0.39511,5.36575 0.79375,10.77383 1.59103,16.09372 0.51858,0.20461 1.03364,0.41628 1.54164,0.63853 0.69497,1.72155 0.70908,3.41841 0.73731,5.23875 0.43391,2.01436 1.09361,3.79941 0.9278,5.93019 -0.25753,0.93486 -0.81492,1.78506 -1.77447,2.10608 -2.14136,0.75142 -4.74133,0.48331 -6.94267,0.13406 -0.84314,-0.14464 -1.68275,-0.22578 -2.2613,-0.93133 -0.33867,-1.5487 -0.48331,-3.16089 -0.5962,-4.74134 -0.14464,-2.0955 0.30339,-4.14161 0.23989,-6.23711 0.13406,-1.18533 0.90311,-1.58044 1.85914,-2.08139 -0.004,-6.55461 -0.81492,-13.17978 -1.28764,-19.72028 -2.01436,-0.19755 -4.02167,-0.43744 -6.03603,-0.65616 -13.98764,12.74586 -27.978804,25.5023 -41.969971,38.24464 -0.970139,0.95955 -1.386416,2.55411 -1.922639,3.71475 -1.241778,1.2453 -2.377722,2.55764 -3.788833,3.62303 -2.271889,1.78505 -4.328584,4.21569 -6.935612,5.44336 -1.834444,0.88194 -3.965222,0.54327 -5.831416,-0.0494 -2.490612,-0.77259 -4.907139,-2.64936 -5.672667,-5.22817 -0.4445,-0.9278 -0.306917,-1.3088 0.28575,-2.0955 2.670528,-3.06917 5.722056,-5.83494 8.872361,-8.40317 1.255889,-0.97719 2.511778,-2.02847 3.901723,-2.80811 1.322916,-0.81139 2.853972,0.21167 4.0005,-0.9278 13.3985,-11.41942 26.75114,-22.88823 40.142584,-34.30411 1.3335,-1.18534 2.82222,-2.21898 4.06047,-3.49956 0.24342,-0.74436 0.0776,-1.64747 0.0847,-2.42711 -0.29633,-6.47347 -0.41981,-12.91872 -0.22225,-19.39925 0.254,-2.08492 0.0952,-4.54378 0.92075,-6.49111 1.54164,-1.38995 3.29494,-1.79211 5.18231,-2.45886 0.10936,-1.01953 0.25752,-2.01437 0.20461,-3.04448 -0.29281,-5.04119 -0.14464,-10.14589 -0.24695,-15.16944 -0.15522,-2.58939 -0.0635,-5.16467 -0.0988,-7.76111 -0.14463,-17.28612 0.0212,-34.57575 -0.18697,-51.85834 0.0106,-1.41817 -0.18344,-2.81869 -0.17991,-4.23333 0.0212,-8.41728 -0.0706,-16.83809 -0.14817,-25.25536 -1.23472,-0.16934 -2.63172,-0.21167 -3.78178,-0.70556 -1.24883,-0.39864 -1.67217,-2.00731 -2.24367,-3.07975 -0.43744,-2.24014 -0.067,-4.66372 -0.2293,-6.94619 -0.27164,-2.92806 -0.0917,-5.866699 -0.41275,-8.798283 -0.49389,-3.940527 -0.29986,-8.057444 0.0635,-11.994444 0.18344,-1.407584 -0.0988,-2.730501 0.87136,-3.859389 2.12725,-2.515306 3.09033,-5.556251 4.43794,-8.618362 0.81492,-1.5875 0.27164,-3.263194 -0.0106,-4.935361 -0.81844,-2.614084 -0.66322,-5.626806 -0.92075,-8.357306 -0.16228,-1.647472 -0.27869,-3.287889 -0.15169,-4.938889 0.2928,-4.466167 -0.22578,-8.844139 -0.10936,-13.285612 -9.26395,10.724445 -18.489089,21.48064 -27.668367,32.279168 -0.313972,0.34925 -0.642056,0.677334 -0.973667,1.008945 -2.130778,-0.246945 -3.972278,-1.248834 -6.050139,-1.654528 -1.834444,-0.3175 -3.393722,-1.986139 -4.804833,-3.125611 -0.970139,1.188861 -2.00025,2.300111 -2.808111,3.615972 -1.594556,2.455333 -3.686528,4.039306 -5.785556,6.007806 -0.970139,-0.07408 -1.862667,-0.176389 -2.758723,-0.575028 -1.262944,-0.557389 -2.663472,-0.211667 -3.951111,0.07408 -3.376083,0.917222 -6.593417,2.688167 -9.507361,4.589639 -4.861278,3.234973 -9.260417,7.207251 -13.088056,11.609917 -5.471584,6.233584 -10.057695,13.359696 -13.839473,20.729226 -8.124472,15.83267 -12.728223,33.59503 -14.548556,51.24803 -0.4727223,4.11339 -0.6843889,8.23383 -0.9736667,12.35781 -0.1093611,3.06563 -0.1164167,6.12775 -0.3139722,9.18986 -0.2398889,13.63839 0.1799166,27.26619 -0.1093612,40.91164 -0.3880555,12.81289 -1.8450278,25.25183 -6.1665557,37.39444 -4.8753891,14.02645 -13.2150562,26.53242 -23.5796672,37.09812 -4.332112,4.41325 -8.978195,8.5725 -13.920612,12.28725 h -2.878667 c 5.037667,-3.43959 9.334501,-7.6447 13.412612,-12.14967 9.856611,-11.16542 18.4785005,-23.9395 23.2374729,-38.14586 0.6667501,-2.13431 1.56280564,-4.01461 1.60513897,-6.23359 -0.58561117,0.7232 -0.97366667,1.46756 -1.28411117,2.34245 -3.1150279,8.56191 -7.4295002,16.57703 -12.6329727,24.04533 -4.706056,6.80509 -9.927167,13.28561 -15.645695,19.27225 -3.77825,3.94053 -7.888111,7.48947 -12.170834,10.86909 h -5.249333 c 12.209639,-8.42081 23.63964,-18.8842 32.063973,-31.15381 7.6693893,-11.02431 12.6470839,-23.75606 14.76022287,-37.00286 0.73025002,-4.52967 1.28763893,-9.1052 1.49577783,-13.68778 0.4056945,-3.5172 0.1905,-7.05556 0.5009445,-10.58333 0.1869722,-9.99067 0.035278,-19.99545 0.2187222,-29.98612 0.2998611,-3.66536 0.1023055,-7.34483 0.47625,-10.99961 0.1834445,-4.57553 0.5926667,-9.15105 1.1218334,-13.70189 1.5204723,-13.64897 4.7625001,-27.05453 9.7190282,-39.86389 3.834694,-9.93069 8.763,-19.48392 14.813139,-28.250447 4.035778,-5.799666 8.523112,-11.137194 13.906501,-15.733889 4.134555,-3.474861 8.6995,-6.491111 13.744222,-8.459611 1.859139,-0.744362 3.799417,-1.083028 5.697362,-1.700389 0.3175,-1.4605 0.98425,-2.617612 1.87325,-3.795889 1.996722,-2.977445 4.656667,-5.372806 6.702778,-8.318501 -0.811389,-1.202972 -1.576917,-2.423583 -2.261306,-3.704166 -0.582083,-1.17475 -1.509889,-1.813278 -1.830917,-3.115028 -0.176388,-0.846667 -0.310444,-1.742723 -0.239888,-2.607028 0.440972,-1.153584 1.4605,-2.113139 2.183694,-3.104445 6.469945,-8.22325 12.985751,-16.411223 19.473334,-24.620362 0.864306,-1.224139 1.778,-2.137833 2.95275,-3.055055 2.028473,-2.44475 3.848806,-5.118806 5.693834,-7.704667 3.580694,-4.7448616 7.380112,-9.3239173 11.049002,-14.0017508 1.03011,-1.3405556 2.17664,-2.589389 3.06916,-4.0110835 -0.52563,-0.9383889 -1.14652,-1.7674167 -0.93486,-2.9104167 0.52211,-1.7533057 1.38995,-3.242028 2.42711,-4.734278 2.08492,-3.411361 4.66726,-6.244167 7.20373,-9.383889 3.48191,-4.289778 6.81214,-8.66775 10.43516,-12.851695 3.02684,-3.481917 6.09248,-7.179028 9.56381,-10.188223 0.64206,-0.546805 1.44639,-0.910166 2.04964,-1.49225 0.1905,-0.41275 0.33161,-0.846666 0.49036,-1.27 -1.00189,-0.987778 -1.97203,-1.80975 -2.34244,-3.2385 -0.6985,-2.490611 0.1023,-5.351639 0.85372,-7.757583 3.94758,-11.775723 9.73667,-22.828251 17.75883,-32.346196 8.37142,-10.114138 18.67959,-18.524358 30.15898,-24.870828 2.02494,-1.01248 4.36386,-1.47461 6.5793,-1.87678 z"
         inkscape:connector-curvature="0"
         style="fill:#040000;stroke-width:0.35277778" />
      <path
         id="path819"
         d="m 202.9334,-112.01207 c 0.42687,-0.0494 0.85725,0.34925 1.21709,0.54327 -1.7145,1.11478 -3.69006,1.64042 -5.40103,2.76578 0.97367,0.34925 2.20839,1.09361 3.22439,0.5715 1.58397,-0.69144 3.03036,-1.53105 4.77308,-1.79916 0.13759,0.18697 0.27517,0.37747 0.41628,0.56797 -1.29469,0.84314 -2.67758,1.50283 -3.92994,2.41653 2.24719,1.3335 4.55788,2.51883 6.66397,4.08164 1.37583,1.05127 3.12914,1.98261 4.04283,3.450162 -0.90311,-0.373945 -1.71803,-0.874892 -2.50119,-1.460502 -2.55411,-1.88736 -5.28109,-3.56658 -8.13859,-4.95653 -0.45508,-0.1658 -1.04069,-0.55386 -1.51341,-0.28927 -1.29117,0.58913 -2.45886,1.53458 -3.53836,2.44475 1.65805,1.10772 3.43958,1.99319 5.06588,3.15383 3.55248,2.50825 6.85095,5.358694 9.60967,8.73125 1.18181,1.464028 2.54353,2.582333 3.14678,4.360333 -1.94733,-1.291166 -3.00214,-3.160889 -4.76956,-4.843639 -3.07622,-2.966861 -6.39233,-5.704417 -10.01183,-7.986884 -1.41464,-0.90312 -2.80106,-1.81328 -4.36739,-2.44475 -1.21003,0.59266 -2.20839,1.38641 -3.17147,2.32127 1.03011,0.740836 2.13078,1.347614 3.23144,1.972031 2.99156,1.778 5.7397,3.827639 8.42434,6.036028 0.61736,0.493889 1.09361,1.093611 1.52047,1.753305 -1.87325,-0.867833 -3.28436,-2.307166 -5.06589,-3.503083 -2.90336,-1.986139 -5.94078,-3.922889 -9.17575,-5.323417 -1.66158,0.966611 -3.10444,2.353028 -4.51203,3.647722 1.37231,1.086556 2.89278,1.919112 4.31447,2.931584 2.61409,1.827389 5.06942,3.84175 7.39775,6.018389 1.27,1.210028 2.77637,2.06375 3.45017,3.711222 -1.56633,-0.733778 -2.45886,-1.940278 -3.79236,-3.019778 -3.78178,-3.20675 -7.8105,-6.307667 -12.17083,-8.685389 -1.3582,0.811389 -2.45534,1.848556 -3.43606,3.086806 2.54706,2.010833 5.48217,4.198056 7.33072,6.896806 -1.63689,-0.589139 -2.67405,-1.742723 -4.04636,-2.741084 -1.43228,-1.04775 -2.8328,-2.088444 -4.40972,-2.913944 -1.32644,1.273527 -2.65289,2.575278 -3.66536,4.113389 1.57339,1.647472 3.43605,2.483555 4.72722,4.353278 -2.13783,-0.733778 -3.47839,-2.554112 -5.54919,-3.520723 -1.74625,1.926167 -3.0727,4.191 -4.84717,6.078362 -0.0388,-0.448028 -0.0635,-0.790223 0.20814,-1.181806 1.13947,-1.957917 2.667,-3.545417 3.74297,-5.559778 -1.34408,-0.874889 -2.70228,-1.61925 -4.17689,-2.250722 -0.66322,0.497416 -1.28764,1.030111 -1.85208,1.633361 -4.7237,4.910667 -9.37684,10.181167 -12.89756,16.03375 -0.41275,0.66675 -0.92428,1.248834 -1.48872,1.792112 0.18697,-0.744362 0.40569,-1.474612 0.76906,-2.155473 3.66536,-6.706305 8.35377,-12.456583 13.47258,-18.090445 -0.97014,-0.758472 -2.05317,-1.104194 -3.23497,-1.372305 -0.59267,0.486833 -1.16417,0.994833 -1.651,1.594555 -2.35656,2.878667 -4.68842,5.637389 -6.74511,8.759473 -0.5327,0.821972 -1.11125,1.495778 -1.87325,2.113139 0.28575,-0.987778 0.67733,-1.87325 1.23119,-2.737556 1.44639,-2.286 2.96333,-4.54025 4.60022,-6.695722 0.93486,-1.245306 2.00378,-2.300112 2.71286,-3.711223 -0.64558,0.08467 -1.31939,-0.130527 -1.77447,0.416278 -0.82903,0.814917 -1.49578,1.813278 -2.21544,2.726972 -6.21948,7.965723 -12.53773,16.795751 -16.4077,26.176112 1.62984,-0.303388 3.13267,-0.705555 4.80131,-0.758472 3.09386,-0.119944 6.07483,0.585611 8.94997,1.675695 6.43467,2.441222 11.69811,6.529917 16.55939,11.310056 3.83822,3.866444 7.28486,8.300861 9.78606,13.155083 0.80433,1.576917 0.89958,3.062112 0.37747,4.755445 -1.27,-1.566333 -2.14136,-3.358445 -3.33728,-4.981222 -3.55953,-4.935362 -7.73995,-9.436806 -12.41425,-13.331473 -5.41161,-4.564945 -11.53583,-8.060973 -18.59139,-9.253361 -2.10608,-0.268112 -4.49792,-0.398639 -6.53344,0.299861 -1.01953,0.313972 -1.76742,1.943805 -2.85751,1.287639 -0.0776,-2.144889 0.68087,-3.972278 1.34762,-5.976056 2.21897,-6.219473 5.60564,-11.669889 9.46855,-16.986251 3.63714,-4.988278 7.48242,-9.895417 11.76161,-14.351 2.52589,-2.868084 5.41161,-5.43631 8.35378,-7.87047 1.397,-1.08656 2.60703,-2.20134 4.32153,-2.77989 -1.01953,1.47108 -2.45533,2.48708 -3.56306,3.88055 0.63148,0.18345 1.36173,0.52564 2.02848,0.46214 1.23472,-0.64911 2.31422,-1.68628 3.34786,-2.61761 -0.27164,-0.39864 -0.54328,-0.79728 -0.81492,-1.19592 1.28764,-0.16933 2.5012,-0.0494 3.59128,-0.82902 3.20322,-2.21545 7.07672,-5.11881 11.03842,-5.55625 -0.41628,0.59619 -0.889,1.12183 -1.41817,1.61925 1.61572,0.0494 3.63361,0.68439 5.12233,-0.0247 1.76742,-0.72672 3.77825,-1.79211 5.71147,-1.9438 z"
         inkscape:connector-curvature="0"
         style="fill:#4c4c4c;stroke-width:0.35277778" />
      <path
         id="path821"
         d="m 191.24588,-109.54968 c 1.17827,0.0317 2.38125,0.37041 3.51719,0.67027 -1.88736,1.26648 -3.8735,2.34245 -5.67267,3.73945 -0.7373,0.50447 -1.53105,1.23825 -2.413,1.43933 -1.08655,-0.06 -2.20133,-0.61736 -3.18205,-1.06186 1.651,-1.40758 3.58775,-2.55764 5.41161,-3.75003 0.69497,-0.40216 1.51694,-0.99483 2.33892,-1.03716 z"
         inkscape:connector-curvature="0"
         style="fill:#040000;stroke-width:0.35277778" />
      <path
         id="path823"
         d="m 197.65938,-107.92338 c 0.83961,-0.0318 1.73919,0.4445 2.50472,0.76906 -1.13242,0.92427 -2.34245,1.95439 -3.69711,2.52236 -1.00542,0 -2.05317,-0.55386 -2.9845,-0.89959 1.27353,-0.89958 2.66347,-1.9685 4.17689,-2.39183 z"
         inkscape:connector-curvature="0"
         style="fill:#040000;stroke-width:0.35277778" />
      <path
         id="path825"
         d="m 192.40299,-104.67077 c 0.91722,-0.10936 1.95791,0.61384 2.74814,1.03011 -0.97014,0.94192 -1.97203,1.7392 -3.15736,2.39889 -0.99837,-0.32455 -1.89089,-0.73025 -2.78342,-1.28058 0.94544,-0.79375 2.01083,-1.74625 3.19264,-2.14842 z"
         inkscape:connector-curvature="0"
         style="fill:#040000;stroke-width:0.35277778" />
      <path
         id="path827"
         d="m 182.14068,-103.58421 c 1.08656,0.0353 2.22603,0.57855 3.21028,1.01247 -1.11831,1.10067 -2.30717,2.30011 -3.69358,3.051528 -1.10773,0.0635 -2.33186,-0.677328 -3.33023,-1.111248 1.05834,-1.1677 2.36362,-2.32128 3.81353,-2.95275 z"
         inkscape:connector-curvature="0"
         style="fill:#040000;stroke-width:0.35277778" />
      <path
         id="path829"
         d="m 187.8451,-101.44638 c 1.03011,-0.0388 2.13783,0.64559 3.048,1.07597 -1.21356,1.449921 -2.65289,2.656421 -4.19453,3.742976 -1.09008,-0.440972 -1.98967,-0.959555 -2.91394,-1.68275 1.27,-1.104194 2.56469,-2.345976 4.06047,-3.136196 z"
         inkscape:connector-curvature="0"
         style="fill:#040000;stroke-width:0.35277778" />
      <path
         id="path831"
         d="m 173.37063,-100.82902 c 0.65969,-0.0988 1.397,0.16581 2.04258,0.31398 -0.94545,0.948967 -1.89442,1.915578 -2.94217,2.748134 -0.56444,0.589139 -1.61219,0.144639 -2.31775,0.08114 0.91017,-1.128889 1.9297,-2.441224 3.21734,-3.143254 z"
         inkscape:connector-curvature="0"
         style="fill:#040000;stroke-width:0.35277778" />
      <path
         id="path833"
         d="m 177.24413,-99.731878 c 1.13241,0.0035 2.30364,0.744361 3.24202,1.319389 -0.99836,1.083028 -2.06375,2.039055 -3.31963,2.822222 -1.07598,-0.28575 -2.09198,-0.652639 -3.09739,-1.135944 0.8643,-1.146528 1.92616,-2.275417 3.175,-3.005667 z"
         inkscape:connector-curvature="0"
         style="fill:#040000;stroke-width:0.35277778" />
      <path
         id="path835"
         d="m 182.81449,-97.329461 c 1.11125,0.34925 2.10961,0.917222 3.0868,1.548694 -0.92427,1.210028 -1.91558,2.204861 -3.11855,3.136195 -1.19945,-0.479778 -2.2225,-1.0795 -3.25261,-1.852084 0.97366,-1.132417 1.90852,-2.183694 3.28436,-2.832805 z"
         inkscape:connector-curvature="0"
         style="fill:#040000;stroke-width:0.35277778" />
      <path
         id="path837"
         d="m 169.07732,-96.232323 c 0.46214,0.09878 0.91722,0.215195 1.37231,0.335139 -0.7232,0.991306 -1.48873,2.049639 -2.42359,2.850445 -0.4833,0.486833 -1.17122,0.254 -1.79564,0.289278 0.70203,-1.354667 1.56986,-2.599973 2.84692,-3.474862 z"
         inkscape:connector-curvature="0"
         style="fill:#040000;stroke-width:0.35277778" />
      <path
         id="path839"
         d="m 172.29818,-95.198684 c 1.22414,0.137584 2.32128,0.606778 3.41842,1.135945 -1.03011,1.280583 -2.15195,2.472972 -3.48192,3.453694 -1.06539,-0.356305 -1.99319,-0.797277 -2.93511,-1.414639 0.83256,-1.217083 1.77447,-2.331861 2.99861,-3.175 z"
         inkscape:connector-curvature="0"
         style="fill:#040000;stroke-width:0.35277778" />
      <path
         id="path841"
         d="m 177.89677,-93.043211 c 1.34055,0.426861 2.54705,1.104194 3.74297,1.830916 -1.09361,1.425223 -2.24014,2.815167 -3.49603,4.095751 -1.41111,-0.631473 -2.67053,-1.485195 -3.88056,-2.441223 1.06539,-1.277055 2.26131,-2.54 3.63362,-3.485444 z"
         inkscape:connector-curvature="0"
         style="fill:#040000;stroke-width:0.35277778" />
      <path
         id="path843"
         d="m 150.27074,-55.22896 c 6.93208,1.485194 13.57489,4.198056 18.94769,8.918223 4.15925,3.637139 7.71878,7.986889 10.57981,12.707056 1.01247,1.527527 1.32291,3.728861 0.45861,5.372805 -0.93839,1.27 -2.57881,1.266473 -4.01108,1.192389 -0.26106,-2.772833 -1.69687,-4.924778 -3.39373,-7.030861 -4.01461,-4.938889 -9.52853,-8.441973 -15.44814,-10.664473 -0.60677,-0.22225 -1.23825,-0.328083 -1.8803,-0.405694 0.88194,1.054805 2.4518,1.506361 3.65125,2.166055 4.064,2.053167 7.80344,4.815417 10.9608,8.092723 1.6757,1.816806 3.45017,3.894667 4.37092,6.208889 0.18344,0.546806 0.41981,1.583972 0.0106,2.049639 -3.6583,2.610556 -7.63764,4.783667 -11.16541,7.574139 -1.51695,1.178278 -3.20323,2.084917 -4.6602,3.354917 -0.74083,-1.478139 -1.15005,-3.033889 -1.77094,-4.561417 -1.24531,-3.125611 -2.61409,-6.223 -4.24039,-9.172222 -0.85725,-1.569862 -1.93675,-2.963334 -2.921,-4.452056 0.55739,-1.502834 0.69497,-2.522361 0.42333,-4.116917 4.88597,2.786945 9.26042,6.685139 12.42131,11.348862 0.91369,1.252361 1.36525,2.988027 2.6035,3.884083 -0.16228,-1.259417 -0.64911,-2.391833 -1.20297,-3.520722 -2.36009,-4.773084 -6.23006,-8.636001 -10.54453,-11.680473 -3.53836,-2.458861 -7.59178,-4.039306 -11.96975,-3.683 0.85725,-2.233084 2.27541,-4.610806 2.59997,-6.977945 0.13406,-1.869722 0.52917,-3.690055 0.78317,-5.542139 1.59808,-0.790222 3.60539,-1.513417 5.3975,-1.061861 z"
         inkscape:connector-curvature="0"
         style="fill:#a7a7a8;stroke-width:0.35277778" />
      <path
         id="path845"
         d="m 138.59732,-42.366682 c -2.43417,4.501445 -6.48406,8.043334 -9.04522,12.484806 -0.88548,1.4605 -2.032,2.592917 -3.12914,3.887611 -3.98639,4.663723 -7.67997,9.465029 -11.50056,14.255751 -1.16416,1.4605 -2.14489,2.95275 -3.58775,4.1733612 0.10936,-1.3828889 0.43392,-2.5047222 1.37936,-3.5489442 2.8187,-3.217334 5.31989,-6.674556 7.96925,-10.029473 4.41325,-5.693833 9.16517,-11.041945 13.76186,-16.577028 1.37231,-1.626306 2.47298,-3.298473 4.1522,-4.646084 z"
         inkscape:connector-curvature="0"
         style="fill:#4c4c4c;stroke-width:0.35277778" />
      <path
         id="path847"
         d="m 140.90801,-40.112432 c 2.02495,-0.197555 4.4062,0.134056 6.29709,0.910167 -1.06892,0.627944 -2.19075,1.083028 -2.99156,2.060222 -1.55928,1.926167 -3.05505,3.947584 -4.77308,5.739695 0.78316,-1.312333 2.20486,-2.667 2.46591,-4.191 0.14817,-1.432278 -1.26294,-1.770945 -2.22602,-2.405945 0.3563,-0.6985 0.66322,-1.552222 1.22766,-2.113139 z"
         inkscape:connector-curvature="0"
         style="fill:#a7a7a8;stroke-width:0.35277778" />
      <path
         id="path849"
         d="m 148.21757,-35.286432 c -0.86078,2.945695 -3.39372,4.501445 -5.29872,6.74864 -5.66914,6.477 -10.87967,13.373806 -16.1537,20.1753614 -2.48708,3.224389 -4.89655,6.417028 -7.06261,9.8742503 -0.49742,0.7902223 -0.84314,1.636889 -1.09714,2.5294168 1.37936,-0.8784167 2.07434,-2.1343056 3.08681,-3.36550013 5.22816,-6.42408357 10.21291,-13.02455637 15.60336,-19.32163937 3.64419,-4.406195 7.61647,-8.533695 11.00314,-13.126862 0.62442,0.818445 1.19592,1.672167 1.6898,2.575278 3.16089,5.697361 5.77498,11.719278 7.874,17.885834 0.27517,0.889 0.62442,1.890889 0.56798,2.8292779 -0.30339,0.7761112 -0.93134,1.4605001 -1.47109,2.0849168 -1.59455,1.7109723 -3.0233,3.5454168 -4.72722,5.1576113 -3.72533,3.5348334 -7.17903,7.4471391 -10.48808,11.377084 -7.35895,8.85825 -14.51681,17.949334 -21.81931,26.842862 -0.28928,-0.09172 -0.57855,-0.186972 -0.86783,-0.282222 0.33866,-1.894417 0.94897,-3.718278 1.31233,-5.609167 0.61736,-3.125612 1.04422,-6.318251 1.12183,-9.507362 -0.067,-5.17525 -1.08302,-10.304639 -2.89983,-15.1482781 -0.58914,-1.6016112 -1.5875,-2.9880279 -2.18017,-4.5931668 0.87489,-1.49225007 2.04259,-2.69875011 3.08681,-4.0675279 7.40128,-9.4262222 14.76375,-18.8841952 22.02039,-28.4197792 1.48872,-1.837972 2.76931,-4.582583 4.85775,-5.739694 0.82197,-0.515056 2.12019,0.02469 1.8415,1.100666 z"
         inkscape:connector-curvature="0"
         style="fill:#4c4c4c;stroke-width:0.35277778" />
      <path
         id="path851"
         d="m 139.1406,-34.92307 c -0.49389,1.033639 -1.12889,1.979083 -1.82739,2.885722 -1.38995,1.80975 -2.70228,3.675944 -3.94406,5.588 -0.47272,0.719667 -0.80433,1.432278 -1.05128,2.257778 1.60162,-0.687917 2.58939,-2.423583 3.95817,-3.566583 -0.66675,1.072444 -1.47108,2.021416 -2.27542,2.988027 -5.83141,7.076723 -11.68752,13.952362 -17.04269,21.41714 -0.96661,1.4428612 -2.10961,2.938639 -2.71286,4.5755279 -0.0423,1.255889 0.4833,2.5964446 0.82197,3.7994168 1.41817,4.2933058 2.7305,8.4666673 3.06917,13.0245563 0.12347,4.15925 0.1905,8.089194 -0.81492,12.163778 -0.24342,0.677333 -0.95955,1.188861 -1.397,1.753306 -0.90664,0.934861 -0.78669,2.25425 -1.68275,3.234972 C 104.24029,46.469821 94.231984,57.596433 84.170762,68.811239 84.040234,67.294294 83.874428,65.847905 83.101845,64.50735 80.547734,59.815405 76.21915,56.368766 72.271567,52.975044 c 1.55575,-2.211917 3.390195,-4.22275 5.027083,-6.378223 1.703917,-2.236611 3.746501,-4.106333 4.670778,-6.69925 -0.472722,-0.638528 -0.991305,-1.231194 -1.524,-1.813278 0.874889,-1.337028 1.905,-2.543528 2.885723,-3.802944 16.929809,-21.642918 33.722029,-43.3881407 50.775309,-64.935808 0.84314,-1.030111 1.5875,-2.173111 2.52236,-3.125611 0.71614,-0.6985 1.57692,-0.896056 2.51178,-1.143 z"
         inkscape:connector-curvature="0"
         style="fill:#a7a7a8;stroke-width:0.35277778" />
      <path
         id="path853"
         d="m 136.69585,-28.407265 c 0.17991,0.179917 0.17991,0.179917 0,0 z"
         inkscape:connector-curvature="0"
         style="fill:#4c4c4c;stroke-width:0.35277778" />
      <path
         id="path855"
         d="m 79.468234,39.460127 c 0.22225,0.169333 0.437444,0.34925 0.645583,0.536222 0.155222,0.384528 -0.28575,0.860778 -0.4445,1.199444 -1.464028,2.243667 -3.231444,4.318 -4.843639,6.452306 -1.185333,1.566334 -2.141361,3.280834 -3.298472,4.864806 -0.543278,-0.328084 -1.0795,-0.659695 -1.612195,-1.001889 1.651,-2.409472 3.594806,-4.614334 5.358695,-6.942667 1.407583,-1.68275 2.614083,-3.58775 4.194528,-5.108222 z"
         inkscape:connector-curvature="0"
         style="fill:#a7a7a8;stroke-width:0.35277778" />
      <path
         id="path857"
         d="m 128.7266,48.124349 c 0.69144,0.497417 0.74436,1.5875 0.889,2.356556 0.74789,5.36575 1.72155,10.692695 3.06916,15.942028 0.43392,1.813278 1.05834,3.446639 1.06186,5.337528 -0.60677,-0.885472 -1.143,-1.795639 -1.49225,-2.818694 -1.51341,-4.229806 -2.94569,-8.551334 -3.98991,-12.922251 -0.43392,-1.774472 -0.66322,-3.566583 -1.2065,-5.312833 -1.85914,0.03881 -3.71828,0.09172 -5.57389,0.239888 0.0318,0.437445 0.067,0.874889 0.10583,1.312334 0.10936,1.259417 0.22578,2.515305 0.28575,3.77825 -0.59619,1.665111 -0.33161,3.383139 -0.79022,5.072945 -0.47625,1.785055 -0.59972,3.601861 -0.91017,5.415139 -0.33514,2.06375 -1.2065,3.859389 -1.87325,5.909028 -0.44097,1.372305 -1.35114,2.490611 -1.7145,3.8735 -0.26458,1.008944 -0.52211,2.010833 -0.89958,2.9845 -0.86783,2.067278 -0.53622,4.596694 -0.67381,6.847417 -0.15169,2.942167 -0.06,5.877278 0.0212,8.819445 -0.0176,3.192639 0.24342,6.364111 0.44097,9.546171 0.0706,1.28058 0.41275,2.48355 0.83961,3.683 3.18559,0.35983 6.5017,0.0106 9.70139,-0.13406 1.79917,-0.0741 3.46428,-0.63147 5.23523,-0.87136 1.64041,-0.22578 3.2773,-0.47272 4.92125,-0.635 -0.38453,1.00542 -0.52212,2.49767 -1.74978,2.80811 -2.65995,0.89958 -5.52803,1.27706 -8.30792,1.61219 -3.302,0.40217 -6.63222,0.41628 -9.9448,0.12348 -0.74789,-0.067 -1.39348,-0.37042 -2.06375,-0.68792 -0.127,-1.61925 -0.0564,-3.2385 -0.0706,-4.86128 -0.38453,-7.034387 -0.77258,-14.06172 -1.19944,-21.09611 -0.06,-1.019527 -0.24695,-2.116666 -0.0706,-3.129139 0.38806,-0.92075 1.09361,-1.725083 1.60514,-2.582333 1.61572,-2.564695 2.04611,-5.199945 3.302,-7.955139 0.87489,-1.972028 0.91017,-3.947584 1.50636,-6.00075 0.33161,-1.11125 0.49742,-2.166056 0.49742,-3.330223 0.007,-3.302 0.29986,-6.586361 0.21166,-9.891889 -0.0353,-0.896056 0,-1.742722 0.23636,-2.610556 1.2947,-0.22225 2.58939,-0.398639 3.8982,-0.525639 1.55575,-0.119944 3.14325,-0.34925 4.70253,-0.296333 z"
         inkscape:connector-curvature="0"
         style="fill:#4c4c4c;stroke-width:0.35277778" />
      <path
         id="path859"
         d="m 121.5899,52.258905 c 0.97014,-0.01058 1.78153,-0.289278 2.51178,0.522111 1.31586,1.139472 1.59103,2.589389 2.28953,4.09575 0.72672,1.605139 0.97014,3.527778 1.47461,5.231695 1.33703,3.626555 0.96308,7.831667 2.13783,11.528778 0.26106,0.994833 0.34572,2.046111 0.50447,3.062111 1.39348,0.652639 2.51884,1.375834 3.1362,2.853972 0.83608,2.384778 0.81139,5.25639 1.09714,7.761112 0.21872,2.102555 -0.10584,4.141611 0.4833,6.078361 0.51506,2.204861 0.21167,4.614334 0.26459,6.872115 0.0635,1.53105 -0.4692,2.84691 -1.10773,4.20158 -0.40569,0 -0.81138,-0.0106 -1.22061,-0.0353 -0.84314,-2.89983 -0.84666,-6.064248 -1.29116,-9.04522 -0.82903,-2.547056 -0.79728,-5.129389 -1.28411,-7.806973 -0.21873,-1.721555 -0.89253,-3.224389 -1.59456,-4.79425 -0.38453,-0.610306 -1.34056,-0.818444 -1.8415,-1.361722 -0.92075,-2.529417 0.10231,-5.362223 -0.85019,-7.902223 -0.83256,-3.037417 -0.6985,-6.515806 -1.78859,-9.496778 -0.51858,-1.502833 -0.69497,-3.040944 -1.12536,-4.557889 -0.33867,-1.185333 -1.01953,-2.282472 -1.50989,-3.429 -0.06,-1.262945 -0.17639,-2.518833 -0.28575,-3.77825 z"
         inkscape:connector-curvature="0"
         style="fill:#a7a7a8;stroke-width:0.35277778" />
      <path
         id="path861"
         d="m 68.105261,53.430127 c 1.848556,0.963083 3.429,2.423584 4.98475,3.799417 1.065389,0.938389 2.049639,1.950861 2.917473,3.076222 -0.994834,-0.631472 -1.929695,-1.4605 -3.009195,-1.929694 -0.66675,-0.05292 -1.375833,0.172861 -2.021417,0.3175 -1.291166,-1.527528 -2.321277,-3.33375 -2.871611,-5.263445 z"
         inkscape:connector-curvature="0"
         style="fill:#4c4c4c;stroke-width:0.35277778" />
      <path
         id="path863"
         d="m 73.432206,61.088933 c 0.903111,0.564444 1.615722,1.30175 2.271889,2.137833 -2.204861,3.058584 -5.002389,5.683251 -7.373056,8.618362 -0.807861,0.892528 -1.538111,2.070805 -2.921,1.869722 -1.132417,-0.04233 -2.208389,-1.287639 -1.407583,-2.321278 1.291166,-1.732139 3.026833,-3.097389 4.3815,-4.790722 1.672166,-1.813278 3.118555,-3.975806 5.04825,-5.513917 z"
         inkscape:connector-curvature="0"
         style="fill:#4c4c4c;stroke-width:0.35277778" />
      <path
         id="path865"
         d="m 78.395789,63.096239 c 1.421695,1.400527 2.3495,3.100916 2.829278,5.034139 -1.379361,-0.546806 -2.935111,-1.36525 -3.831167,-2.582334 -0.257527,-0.776111 0.592667,-1.830917 1.001889,-2.451805 z"
         inkscape:connector-curvature="0"
         style="fill:#4c4c4c;stroke-width:0.35277778" />
      <path
         id="path867"
         d="m 136.76287,95.654101 c 0.16228,2.240139 0.20109,4.501449 0.0353,6.741579 -0.27164,-2.25072 -0.11641,-4.444996 -0.0353,-6.741579 z"
         inkscape:connector-curvature="0"
         style="fill:#4c4c4c;stroke-width:0.35277778" />
      <path
         id="path869"
         d="m 126.89921,114.13613 c 0.32103,2.74108 0.16933,5.57389 0.20461,8.33967 -0.0282,12.11439 0.0529,24.2323 -0.18697,36.34316 -0.24342,4.93537 -0.19403,9.87073 -0.17992,14.80962 0.0106,1.08302 -0.0423,2.15547 -0.17639,3.23144 -1.143,-0.87489 -0.83255,-1.95086 -0.91369,-3.22792 0.0388,-2.36714 -0.381,-4.69547 -0.34573,-7.05908 0.0176,-2.18722 0.0494,-4.36386 -0.16227,-6.54403 -0.26106,-2.87514 -0.18345,-5.74322 -0.17286,-8.62542 0.0388,-2.04963 -0.68087,-3.95111 -0.67381,-5.99722 -0.12347,-9.525 -0.0212,-19.05353 -0.0847,-28.57853 0,-0.89252 0.06,-1.78505 0.20461,-2.67052 0.82903,-0.0917 1.65806,-0.0776 2.48709,-0.0212 z"
         inkscape:connector-curvature="0"
         style="fill:#4c4c4c;stroke-width:0.35277778" />
      <path
         id="path871"
         d="m 125.79501,195.6031 c 0.28223,-0.0388 0.56798,-0.0706 0.85373,-0.0953 0.0741,2.59645 0.17638,5.15762 0.39863,7.747 0.06,3.65125 0.0318,7.29192 0.26812,10.93964 0.0353,3.96875 0.4198,8.0645 -0.18345,11.94859 1.38642,-0.28575 2.69875,-0.0741 4.07811,-0.10936 1.85209,-0.56798 3.66536,-1.33703 5.45747,-2.07081 -0.23988,1.09714 -0.14816,2.92453 -1.34761,3.43606 -1.8168,1.06539 -4.44147,0.89958 -6.48052,0.91016 -2.61762,-0.0953 -5.06942,0.58914 -7.69056,0.23636 -1.905,-0.27163 -3.88408,-0.0317 -5.66914,-0.64558 -0.0317,-0.81844 -0.0388,-1.63336 -0.0212,-2.45533 1.43581,0.26458 2.72345,0.73378 4.19806,0.77258 1.98967,0.06 4.01108,0.14464 5.99369,-0.0141 -0.37747,-1.12183 -0.86077,-2.21192 -1.18533,-3.35139 -0.30692,-1.29822 -0.20814,-2.73755 -0.20108,-4.06753 0.0917,-2.54 -0.13053,-4.85775 0.40922,-7.35189 0.49389,-2.37419 0.14111,-4.63197 0.40569,-7.05908 0.32456,-2.92453 0.13759,-5.95136 0.71614,-8.77006 z"
         inkscape:connector-curvature="0"
         style="fill:#4c4c4c;stroke-width:0.35277778" />
      <path
         id="path873"
         d="m 4.0090646,208.63472 0.6067778,-0.0388 c 0.028222,2.46944 0.1552222,4.89303 0.3668889,7.35189 0.070556,3.53131 0.035278,7.07319 0.017639,10.6045 -0.2716389,4.19806 -0.5609167,8.49842 -1.4675556,12.61181 -0.3139723,1.10419 -0.3845278,2.15194 -1.5134167,2.73755 0.1975555,-2.27189 0.7902222,-4.4838 1.0265833,-6.75217 0.5432778,-4.63902 1.0265834,-9.22161 0.9348612,-13.89591 0.1199444,-4.20511 -0.1481667,-8.41728 0.028222,-12.61886 z"
         inkscape:connector-curvature="0"
         style="fill:#4c4c4c;stroke-width:0.35277778" />
      <path
         id="path875"
         d="m 137.53899,229.85077 c 0.37041,1.29117 0.21872,2.76931 0.25047,4.10281 -0.06,3.51014 0.20814,6.7945 -0.49036,10.21291 -0.0635,0.52212 -0.37042,0.86431 -0.66675,1.27 -0.89606,-3.13266 -1.24178,-6.46641 -1.52048,-9.70844 -0.0212,-1.905 -0.33161,-4.03931 0.17639,-5.88433 0.37748,-1.03717 1.905,-1.06539 2.25073,0.007 z"
         inkscape:connector-curvature="0"
         style="fill:#a7a7a8;stroke-width:0.35277778" />
      <path
         id="path877"
         d="m 131.79929,244.05008 c -1.55222,2.41653 -5.3728,2.4518 -7.91986,2.73755 1.36172,0.55739 2.91042,0.92428 4.14514,1.73214 0.74083,0.50095 0.99483,1.4217 0.76905,2.26484 -0.37041,0.72319 -1.12888,1.27352 -1.71097,1.82386 1.49225,0.0776 3.11856,-0.0106 4.55789,0.41275 1.00895,0.31044 1.67217,1.27 1.33703,2.32128 -0.19403,0.635 -0.89606,0.83255 -1.45697,1.01247 -2.83634,0.81491 -5.65503,0.47978 -8.67834,0.59972 -1.21002,-0.0353 -2.75872,0.127 -3.86291,-0.42686 -0.85725,-1.06186 -1.3335,-2.33539 -2.3495,-3.30906 -1.0795,-1.12889 -2.58234,-1.54869 -3.98639,-2.14841 0.007,-0.7232 -0.16934,-1.28764 0.54328,-1.74273 1.38288,-0.74083 2.75519,0.17639 3.77825,1.08303 1.12536,0.94545 1.54869,2.18722 2.29658,3.3902 0.85372,0.43744 2.08844,0.25047 3.03389,0.28927 -0.25753,-0.67027 -0.93486,-1.61219 -0.71967,-2.33186 0.45156,-0.7373 1.2312,-1.29822 1.86972,-1.87325 -0.64558,-0.59266 -1.50636,-1.16416 -1.92969,-1.94028 -0.22225,-0.8255 -0.16581,-1.778 0.0988,-2.58586 1.11125,-0.64205 2.80458,-0.36689 4.05694,-0.45861 2.11314,0.0564 4.07106,-0.50094 6.12775,-0.85019 z"
         inkscape:connector-curvature="0"
         style="fill:#4c4c4c;stroke-width:0.35277778" />
      <path
         id="path879"
         d="m 139.96962,244.18413 c 0.16581,2.07786 -0.16227,4.191 0.92428,6.00428 -0.47625,0.23989 -0.96661,0.54328 -1.48872,0.6597 -0.70908,-0.0776 -1.42169,-0.32456 -2.10608,-0.52917 -1.27706,1.13594 -1.8662,2.66347 -2.21192,4.29683 -0.23989,0.75495 -0.15169,1.59809 -0.92075,2.01436 -0.28928,-2.67052 0.0529,-5.2705 1.91911,-7.32014 0.88547,-1.11125 2.45181,-0.83255 3.71475,-1.016 0.17639,-1.36525 0.20814,-2.73402 0.16933,-4.10986 z"
         inkscape:connector-curvature="0"
         style="fill:#4c4c4c;stroke-width:0.35277778" />
      <path
         id="path881"
         d="m -0.63349113,257.50502 c -0.0423333,2.21898 -0.93838887,4.09928 -1.60513897,6.23359 -4.7589724,14.20636 -13.3808619,26.98044 -23.2374729,38.14586 -4.078111,4.50497 -8.374945,8.71008 -13.412612,12.14967 h -3.478389 c 4.282723,-3.37962 8.392584,-6.92856 12.170834,-10.86909 5.718528,-5.98664 10.939639,-12.46716 15.645695,-19.27225 5.2034725,-7.4683 9.5179448,-15.48342 12.6329727,-24.04533 0.3104445,-0.87489 0.6985,-1.61925 1.28411117,-2.34245 z"
         inkscape:connector-curvature="0"
         style="fill:#4c4c4c;stroke-width:0.35277778" />
      <path
         id="path883"
         d="m 124.01349,280.95416 c 2.23308,0.10584 4.40972,0.51506 6.66397,0.41275 -0.25047,0.47978 -0.45156,0.86431 -0.99131,1.06539 -1.92969,0.79375 -4.32858,0.70556 -6.21594,-0.18344 0.1658,-0.44097 0.32455,-0.87842 0.54328,-1.2947 z"
         inkscape:connector-curvature="0"
         style="fill:#4c4c4c;stroke-width:0.35277778" />
      <path
         id="path885"
         d="m 65.237178,292.20072 c 0.864305,0.9278 1.499305,2.03553 2.427111,2.921 1.432278,1.47814 3.132667,2.56469 4.917722,3.56658 -0.08114,0.26106 -0.162277,0.52564 -0.239888,0.7867 -2.391834,-0.381 -4.318001,-1.70039 -6.039556,-3.33728 -0.811389,-0.81139 -1.651,-1.8415 -1.940278,-2.97039 -0.144639,-0.49742 0.296333,-1.16417 0.874889,-0.96661 z"
         inkscape:connector-curvature="0"
         style="fill:#4c4c4c;stroke-width:0.35277778" />
      <path
         id="path887"
         d="m 193.00624,293.90111 c 0.28928,2.69169 -0.52564,5.49275 -2.95981,6.92855 -1.00189,0.47978 -1.58044,0.10936 -2.25778,-0.635 0.4692,-1.10772 1.30175,-1.86266 2.07434,-2.74814 1.10772,-1.23472 1.71097,-2.61761 3.14325,-3.54541 z"
         inkscape:connector-curvature="0"
         style="fill:#4c4c4c;stroke-width:0.35277778" />
    </g>
  </g>
</svg>
